<?xml version="1.0" encoding="UTF-8"?>
<svg width="62px" height="50px" viewBox="0 0 62 50" version="1.1" xmlns="http://www.w3.org/2000/svg" xmlns:xlink="http://www.w3.org/1999/xlink">
    <!-- Generator: sketchtool 48.2 (47327) - http://www.bohemiancoding.com/sketch -->
    <title>B70EE0E8-464A-4EE0-935F-EE38AF61A785</title>
    <desc>Created with sketchtool.</desc>
    <defs></defs>
    <g id="Homepage-Copy-7" stroke="none" stroke-width="1" fill="none" fill-rule="evenodd" transform="translate(-262.000000, -2240.000000)">
        <g id="advice" transform="translate(262.000000, 2240.000000)">
            <path d="M12.1805359,46.8945968 C12.1805359,46.8945968 13.6772795,41.6534677 12.4046897,39.5260484 C11.1328949,37.3994355 0.0507923077,29.6510484 1.47361282,22.8155645 C2.89643333,15.9784677 4.61812564,6.78814516 21.4646385,3.36879032 C38.3103564,-0.0489516129 51.4869462,4.81233871 57.1027154,11.1929839 C62.7176897,17.5744355 59.9475615,28.5115323 52.0854846,32.6139516 C44.2242026,36.7155645 24.3834077,40.8937903 20.9400231,42.4889516 C17.4958436,44.0841129 12.3307667,47.6534677 12.1805359,46.8945968" id="Fill-1" fill="#FEFEFE"></path>
            <path d="M54.4275744,27.903629 C49.3070103,33.5125 41.5101128,36.9479839 34.2004718,38.2681452 C26.4258308,39.671371 19.2052154,40.6439516 13.2110872,45.828629 C14.1903692,42.6439516 13.5981897,39.6092742 10.9560359,36.6802419 C6.39665128,31.6245968 1.55747179,28.3302419 2.74501026,20.5995968 C4.84824103,6.9141129 21.8108051,2.81895161 33.1981385,2.94314516 C39.1660359,3.00846774 45.4097538,4.24879032 50.5231641,7.48830645 C54.1517538,9.7875 57.5053179,13.1875 58.5020872,17.5108871 C59.3994974,21.4012097 56.8813436,25.2157258 54.4275744,27.903629 M40.8583179,0.746370968 C28.8660872,-1.40120968 13.7667026,0.890725806 5.03742051,10.1923387 C1.02729231,14.4665323 -0.751630769,20.5641129 0.294420513,26.3520161 C1.36431795,32.2697581 7.0556,35.5310484 10.6468308,39.7431452 C12.641959,42.0818548 12.5028564,44.8092742 11.5203949,47.4270161 C11.4973436,47.4512097 11.4727026,47.4721774 11.4496513,47.496371 C11.2350359,47.7229839 11.1682667,47.9810484 11.1968821,48.2229839 C11.1189846,48.4012097 11.0379077,48.578629 10.9528564,48.7544355 C10.7231385,49.2326613 11.3797026,49.6342742 11.6602923,49.1745968 C11.6944718,49.1197581 11.7222923,49.0657258 11.7548821,49.0116935 C12.0640872,49.1697581 12.4456256,49.1560484 12.753241,48.8197581 C19.709959,41.2383065 31.2069846,42.9600806 40.3066769,40.0883065 C47.1234974,37.9375 54.4323436,33.8020161 58.6666256,27.8157258 C68.1915744,14.3471774 53.1581641,2.94879032 40.8583179,0.746370968" id="Fill-3" fill="#020303"></path>
            <path d="M46.267659,14.5191935 C44.766941,14.3901613 42.8910436,13.8208065 41.4078128,14.2345161 C39.1241462,14.8716129 38.1536077,16.9716129 35.4303769,15.1845161 C32.4877615,13.253871 30.7891205,14.3441935 27.9879923,15.7587097 C24.5899154,17.4740323 23.6845564,14.803871 21.454941,13.686129 C20.4462487,13.1804839 19.1394795,13.4667742 18.0799154,13.6240323 C15.2199667,14.0466129 12.0587615,15.853871 10.2861974,18.1579032 C9.53027436,19.1409677 10.8100179,20.5433871 11.6740436,19.5659677 C13.0626846,17.9974194 14.8877103,17.1619355 16.8224282,16.4837097 C19.4097359,15.5756452 20.7188897,16.5119355 22.5017872,18.2893548 C24.4857872,20.2659677 27.3600436,19.4304839 29.4974538,18.3796774 C31.7000436,17.2982258 32.4186077,16.8998387 34.5615821,18.3498387 C35.5901462,19.0458065 36.6473256,19.2248387 37.8547359,19.2651613 C39.0549923,19.3054839 40.129659,18.6748387 41.0938385,18.0401613 C42.8187103,16.9054839 44.7232231,17.7627419 46.5975308,16.9941935 C47.897941,16.4619355 47.7135308,14.6433871 46.267659,14.5191935" id="Fill-5" fill="#020303"></path>
            <path d="M44.6321308,23.3799194 C41.7737718,23.4597581 38.9527718,23.9581452 36.0705667,24.0242742 C32.8879,24.0976613 30.3363615,25.1734677 27.1354128,24.361371 C23.1070026,23.3395968 19.0730282,22.3823387 15.9221564,25.7718548 C15.2091564,26.5371774 16.1510795,27.9105645 17.0651821,27.2758871 C21.6857718,24.068629 26.3850538,28.4073387 31.3689,28.0468548 C34.2224897,27.8404032 36.9751308,27.3605645 39.8684641,27.2855645 C42.039259,27.2291129 43.8539513,26.8912097 45.4484641,25.3799194 C46.1797462,24.6871774 45.6257205,23.3525 44.6321308,23.3799194" id="Fill-7" fill="#020303"></path>
        </g>
    </g>
</svg>