<?xml version="1.0" encoding="UTF-8"?>
<svg width="37px" height="35px" viewBox="0 0 37 35" version="1.1" xmlns="http://www.w3.org/2000/svg" xmlns:xlink="http://www.w3.org/1999/xlink">
    <!-- Generator: sketchtool 48.2 (47327) - http://www.bohemiancoding.com/sketch -->
    <title>9940BAA3-63E7-4534-925A-F103F412E85F</title>
    <desc>Created with sketchtool.</desc>
    <defs></defs>
    <g id="GrammarLessonDetail" stroke="none" stroke-width="1" fill="none" fill-rule="evenodd" transform="translate(-141.000000, -185.000000)">
        <g id="resource-icon" transform="translate(141.000000, 185.000000)">
            <polygon id="Fill-2" fill="#8BB03E" points="1 33 10 33 10 7 1 7"></polygon>
            <polygon id="Fill-3" fill="#F9E164" points="10 16.5482822 1 17 1 15 10 15"></polygon>
            <polygon id="Fill-4" fill="#F9E164" points="1.08677479 31 10 31.1196048 9.97040629 33.3702548 5.28256144 34 1 32.9199168"></polygon>
            <g id="Group-21">
                <path d="M13.1086179,1.55182025 C13.2412051,1.53161288 18.1773068,0.447151095 18.6454602,0.57464993 C19.1140958,0.701667637 22.2658146,1.93431675 22.2658146,1.93431675 L22.1804766,32.7072431 C22.1804766,32.7072431 20.1362227,33.897553 17.2395536,33.7272338 C14.3438486,33.5569146 13.1510458,33.2167573 13.0657078,32.1120882 C12.9803699,31.0069379 12.8530861,28.2019635 12.8530861,28.2019635 L12.5122164,7.11991088 C12.5122164,7.11991088 12.5551265,1.63697985 13.1086179,1.55182025" id="Fill-5" fill="#EA5745"></path>
                <path d="M12.6957172,6.72817672 L21.8138609,6.55689527 L21.7275587,8.35968068 C21.7275587,8.35968068 14.1580337,8.78788432 12.7820194,8.5737825 L12.6957172,6.72817672 Z" id="Fill-7" fill="#F9E164"></path>
                <path d="M13.098252,30.2409345 C13.098252,30.2409345 19.2170317,30.8702495 20.0236441,30.7870144 C20.8302566,30.7037794 21.8499728,30.6484497 21.8499728,30.6484497 L22.1469682,32.3410568 C22.1469682,32.3410568 21.0713243,33.7748173 17.3535786,33.6362526 C13.6358329,33.4976878 12.5881528,32.8866556 13.098252,30.2409345" id="Fill-9" fill="#F9E164"></path>
                <path d="M22.8977494,6.67558947 L32.215015,5.29715867 L32.2796212,7.76582479 C32.2796212,7.76582479 34.9781327,23.668538 35.6208192,25.5920864 C36.2635056,27.5156349 36.7128557,31.7481151 36.2953265,32.1652528 C35.8777973,32.5819094 29.1626161,36.0763397 27.0744879,33.0947915 L26.6241735,30.8825664 L22.8977494,6.67558947 Z" id="Fill-11" fill="#82C2C2"></path>
                <path d="M25.5414904,8.43372623 C25.5414904,8.43372623 30.24231,7.291048 30.5436446,7.65189376 C30.8449792,8.01273952 31.2065807,9.87710927 31.02578,10.358237 C30.8449792,10.8393646 26.8070957,11.4407742 26.3852272,11.3806333 C25.9633588,11.3204923 25.1798889,8.85471295 25.5414904,8.43372623" id="Fill-13" fill="#FEFEFE"></path>
                <path d="M35.8627065,31.941336 C33.6053488,33.2259469 29.452717,34.4980485 27.1804131,32.7106591 C27.1630562,32.6962253 27.1456993,32.6947819 27.1278603,32.6846782 C27.2353765,32.1602491 27.1712525,31.6055089 27.0820575,30.9709014 C29.6508746,31.8912987 33.7933815,32.0404483 35.8294391,29.6877339 C35.8332962,29.6834038 35.8347426,29.676668 35.8385997,29.6718567 C35.8959738,30.4204914 35.9205627,31.1710506 35.8993488,31.9249776 C35.8872954,31.9312323 35.8747599,31.9341191 35.8627065,31.941336 M26.0594484,22.6079401 C25.6168481,19.5830904 25.2277649,16.5500615 24.7803433,13.5266552 C24.4616518,11.3721654 24.6429347,8.78081174 23.6637178,6.83753705 C25.1327842,7.01266752 26.5025308,6.70089678 27.9421869,6.40019199 C29.2415417,6.12835485 30.5707889,6.26355172 31.8691794,6.09227027 C31.7944484,6.58157712 31.8460369,7.11899674 31.9058216,7.62658644 C32.1893172,10.02164 32.590936,12.4061088 32.8961277,14.8016435 C33.5055467,19.5806848 35.3121079,24.3092076 35.7870112,29.1243334 C35.7156552,29.0569755 35.6221209,29.0252211 35.5136405,29.0723716 C34.2755169,29.6112346 33.1883017,30.2828889 31.8682151,30.592254 C30.2945253,30.9607978 28.6321226,30.9218264 27.0458973,30.6860739 C26.6799566,28.0009003 26.4519066,25.294076 26.0594484,22.6079401 M21.4135921,6.22746715 C19.5583353,6.11343989 17.6823467,6.45552167 15.8309469,6.56618103 C15.0682088,6.61188816 13.9554404,6.38142801 13.1661848,6.57003006 C13.0822933,4.85817777 12.9477775,2.51604823 13.5113937,1.86123346 C13.5186258,1.85305429 13.522965,1.84391286 13.530197,1.83525256 C14.9279074,1.88095969 16.3106716,1.74913071 17.7107926,1.65386743 C19.1784127,1.554274 20.397733,1.86796925 21.8118359,2.10468406 C21.5789646,3.43452097 21.4637342,4.81920643 21.4135921,6.22746715 M15.0754408,33.0051093 C13.5393576,32.932459 13.3146825,31.9591377 13.2698439,30.663942 C14.9471928,31.0738628 16.6240596,31.1392961 18.349622,31.1493998 C19.4132126,31.1556545 20.5983013,31.4674252 21.6213925,31.1027304 C21.6503206,31.5030287 21.6753916,31.9042891 21.7139625,32.3012195 C20.0110604,33.6421223 17.0647313,33.0994103 15.0754408,33.0051093 M13.1922201,7.14449651 C13.6849625,7.39083388 14.4857893,7.3095233 14.8936758,7.33261743 C17.0276069,7.45145596 19.257965,7.31385345 21.3909318,7.08243103 C21.3861104,7.39179613 21.3856283,7.70212349 21.3856283,8.01245084 C18.6470995,8.21548672 15.9047136,8.37425885 13.1690776,8.6027945 C13.1792025,8.43199418 13.1902916,8.26119385 13.2004164,8.09087465 C13.2143984,7.85752773 13.2081306,7.52939865 13.1922201,7.14449651 M13.2529692,29.7262241 C13.2254875,27.9994569 13.3710923,26.2178411 13.2703261,24.5074322 C13.2587548,24.3164245 13.181131,24.1879634 13.0789183,24.1095396 C13.0933824,21.3868381 13.0683113,18.6742402 12.9593488,15.9520198 C12.8634038,13.5569662 13.0114194,11.1503656 13.1589528,8.759161 C15.8675892,9.00020596 18.6760276,9.18495899 21.3894854,8.81689632 C21.4188956,11.47224 21.5818574,14.1463476 21.5818574,16.6419569 C21.5818574,21.0866144 21.3075224,25.7343078 21.5582327,30.2213045 C20.4874101,30.3767088 19.4339444,30.2588325 18.349622,30.2775965 C16.6423807,30.3064641 14.9520142,30.3165678 13.2577905,30.0764851 C13.2563441,29.9610144 13.2548977,29.8450627 13.2529692,29.7262241 M34.5512983,17.5339676 C33.9172903,13.676767 33.624152,9.65550186 32.8387536,5.83390471 C33.1343025,5.54811486 33.0711428,4.88463979 32.6381852,4.77638607 C29.5771079,4.01091193 26.6799566,5.63760461 23.6507002,5.60392568 C23.457846,5.60152004 23.3242945,5.68764189 23.2384744,5.81081058 C23.1700112,4.293815 23.0186207,2.80713048 22.7196968,1.3926151 C22.6845009,1.22566379 22.5765026,1.12414585 22.4516296,1.08517451 C22.4149873,1.04475979 22.3812378,1.00434506 22.3306136,0.971147251 C19.6513874,-0.783525396 16.0257296,0.425548462 13.1314711,0.765705732 C13.0437224,0.758007689 12.9535631,0.778215051 12.8662966,0.828733458 C12.7664946,0.875402842 12.6946565,0.951902144 12.6474072,1.04427866 C11.9068473,1.9767041 12.0476308,3.3551349 12.1078977,4.53630336 C12.2346993,7.02469571 11.9222756,9.52511626 11.8041525,12.011103 C11.588638,16.5385144 11.9073294,21.0846899 12.0977729,25.6202805 C11.8321163,27.2806521 12.0683626,29.0622679 12.0997014,30.7293753 C12.1238082,32.0313068 12.2366279,33.7782815 13.5552681,34.217551 C14.9452643,34.6799147 16.4177056,34.598123 17.8525404,34.624585 C19.3625884,34.6520093 21.1045434,34.6370944 22.3875055,33.6103679 C22.4598259,33.5521514 22.5147893,33.4847936 22.5596279,33.4131055 C22.7303038,33.3255403 22.8715694,33.1417495 22.9038725,32.8492239 C23.489667,27.5717344 23.0846733,21.9603423 23.0846733,16.6419569 C23.0846733,15.4809958 23.1208334,14.2810634 23.1618149,13.062367 C23.5455947,15.6503527 24.0547296,18.236414 24.3473858,20.7652211 C24.5927926,22.8831452 25.0638389,24.9794185 25.4018158,27.0809842 C25.7084538,28.9915422 26.2942483,31.0055426 26.5430301,32.9440061 C26.4639599,33.1340515 26.4625135,33.3669173 26.6105291,33.5439723 C26.6114934,33.561774 26.6148683,33.580538 26.6163147,33.5978586 C26.6196897,33.6382733 26.6654925,33.6719522 26.6934564,33.6349054 C26.6944206,33.6329809 26.6949028,33.6320186 26.6963492,33.6305753 C28.9296001,36.0929867 34.1328048,34.7366878 36.4673042,33.1162498 C36.6934257,32.9594021 36.7724959,32.7284609 36.7546569,32.5071421 C36.9002617,32.4118788 37.0039208,32.2410785 36.9957245,31.9937789 C36.8255308,27.0785785 35.3424824,22.3447633 34.5512983,17.5339676" id="Fill-15" fill="#020303"></path>
                <path d="M26.6230164,11.3087528 C26.5878205,10.9406901 26.4711438,10.5779199 26.3838773,10.2228476 C26.2464687,9.66473952 26.108578,9.10855592 25.9923834,8.54371202 C26.6673728,8.48645783 27.3283804,8.35366659 28.0057806,8.23530918 C28.8176965,8.09337651 29.6349159,8.19152656 30.4352606,8.13667801 C30.4921526,8.74482339 30.6064187,9.36307246 30.7028457,9.94668034 C30.7124884,10.0063402 30.7409344,10.0515662 30.775166,10.0895753 C30.7192383,10.631325 27.8394439,11.0542363 26.6230164,11.3087528 M31.5591181,9.95101048 C31.5181366,9.78165354 31.409174,9.68687139 31.2862295,9.65126794 C31.291533,9.10759366 31.1555708,8.57594758 31.0721614,8.0375657 C31.2770689,7.91487815 31.2384981,7.54296645 31.0591438,7.3995904 C31.0340727,7.37986417 31.0070731,7.36879823 30.9820021,7.35003425 C30.9188424,7.2100261 30.7804695,7.15325303 30.6531858,7.17249814 C29.9801248,6.90451002 29.1706196,7.08300839 28.4826124,7.1979979 C27.3635763,7.3856377 26.2855216,7.80951118 25.200235,8.15255522 C24.993881,8.21798858 25.0377554,8.57017404 25.2498949,8.57306081 C25.2595376,8.57306081 25.2686982,8.57257968 25.2783409,8.57257968 C25.2764124,8.60866426 25.2711089,8.64282432 25.2778588,8.68227679 C25.3651253,9.20574371 25.471195,9.72343709 25.5820862,10.2406493 C25.6973165,10.7828802 25.7503514,11.3804408 25.9894905,11.8707099 C26.1606486,12.2238576 26.5661244,12.0472838 26.6201236,11.7080888 C28.1186003,11.7215603 32.0248609,11.8630119 31.5591181,9.95101048" id="Fill-17" fill="#020303"></path>
                <path d="M6.02113178,32.7974065 C4.64270681,32.8233873 3.24885351,32.761803 1.87958911,32.5481823 C1.87910698,32.5414465 1.88055338,32.5351919 1.87958911,32.527975 C1.83089344,32.1093939 1.79569756,31.6845581 1.76387663,31.2597224 C4.25024863,31.5094277 6.87306494,31.7985854 9.34738356,31.4670884 C9.46936381,31.4512112 9.5469876,31.3785609 9.58941551,31.2890712 C9.60436171,31.8067646 9.61834363,32.3259013 9.63328983,32.8440758 C8.47423644,32.5597294 7.19754203,32.7757557 6.02113178,32.7974065 M1.69107419,19.8016667 C1.67419945,19.0520698 1.65925326,18.3024729 1.64382493,17.5528759 C4.18612463,17.3334817 6.75735246,17.3772643 9.29772362,17.1496909 C9.33195523,21.7569696 9.44959626,26.3642483 9.58073707,30.9686401 C9.53589849,30.8878107 9.46116751,30.8228585 9.34738356,30.8079435 C6.84172615,30.4725975 4.24928436,30.7295197 1.72048445,30.6284829 C1.51027343,27.0657324 1.76966225,23.3345873 1.69107419,19.8016667 M9.05135246,14.9798051 C6.57173035,14.5775824 4.08294767,15.2848401 1.5888615,14.8258442 C1.5411301,12.2749053 1.50448781,9.72348521 1.49822005,7.17110287 C4.09259037,7.52906186 6.74867402,7.59786312 9.36811538,7.58294816 C9.29434868,10.5697888 9.27795607,13.5575917 9.29531295,16.5453946 C6.7443348,16.5146024 4.14514313,16.840807 1.63852144,17.2940292 C1.62743232,16.7647888 1.61537894,16.2355483 1.6052541,15.706789 C4.01689512,16.2009072 6.65851471,16.0989081 9.05135246,15.6399123 C9.33677659,15.5855449 9.34352648,15.0264745 9.05135246,14.9798051 M10.1949775,5.93219909 C7.53792959,5.90140692 4.832186,5.93797262 2.18140584,6.25166787 C2.13897793,6.21798893 2.09172867,6.18864014 2.03049748,6.17083842 C1.65636045,6.06354695 1.23593842,6.07268837 0.921586171,6.31373334 C0.526235183,6.23530953 0.0730279529,6.48501479 0.0735100883,7.07535846 C0.0797778478,11.3184235 0.165115805,15.5600451 0.256721522,19.8016667 C0.345916562,23.9393647 0.908568516,28.4297294 0.444754309,32.527975 C0.406665616,32.8609153 0.548895544,33.0870453 0.756213745,33.2087706 C0.805873686,33.31943 0.897479403,33.4108442 1.04019147,33.4575136 C2.50057945,33.9309433 3.95373539,34.114734 5.46715826,34.2071106 C6.84510109,34.2913079 8.43470135,34.5020418 9.77937684,34.1036681 C9.95487411,34.0517063 10.0676938,33.9136227 10.1279607,33.7514826 C10.4948657,33.8520383 10.9345731,33.6254272 10.9389124,33.0629889 C11.0001435,24.4166434 11.0652318,15.7654866 10.8246463,7.12058446 C11.0136433,6.63608889 10.805843,5.93941601 10.1949775,5.93219909" id="Fill-19" fill="#020303"></path>
            </g>
        </g>
    </g>
</svg>