<?xml version="1.0" encoding="UTF-8"?>
<svg width="28px" height="29px" viewBox="0 0 28 29" version="1.1" xmlns="http://www.w3.org/2000/svg" xmlns:xlink="http://www.w3.org/1999/xlink">
    <!-- Generator: sketchtool 48.2 (47327) - http://www.bohemiancoding.com/sketch -->
    <title>194BEB9A-0240-41F2-AD36-023393D1F581</title>
    <desc>Created with sketchtool.</desc>
    <defs>
        <polygon id="path-1" points="0 0.14315442 27.3011148 0.14315442 27.3011148 27.8188047 0 27.8188047"></polygon>
    </defs>
    <g id="ResumeBoardAccess" stroke="none" stroke-width="1" fill="none" fill-rule="evenodd" transform="translate(-938.000000, -621.000000)">
        <g id="click-icon" transform="translate(938.000000, 621.000000)">
            <path d="M24.8673041,12.9302599 C21.7494122,13.3109801 18.0346689,14.6506543 15.9211959,16.5260391 C13.3954527,18.7765804 12.7241419,22.8977376 11.8310203,26.1394232 C9.46360135,22.5758343 8.43331757,18.1442987 6.85320946,14.1896569 C5.24723649,10.1706345 3.79880405,5.24591123 1.32047973,1.56985489 C1.88597973,1.83254389 2.50438514,2.00382825 3.06439865,2.24505702 C6.11880405,3.57956483 9.16262838,4.92440533 12.2060608,6.29070605 C14.721223,7.42173917 17.1889662,8.65927857 19.6621959,9.88648527 C21.427277,10.7548294 23.1077095,11.9979325 24.8673041,12.9302599" id="Fill-1" fill="#8675A2"></path>
            <g id="Group-5" transform="translate(0.000000, 0.254304)">
                <mask id="mask-2" fill="white">
                    <use xlink:href="#path-1"></use>
                </mask>
                <g id="Clip-4"></g>
                <path d="M15.9211176,16.271656 C13.3953743,18.5225947 12.7240635,22.6433545 11.8309419,25.8850401 C9.46352297,22.3218486 8.43363108,17.8899156 6.85313108,13.9352738 C5.24715811,9.91625139 3.79872568,4.99152813 1.32040135,1.31547179 C1.88629324,1.57816079 2.50430676,1.74944515 3.06432027,1.99067392 C6.11872568,3.32518173 9.16255,4.67002223 12.2063743,6.03672037 C14.7211446,7.16735607 17.1888878,8.40529288 19.6621176,9.63210217 C21.4271986,10.5004463 23.1076311,11.7435494 24.8672257,12.6758768 C21.7493338,13.056597 18.0349824,14.3962712 15.9211176,16.271656 M27.2452257,12.863455 C27.2346446,12.8153683 27.2134824,12.7672815 27.1766446,12.724361 C25.9237662,10.9988003 23.8106851,10.0823694 21.96605,9.11228793 C19.3031446,7.71379688 16.5497122,6.45996361 13.8021581,5.24348702 C9.78056351,3.46983951 5.72252297,1.9103968 1.55867162,0.55482619 C1.28905,0.463421545 1.01433378,0.377580662 0.744712162,0.292137191 C0.686712162,0.27067697 0.633806757,0.275843319 0.585995946,0.29730354 C0.575806757,0.28140708 0.559739189,0.26551062 0.548766216,0.249216749 C0.337536486,-0.0186385992 -0.0692472973,0.27067697 0.00991486486,0.5655563 C0.691806757,3.06765908 1.99171216,5.45252547 2.94792838,7.85845466 C3.99976622,10.5111764 5.00379324,13.1849609 6.01330676,15.8484128 C7.43979324,19.6262065 8.22710405,24.7544044 11.2442797,27.6268947 C11.6620365,28.0235114 12.33805,27.7500923 12.5128338,27.3105552 C12.5759284,27.2461745 12.6339284,27.1714611 12.6711581,27.06416 C12.7663878,26.7963047 12.8561311,26.5284493 12.9411716,26.2601966 C13.8969959,23.3451833 14.60005,20.1996713 16.5132662,17.7774482 C18.8959689,14.7606975 23.6727392,15.0980999 26.8964419,13.7317992 C27.2663878,13.5764113 27.3827797,13.1527706 27.2452257,12.863455" id="Fill-3" fill="#1D1D1B" mask="url(#mask-2)"></path>
            </g>
        </g>
    </g>
</svg>