<?xml version="1.0" encoding="UTF-8"?>
<svg width="23px" height="25px" viewBox="0 0 23 25" version="1.1" xmlns="http://www.w3.org/2000/svg" xmlns:xlink="http://www.w3.org/1999/xlink">
    <!-- Generator: sketchtool 48.2 (47327) - http://www.bohemiancoding.com/sketch -->
    <title>51621F26-B95B-460B-9D29-0772DFBBC2EB</title>
    <desc>Created with sketchtool.</desc>
    <defs></defs>
    <g id="PostAJob1-Copy-3" stroke="none" stroke-width="1" fill="none" fill-rule="evenodd" transform="translate(-796.000000, -487.000000)">
        <g id="companyname" transform="translate(797.000000, 488.000000)" stroke="#020303" stroke-width="1.5">
            <g id="Group-8" transform="translate(0.000000, 3.018686)">
                <polygon id="Stroke-1" points="0.65625 19.9285714 12.250875 19.9285714 12.250875 0.0222857143 0.65625 0.0222857143"></polygon>
                <path d="M2.612575,9.90685714 L10.025575,9.90685714" id="Stroke-3"></path>
                <path d="M2.612575,13.2015429 L10.025575,13.2015429" id="Stroke-4"></path>
                <path d="M2.612575,16.4961429 L10.025575,16.4961429" id="Stroke-5"></path>
                <path d="M2.612575,3.31757143 L10.025575,3.31757143" id="Stroke-6"></path>
                <path d="M2.612575,6.61225714 L10.025575,6.61225714" id="Stroke-7"></path>
            </g>
            <path d="M14.1964375,17.0898857 L18.9398125,17.0898857" id="Stroke-9"></path>
            <path d="M14.1964375,20.0036571 L18.9398125,20.0036571" id="Stroke-10"></path>
            <path d="M14.1964375,11.2623429 L18.9398125,11.2623429" id="Stroke-11"></path>
            <path d="M14.1964375,14.1761143 L18.9398125,14.1761143" id="Stroke-12"></path>
            <g id="Group-17" transform="translate(1.750000, 0.447257)">
                <polyline id="Stroke-13" points="8.627325 2.5944 8.627325 0.195257143 0.780325 0.195257143 0.780325 2.5944"></polyline>
                <polyline id="Stroke-15" points="10.501225 7.872 19.15585 7.872 19.15585 22.5 10.501225 22.5"></polyline>
            </g>
        </g>
    </g>
</svg>