<?xml version="1.0" encoding="UTF-8"?>
<svg width="186px" height="126px" viewBox="0 0 186 126" version="1.1" xmlns="http://www.w3.org/2000/svg" xmlns:xlink="http://www.w3.org/1999/xlink">
    <!-- Generator: sketchtool 48.2 (47327) - http://www.bohemiancoding.com/sketch -->
    <title>1A616748-4555-4AFF-87BB-A9CC8F36AFDE</title>
    <desc>Created with sketchtool.</desc>
    <defs>
        <polygon id="path-1" points="0 -6.71250342e-05 144.489203 -6.71250342e-05 144.489203 93.3037303 0 93.3037303"></polygon>
        <polygon id="path-3" points="0 126 186 126 186 0 0 0"></polygon>
    </defs>
    <g id="PostAJob2-Copy" stroke="none" stroke-width="1" fill="none" fill-rule="evenodd" transform="translate(-709.000000, -407.000000)">
        <g id="cvv-graphic" transform="translate(709.000000, 407.000000)">
            <g id="Group-3" transform="translate(0.000000, 32.696203)">
                <mask id="mask-2" fill="white">
                    <use xlink:href="#path-1"></use>
                </mask>
                <g id="Clip-2"></g>
                <path d="M129.006002,93.3037303 L15.4831342,93.3037303 C6.93205756,93.3037303 -6.72043118e-05,86.3804543 -6.72043118e-05,77.8387937 L-6.72043118e-05,15.4648695 C-6.72043118e-05,6.92388015 6.93205756,-6.71250342e-05 15.4831342,-6.71250342e-05 L129.006002,-6.71250342e-05 C137.55775,-6.71250342e-05 144.489203,6.92388015 144.489203,15.4648695 L144.489203,77.8387937 C144.489203,86.3804543 137.55775,93.3037303 129.006002,93.3037303" id="Fill-1" fill="#3A393A" mask="url(#mask-2)"></path>
            </g>
            <path d="M15.4492153,122.012658 C9.13091731,122.012658 3.99141631,116.876786 3.99141631,110.564447 L3.99141631,48.1317551 C3.99141631,41.8194163 9.13091731,36.6835443 15.4492153,36.6835443 L129.040055,36.6835443 C135.357681,36.6835443 140.497854,41.8194163 140.497854,48.1317551 L140.497854,110.564447 C140.497854,116.876786 135.357681,122.012658 129.040055,122.012658 L15.4492153,122.012658 Z" id="Fill-4" fill="#FFFFFF"></path>
            <mask id="mask-4" fill="white">
                <use xlink:href="#path-3"></use>
            </mask>
            <g id="Clip-7"></g>
            <polygon id="Fill-6" fill="#3A393A" mask="url(#mask-4)" points="3.19313305 66.9873418 141.296137 66.9873418 141.296137 47.8481013 3.19313305 47.8481013"></polygon>
            <path d="M134.111588,92.9050633 C134.111588,82.5548377 125.712062,74.164557 115.351931,74.164557 C104.991129,74.164557 96.5922747,82.5548377 96.5922747,92.9050633 C96.5922747,103.255289 104.991129,111.64557 115.351931,111.64557 C125.712062,111.64557 134.111588,103.255289 134.111588,92.9050633" id="Fill-8" fill="#F06230" mask="url(#mask-4)"></path>
            <path d="M185.201717,21.1329114 C185.201717,9.46154105 175.730657,0 164.047544,0 C152.363764,0 142.892704,9.46154105 142.892704,21.1329114 C142.892704,32.8042817 152.363764,42.2658228 164.047544,42.2658228 C175.730657,42.2658228 185.201717,32.8042817 185.201717,21.1329114" id="Fill-9" fill="#F06230" mask="url(#mask-4)"></path>
            <path d="M91.1509439,93.3037975 C91.1509439,90.4937358 91.6668437,87.807096 92.6008584,85.3291139 L18.360515,85.3291139 L18.360515,101.278481 L92.6008584,101.278481 C91.6668437,98.800499 91.1509439,96.1138591 91.1509439,93.3037975" id="Fill-10" fill="#3A393A" mask="url(#mask-4)"></path>
            <polygon id="Fill-11" fill="#FFFFFF" mask="url(#mask-4)" points="106.848279 97.2911392 106.848279 91.4123083 105.210743 92.8989388 103.776824 91.5438228 107.18525 88.5189873 109.364807 88.5189873 109.364807 97.2911392"></polygon>
            <path d="M110.452592,98.0886076 L110.452592,96.1950533 C114.262639,93.2407483 114.974761,92.5901638 114.974761,91.6430402 C114.974761,91.0070055 114.407389,90.6675098 113.761827,90.6675098 C112.786052,90.6675098 112.048081,91.0631262 111.414797,91.6991609 L110.16309,90.0882887 C111.0988,88.9852742 112.495904,88.5189873 113.722408,88.5189873 C115.792215,88.5189873 117.281726,89.76265 117.281726,91.6430402 C117.281726,93.0994072 116.319521,94.3285201 114.130812,95.9677991 L117.347639,95.9677991 L117.347639,98.0886076 L110.452592,98.0886076 Z" id="Fill-12" fill="#FFFFFF" mask="url(#mask-4)"></path>
            <path d="M118.145923,96.6297119 L119.278277,95.0047078 C119.915585,95.6575687 120.892281,95.976851 121.646971,95.976851 C122.61027,95.976851 123.104678,95.5881299 123.104678,95.0741466 C123.104678,94.5465478 122.740411,94.2830888 121.556383,94.2830888 C121.178719,94.2830888 120.514617,94.2967043 120.384476,94.3103197 L120.384476,92.1856285 C120.553531,92.1992439 121.230392,92.1992439 121.556383,92.1992439 C122.453973,92.1992439 122.961778,91.9636966 122.961778,91.477625 C122.961778,90.8935221 122.336591,90.6300631 121.504071,90.6300631 C120.710466,90.6300631 119.955138,90.93573 119.343348,91.5184714 L118.263305,90.0187294 C119.005236,89.1439366 120.137591,88.5189873 121.738197,88.5189873 C123.950595,88.5189873 125.186934,89.5326577 125.186934,91.0603114 C125.186934,92.1441014 124.314862,92.9630708 123.287131,93.1441563 C124.210877,93.240826 125.330472,94.0053336 125.330472,95.3382863 C125.330472,96.9632905 123.898921,98.0886076 121.738197,98.0886076 C120.07252,98.0886076 118.835543,97.4636584 118.145923,96.6297119" id="Fill-13" fill="#FFFFFF" mask="url(#mask-4)"></path>
            <path d="M150.875536,20.7338373 C150.875536,17.8772951 152.976746,15.9493671 155.737431,15.9493671 C157.905314,15.9493671 159.077714,17.2110859 159.656652,18.4184202 L157.663045,19.4027784 C157.366644,18.6679088 156.599567,18.0574436 155.737431,18.0574436 C154.269951,18.0574436 153.232218,19.2083541 153.232218,20.7338373 C153.232218,22.2457245 154.269951,23.4109109 155.737431,23.4109109 C156.599567,23.4109109 157.366644,22.8004457 157.663045,22.065576 L159.656652,23.0363381 C159.077714,24.2151206 157.905314,25.5189873 155.737431,25.5189873 C152.976746,25.5189873 150.875536,23.5774632 150.875536,20.7338373" id="Fill-14" fill="#FFFFFF" mask="url(#mask-4)"></path>
            <polygon id="Fill-15" fill="#FFFFFF" mask="url(#mask-4)" points="163.000855 25.5189873 159.656652 16.7468354 162.254433 16.7468354 164.453209 23.0724292 166.637617 16.7468354 169.236052 16.7468354 165.891849 25.5189873"></polygon>
            <polygon id="Fill-16" fill="#FFFFFF" mask="url(#mask-4)" points="172.580254 25.5189873 169.236052 16.7468354 171.833833 16.7468354 174.032608 23.0724292 176.217017 16.7468354 178.815451 16.7468354 175.471248 25.5189873"></polygon>
            <polygon id="Fill-17" fill="#FFFFFF" mask="url(#mask-4)" points="136.506438 98.0886076 148.480687 98.0886076 148.480687 87.721519 136.506438 87.721519"></polygon>
            <path d="M164.823863,94.8987342 L132.935793,94.8987342 C131.82155,94.8987342 130.918455,94.0023391 130.918455,92.8963625 C130.918455,91.7903859 131.82155,90.8939908 132.935793,90.8939908 L162.806525,90.8939908 L162.806525,41.078321 C162.806525,39.9723444 163.70962,39.0759494 164.823863,39.0759494 C165.938107,39.0759494 166.841202,39.9723444 166.841202,41.078321 L166.841202,92.8963625 C166.841202,94.0023391 165.938107,94.8987342 164.823863,94.8987342" id="Fill-18" fill="#F06230" mask="url(#mask-4)"></path>
        </g>
    </g>
</svg>