<?xml version="1.0" encoding="UTF-8"?>
<svg width="17px" height="15px" viewBox="0 0 17 15" version="1.1" xmlns="http://www.w3.org/2000/svg" xmlns:xlink="http://www.w3.org/1999/xlink">
    <!-- Generator: sketchtool 48.2 (47327) - http://www.bohemiancoding.com/sketch -->
    <title>FAD24E79-7627-4542-9FBB-A05A61D754BE</title>
    <desc>Created with sketchtool.</desc>
    <defs></defs>
    <g id="OrderConfirmGuest" stroke="none" stroke-width="1" fill="none" fill-rule="evenodd" transform="translate(-229.000000, -332.000000)">
        <g id="Group-2" transform="translate(205.000000, 321.000000)" fill="#FFFFFF">
            <g id="download-button" transform="translate(24.000000, 11.000000)">
                <path d="M16.1412167,8.14145455 C15.6785333,8.14145455 15.3045333,8.50145455 15.3045333,8.94681818 L15.3045333,13.1953636 L1.75978333,13.1953636 L1.75978333,8.79 C1.75978333,8.34490909 1.38578333,7.98463636 0.9231,7.98463636 C0.46155,7.98463636 0.0864166667,8.34490909 0.0864166667,8.79 L0.0864166667,14.0007273 C0.0864166667,14.4460909 0.460416667,14.8060909 0.9231,14.8060909 L16.1412167,14.8060909 C16.6039,14.8060909 16.9779,14.4460909 16.9779,14.0007273 L16.9779,8.94681818 C16.9779,8.50145455 16.6039,8.14145455 16.1412167,8.14145455 Z" id="Fill-1"></path>
                <path d="M7.90358333,11.121 C7.90896667,11.1275455 7.91661667,11.1297273 7.92228333,11.1349091 C7.9798,11.1935455 8.0495,11.2371818 8.1226,11.2778182 C8.1481,11.2914545 8.16793333,11.3138182 8.1957,11.3244545 C8.29855,11.3683636 8.4116,11.3948182 8.53088333,11.3948182 C8.65045,11.3948182 8.7635,11.3694545 8.86635,11.3244545 C8.89298333,11.3127273 8.91168333,11.2925455 8.93605,11.2797273 C9.01141667,11.2393636 9.08225,11.1946364 9.13976667,11.1349091 C9.14515,11.1286364 9.15308333,11.1275455 9.1596,11.121 L14.06155,5.75181818 C14.3669833,5.41827273 14.3327,4.90909091 13.98505,4.61509091 C13.6388167,4.32109091 13.1098333,4.353 12.8041167,4.68845455 L9.36756667,8.45345455 L9.36756667,0.828818182 C9.36756667,0.384545455 8.99356667,0.0234545455 8.53088333,0.0234545455 C8.06848333,0.0234545455 7.6942,0.383454545 7.6942,0.828818182 L7.6942,8.45345455 L4.25765,4.68954545 C3.95221667,4.35518182 3.4221,4.32327273 3.07671667,4.61618182 C2.72935,4.91018182 2.6962,5.41827273 3.0005,5.75290909 L7.90358333,11.121 Z" id="Fill-2"></path>
            </g>
        </g>
    </g>
</svg>