<?xml version="1.0" encoding="UTF-8"?>
<svg width="20px" height="23px" viewBox="0 0 20 23" version="1.1" xmlns="http://www.w3.org/2000/svg" xmlns:xlink="http://www.w3.org/1999/xlink">
    <!-- Generator: sketchtool 48.2 (47327) - http://www.bohemiancoding.com/sketch -->
    <title>C3B11A88-A036-4393-8507-B1A804BAC58B</title>
    <desc>Created with sketchtool.</desc>
    <defs>
        <polygon id="path-1" points="0.171037922 0.0666708861 16.2735098 0.0666708861 16.2735098 16.9966881 0.171037922 16.9966881"></polygon>
        <polygon id="path-3" points="0 0.130699585 19.7597143 0.130699585 19.7597143 8.44297762 0 8.44297762"></polygon>
    </defs>
    <g id="ResumeDetail" stroke="none" stroke-width="1" fill="none" fill-rule="evenodd" transform="translate(-204.000000, -833.000000)">
        <g id="download-icon" transform="translate(204.000000, 833.000000)">
            <path d="M18.9488857,22.1754646 C16.1048857,21.8854899 13.1826,22.0575532 10.3234571,22.0575532 C9.04688571,22.0575532 7.76117143,22.038338 6.47202857,22.0415405 C5.40517143,21.7448696 4.39174286,21.7833 3.26831429,21.8054266 C2.55517143,21.8182367 1.50374286,21.6942114 0.778028571,21.977781 C1.03774286,19.8545025 0.856314286,17.6007937 0.793742857,15.4711101 C0.843742857,15.4679076 0.896885714,15.4679076 0.946885714,15.4679076 C1.31288571,15.4647051 1.68202857,15.4775152 2.04517143,15.4585911 C2.02002857,16.8548949 1.87288571,18.2861354 2.02631429,19.6760342 C1.76974286,19.9855152 2.08888571,20.6516418 2.62717143,20.4062114 C3.72517143,19.9022494 5.16117143,20.2883 6.31231429,20.3709835 C7.53888571,20.4571608 8.77488571,20.4856924 10.0040286,20.5241228 C12.2631714,20.5878823 14.4091714,20.3869962 16.6557429,20.2562747 C16.6900286,20.2562747 16.7211714,20.2498696 16.7494571,20.2434646 C16.8934571,20.2373506 17.0277429,20.1572873 17.0560286,20.0044392 C17.3063143,18.5030342 17.3220286,16.8353886 17.1091714,15.3150595 C17.4751714,15.3179709 17.8411714,15.3246671 18.2071714,15.330781 C18.4448857,15.3339835 18.6986,15.3596038 18.9426,15.3499962 C18.7766,17.5751734 18.7143143,19.9150595 18.9394571,22.1309203 C18.9394571,22.1466418 18.9454571,22.1594519 18.9488857,22.1754646" id="Fill-1" fill="#8BB040"></path>
            <path d="M16.9120571,9.32466582 C15.8732,10.3066785 14.9537714,11.4479443 13.9274857,12.448881 C12.6572,13.6923367 11.3837714,14.9197797 10.1917714,16.2395139 C10.1043429,16.2427165 10.0292,16.264843 9.96662857,16.3061848 C8.77491429,15.1620076 7.70462857,13.8708051 6.5032,12.7263367 C5.29262857,11.5658557 4.05034286,10.4438051 2.88348571,9.23848861 C4.12891429,9.30865316 5.42405714,9.26090633 6.65662857,9.14299494 C6.7912,9.36921013 7.18548571,9.32146329 7.2012,8.99305823 C7.2732,7.49805823 7.30748571,6.00917215 7.33262857,4.51417215 C7.3512,3.43957722 7.4732,2.26017215 7.30748571,1.17946329 C8.9092,1.22080506 10.5549143,1.3294 12.1597714,1.23361519 C12.1503429,2.4578557 12.1346286,3.6820962 12.1472,4.90284304 C12.1346286,6.20365316 12.1849143,7.50096962 12.2786286,8.74791899 C12.3100571,9.18142532 12.7137714,9.33107089 13.0012,9.20034937 C13.0109143,9.20034937 13.0200571,9.20675443 13.0294857,9.20675443 C13.1172,9.20995696 13.2017714,9.21315949 13.2892,9.21636203 C14.4532,9.25799494 15.6949143,9.37590633 16.8526286,9.22247595 C16.8586286,9.24198228 16.8683429,9.26090633 16.8777714,9.27691899 C16.8869143,9.29584304 16.9026286,9.30865316 16.9120571,9.32466582" id="Fill-3" fill="#8BB040"></path>
            <g id="Group-7" transform="translate(1.714286, 0.224527)">
                <mask id="mask-2" fill="white">
                    <use xlink:href="#path-1"></use>
                </mask>
                <g id="Clip-6"></g>
                <path d="M4.94245714,8.91846835 C5.07702857,9.14468354 5.47131429,9.09693671 5.48674286,8.76853165 C5.55874286,7.27353165 5.59302857,5.78464557 5.61817143,4.28964557 C5.63702857,3.21505063 5.75874286,2.03564557 5.59302857,0.954936709 C7.19502857,0.996278481 8.84074286,1.10487342 10.4456,1.00908861 C10.4361714,2.23332911 10.4204571,3.45756962 10.4330286,4.67860759 C10.4204571,5.97912658 10.4707429,7.27644304 10.5644571,8.52339241 C10.5956,8.95689873 10.9993143,9.1065443 11.2870286,8.97582278 C11.2964571,8.97582278 11.3056,8.98222785 11.3153143,8.98222785 C11.4027429,8.98543038 11.4873143,8.98863291 11.5750286,8.99183544 C12.7387429,9.03346835 13.9807429,9.15137975 15.1384571,8.99794937 C15.1444571,9.0174557 15.1538857,9.03637975 15.1633143,9.05239241 C15.1727429,9.07131646 15.1881714,9.08412658 15.1978857,9.10013924 C14.1590286,10.0821519 13.2393143,11.2234177 12.2130286,12.2243544 C10.9430286,13.4678101 9.6696,14.6952532 8.4776,16.0149873 C8.38988571,16.0181899 8.31502857,16.0403165 8.25245714,16.0816582 C7.06045714,14.937481 5.99045714,13.6462785 4.78902857,12.5018101 C3.57845714,11.3413291 2.33617143,10.2192785 1.16931429,9.01396203 C2.41445714,9.08412658 3.70988571,9.03637975 4.94245714,8.91846835 M4.25417143,13.0471139 C5.5556,14.2966835 6.70045714,15.7535443 8.08331429,16.9073291 C8.2116,17.0159241 8.35874286,17.0159241 8.4776,16.9585696 C8.48388571,16.9585696 8.49017143,16.9617722 8.49617143,16.9617722 C8.76874286,16.9617722 8.9156,16.7640886 8.93731429,16.5503924 C9.69788571,16.1296962 10.3358857,15.5875949 10.9396,14.9534937 C11.6561714,14.2011899 12.4196,13.4133671 13.0701714,12.6101139 C13.1141714,12.5527595 13.1236,12.4857975 13.1110286,12.422038 C14.1498857,11.4240127 15.1570286,10.3945443 16.0896,9.27860759 C16.0924571,9.27249367 16.0956,9.26579747 16.0987429,9.25968354 C16.1458857,9.22125316 16.1896,9.17670886 16.2238857,9.12255696 C16.3427429,8.93739241 16.2396,8.60287342 16.0050286,8.57113924 C15.9298857,8.56124051 15.8610286,8.55832911 15.7924571,8.57113924 C15.7296,8.50388608 15.6576,8.46894937 15.5793143,8.45613924 C15.5544571,8.44012658 15.5296,8.42731646 15.4981714,8.42440506 C14.2464571,8.18508861 12.8733143,8.33182278 11.5936,8.37956962 C11.7718857,5.89964557 11.7750286,3.21505063 11.4718857,0.747936709 C11.5967429,0.524632911 11.4964571,0.196227848 11.1556,0.161291139 C9.24702857,-0.0331898734 7.26702857,0.126063291 5.35217143,0.164493671 C5.25817143,0.167405063 5.18931429,0.19943038 5.12988571,0.247177215 C5.0176,0.266392405 4.91731429,0.339468354 4.88302857,0.470189873 C4.58245714,1.68191139 4.75788571,3.04618987 4.76388571,4.28964557 C4.77017143,5.67634177 4.81731429,7.06303797 4.8796,8.45002532 C3.50331429,8.31901266 2.04845714,8.26486076 0.678171429,8.38626582 C0.581028571,8.39558228 0.509028571,8.43721519 0.462171429,8.49456962 C0.230742857,8.54843038 0.0524571429,8.86751899 0.268457143,9.10334177 C1.53217143,10.4871266 2.9056,11.7524177 4.25417143,13.0471139" id="Fill-5" fill="#1D1D1B" mask="url(#mask-2)"></path>
            </g>
            <g id="Group-10" transform="translate(0.000000, 14.490349)">
                <mask id="mask-4" fill="white">
                    <use xlink:href="#path-3"></use>
                </mask>
                <g id="Clip-9"></g>
                <path d="M10.3233143,7.56711646 C9.04674286,7.56711646 7.76102857,7.54819241 6.47217143,7.5511038 C5.40502857,7.25472405 4.3916,7.29315443 3.26845714,7.31528101 C2.55531429,7.32809114 1.50388571,7.20377468 0.778171429,7.48763544 C1.0376,5.36435696 0.856171429,3.11035696 0.7936,0.980673418 C0.8436,0.977470886 0.897028571,0.977470886 0.947028571,0.977470886 C1.31302857,0.974268354 1.68217143,0.987078481 2.04502857,0.96815443 C2.01988571,2.36445823 1.87302857,3.79569873 2.02645714,5.18559747 C1.76988571,5.49507848 2.08902857,6.16120506 2.62702857,5.91577468 C3.72502857,5.4121038 5.16131429,5.79786329 6.31245714,5.88054684 C7.53902857,5.96672405 8.77474286,5.99554684 10.0041714,6.03368608 C12.2630286,6.09744557 14.4093143,5.89685063 16.6556,5.76583797 C16.6898857,5.76583797 16.7213143,5.75943291 16.7493143,5.75331899 C16.8933143,5.74691392 17.0278857,5.66714177 17.0558857,5.51400253 C17.3061714,4.01259747 17.3218857,2.3449519 17.1090286,0.824622785 C17.4750286,0.827825316 17.8410286,0.83423038 18.2073143,0.840635443 C18.4450286,0.843546835 18.6984571,0.869167089 18.9424571,0.859559494 C18.7767429,3.08473671 18.7141714,5.42491392 18.9393143,7.64048354 C18.9393143,7.6564962 18.9456,7.66930633 18.9487429,7.68502785 C16.1047429,7.39505316 13.1827429,7.56711646 10.3233143,7.56711646 M19.7090286,0.579192405 C19.7027429,0.432458228 19.6213143,0.336673418 19.5181714,0.298534177 C19.4838857,0.263597468 19.4461714,0.231572152 19.3930286,0.212356962 C19.0204571,0.0784329114 18.5984571,0.148888608 18.2073143,0.1518 L16.9778857,0.17101519 C16.8933143,0.174217722 16.8338857,0.203040506 16.7836,0.247293671 C16.5898857,0.231572152 16.3770286,0.349483544 16.3990286,0.579192405 C16.5430286,2.02004051 16.2676,3.48971139 16.3581714,4.92444557 C15.4133143,4.94657215 14.4813143,5.07409114 13.5396,5.17278734 C12.1693143,5.31661013 10.7613143,5.18559747 9.38788571,5.15706582 C7.17588571,5.11223038 4.82645714,4.66271139 2.62388571,4.98820506 C2.78045714,3.59190127 2.73645714,2.14115443 2.73645714,0.741648101 C2.73645714,0.534648101 2.5896,0.426053165 2.43302857,0.410040506 C2.39874286,0.391116456 2.35788571,0.378306329 2.31102857,0.371901266 C1.87302857,0.317749367 1.3976,0.359091139 0.940742857,0.422850633 C0.753028571,0.448470886 0.5716,0.477002532 0.393314286,0.502622785 C0.374457143,0.505825316 0.365028571,0.51223038 0.3496,0.518635443 C0.340171429,0.521837975 0.333885714,0.525040506 0.3276,0.527951899 C0.318171429,0.534648101 0.3056,0.537559494 0.299314286,0.543964557 C0.2056,0.595205063 0.130457143,0.684293671 0.127314286,0.824622785 C0.0678857143,3.13277468 -0.157542857,5.59377468 0.186742857,7.88271139 C0.2056,8.01023038 0.318171429,8.07719241 0.437028571,8.0868 C0.452742857,8.09961013 0.459028571,8.11882532 0.4776,8.1313443 C1.19417143,8.60968608 2.45188571,8.39919241 3.26845714,8.38317975 C3.70017143,8.37677468 4.11617143,8.37386329 4.52617143,8.3546481 C6.2656,8.40239494 8.00817143,8.37386329 9.73217143,8.37386329 C12.7978857,8.37386329 15.9390286,8.56514177 18.9927429,8.24954684 C19.2304571,8.22392658 19.3053143,7.99771139 19.2238857,7.84107848 C19.2958857,7.81574937 19.3584571,7.74878734 19.3710286,7.64048354 C19.4741714,6.6296481 19.5118857,5.59377468 19.5150286,4.55440759 C19.8716,3.27281266 19.7436,1.91493924 19.7090286,0.579192405" id="Fill-8" fill="#1D1D1B" mask="url(#mask-4)"></path>
            </g>
        </g>
    </g>
</svg>