<?xml version="1.0" encoding="UTF-8"?>
<svg width="186px" height="126px" viewBox="0 0 186 126" version="1.1" xmlns="http://www.w3.org/2000/svg" xmlns:xlink="http://www.w3.org/1999/xlink">
    <!-- Generator: sketchtool 48.2 (47327) - http://www.bohemiancoding.com/sketch -->
    <title>DC84ACFA-E5FD-4590-83E3-5F44DD2C266B</title>
    <desc>Created with sketchtool.</desc>
    <defs>
        <polygon id="path-1" points="0 -6.73796791e-05 145.418114 -6.73796791e-05 145.418114 93.6576866 0 93.6576866"></polygon>
        <polygon id="path-3" points="0.36084 0.555208556 40.1137745 0.555208556 40.1137745 40.158154 0.36084 40.158154"></polygon>
        <polygon id="path-5" points="0 125.444791 185.531956 125.444791 185.531956 0.673796791 0 0.673796791"></polygon>
    </defs>
    <g id="PostAJob2-Copy-2" stroke="none" stroke-width="1" fill="none" fill-rule="evenodd" transform="translate(-668.000000, -482.000000)">
        <g id="Expirationdate-Graphic" transform="translate(668.000000, 482.000000)">
            <g id="Group-3" transform="translate(0.000000, 31.787037)">
                <mask id="mask-2" fill="white">
                    <use xlink:href="#path-1"></use>
                </mask>
                <g id="Clip-2"></g>
                <path d="M129.835372,93.6576866 L15.5826742,93.6576866 C6.97662327,93.6576866 -6.76363636e-05,86.7081465 -6.76363636e-05,78.1340824 L-6.76363636e-05,15.5235369 C-6.76363636e-05,6.95014652 6.97662327,-6.73796791e-05 15.5826742,-6.73796791e-05 L129.835372,-6.73796791e-05 C138.441423,-6.73796791e-05 145.418114,6.95014652 145.418114,15.5235369 L145.418114,78.1340824 C145.418114,86.7081465 138.441423,93.6576866 129.835372,93.6576866" id="Fill-1" fill="#3A393A" mask="url(#mask-2)"></path>
            </g>
            <path d="M15.5827418,121.401943 C9.22762909,121.401943 4.05818182,116.251441 4.05818182,109.92112 L4.05818182,47.3105743 C4.05818182,40.9802535 9.22762909,35.8297508 15.5827418,35.8297508 L129.83544,35.8297508 C136.189876,35.8297508 141.36,40.9802535 141.36,47.3105743 L141.36,109.92112 C141.36,116.251441 136.189876,121.401943 129.83544,121.401943 L15.5827418,121.401943 Z" id="Fill-4" fill="#FFFFFF"></path>
            <path d="M80.7990087,97.0136663 C80.7990087,92.5632385 77.1770815,88.9543829 72.7090233,88.9543829 C68.2409651,88.9543829 64.6190378,92.5632385 64.6190378,97.0136663 C64.6190378,101.464768 68.2409651,105.07295 72.7090233,105.07295 C77.1770815,105.07295 80.7990087,101.464768 80.7990087,97.0136663" id="Fill-6" fill="#F06230"></path>
            <g id="Group-10" transform="translate(145.418182, 0.118588)">
                <mask id="mask-4" fill="white">
                    <use xlink:href="#path-3"></use>
                </mask>
                <g id="Clip-9"></g>
                <path d="M40.1141127,20.3566139 C40.1141127,9.42089198 31.2151964,0.555073797 20.2371382,0.555073797 C9.25975636,0.555073797 0.36084,9.42089198 0.36084,20.3566139 C0.36084,31.2923358 9.25975636,40.158154 20.2371382,40.158154 C31.2151964,40.158154 40.1141127,31.2923358 40.1141127,20.3566139" id="Fill-8" fill="#F06230" mask="url(#mask-4)"></path>
            </g>
            <polygon id="Fill-11" fill="#FFFFFF" points="157.413017 23.130231 157.413017 19.5887551 156.058937 23.130231 155.446152 23.130231 154.083956 19.5887551 154.083956 23.130231 152.69741 23.130231 152.69741 17.7748941 154.623694 17.7748941 155.752545 20.729493 156.873279 17.7748941 158.799563 17.7748941 158.799563 23.130231"></polygon>
            <polygon id="Fill-13" fill="#FFFFFF" points="164.480476 23.130231 164.480476 19.5887551 163.126396 23.130231 162.513611 23.130231 161.151415 19.5887551 161.151415 23.130231 159.764869 23.130231 159.764869 17.7748941 161.691153 17.7748941 162.820004 20.729493 163.940738 17.7748941 165.867022 17.7748941 165.867022 23.130231"></polygon>
            <polygon id="Fill-15" fill="#FFFFFF" points="166.349404 23.2907968 168.259455 17.613385 169.138728 17.613385 167.228001 23.2907968"></polygon>
            <polygon id="Fill-17" fill="#FFFFFF" points="171.088279 23.130231 171.088279 20.9700385 169.049042 17.7748941 170.612795 17.7748941 171.781551 19.7491187 172.934075 17.7748941 174.505944 17.7748941 172.474824 20.9700385 172.474824 23.130231"></polygon>
            <polygon id="Fill-19" fill="#FFFFFF" points="176.366756 23.130231 176.366756 20.9700385 174.327519 17.7748941 175.891272 17.7748941 177.060028 19.7491187 178.212552 17.7748941 179.784421 17.7748941 177.753301 20.9700385 177.753301 23.130231"></polygon>
            <mask id="mask-6" fill="white">
                <use xlink:href="#path-5"></use>
            </mask>
            <g id="Clip-22"></g>
            <polygon id="Fill-21" fill="#FFFFFF" mask="url(#mask-6)" points="137.278822 101.717037 149.6184 101.717037 149.6184 91.5420321 137.278822 91.5420321"></polygon>
            <path d="M165.655523,98.6507904 L75.6267884,98.6507904 C74.5060538,98.6507904 73.5976975,97.7458813 73.5976975,96.6294 C73.5976975,95.5129187 74.5060538,94.6080096 75.6267884,94.6080096 L163.626432,94.6080096 L163.626432,40.2764053 C163.626432,39.1599241 164.534788,38.255015 165.655523,38.255015 C166.776257,38.255015 167.684614,39.1599241 167.684614,40.2764053 L167.684614,96.6294 C167.684614,97.7458813 166.776257,98.6507904 165.655523,98.6507904" id="Fill-23" fill="#F06230" mask="url(#mask-6)"></path>
            <path d="M37.7627345,66.4315797 L22.5533455,66.4315797 C20.31864,66.4315797 18.5073382,64.6271519 18.5073382,62.4016011 L18.5073382,51.3412267 C18.5073382,49.1150021 20.31864,47.3105743 22.5533455,47.3105743 L37.7627345,47.3105743 C39.99744,47.3105743 41.8080655,49.1150021 41.8080655,51.3412267 L41.8080655,62.4016011 C41.8080655,64.6271519 39.99744,66.4315797 37.7627345,66.4315797" id="Fill-24" fill="#3A393A" mask="url(#mask-6)"></path>
            <polygon id="Fill-25" fill="#3A393A" mask="url(#mask-6)" points="18.5073382 83.9449733 126.579425 83.9449733 126.579425 74.6344492 18.5073382 74.6344492"></polygon>
        </g>
    </g>
</svg>