<?xml version="1.0" encoding="UTF-8"?>
<svg width="62px" height="45px" viewBox="0 0 62 45" version="1.1" xmlns="http://www.w3.org/2000/svg" xmlns:xlink="http://www.w3.org/1999/xlink">
    <!-- Generator: sketchtool 48.2 (47327) - http://www.bohemiancoding.com/sketch -->
    <title>55B53F11-F196-4635-8A3B-8B3B980047E0</title>
    <desc>Created with sketchtool.</desc>
    <defs>
        <polygon id="path-1" points="0 0.666160714 61.5703237 0.666160714 61.5703237 44.1964286 0 44.1964286"></polygon>
    </defs>
    <g id="Homepage-Copy-7" stroke="none" stroke-width="1" fill="none" fill-rule="evenodd" transform="translate(-589.000000, -2506.000000)">
        <g id="findteacher" transform="translate(589.000000, 2506.000000)">
            <path d="M4.18293333,10.4966518 C4.18293333,10.4966518 30.206241,4.2271875 31.1465744,3.4678125 C32.0861128,2.7084375 36.4086256,1.56897321 37.6295487,2.04308036 C38.8504718,2.51799107 59.7079077,11.8257589 59.7079077,11.8257589 L48.4334462,19.3295089 C48.4334462,19.3295089 50.9706769,27.4970089 51.8164205,29.1121875 C52.6613692,30.7273661 51.2520615,35.1912054 50.1249333,36.2358482 C48.9978051,37.2804911 38.2869077,40.2247768 32.1807026,39.8446875 C26.0737026,39.4654018 16.1147538,37.0908482 15.4573949,34.5258482 C14.799241,31.9616518 14.8938308,27.1177232 15.3628051,25.5981696 C15.8325744,24.0786161 17.1480872,18.5701339 17.1480872,18.5701339 L4.18293333,10.4966518 Z" id="Fill-1" fill="#7C716B"></path>
            <path d="M17.4303462,19.4246518 C17.4303462,19.4246518 28.3288333,26.6423304 29.1737821,26.2630446 C30.0195256,25.8829554 49.5614487,18.8549196 49.6552436,19.1401875 C49.7490385,19.4246518 51.1583462,24.0789375 50.7823718,24.2685804 C50.4063974,24.4590268 32.4629615,29.4845625 29.6443462,29.7690268 C26.8257308,30.0542946 19.5908077,24.1729554 18.4636795,23.7936696 C17.3365513,23.4135804 15.738859,22.9394732 15.9264487,21.7043839 C16.1148333,20.4692946 17.1489615,19.1401875 17.4303462,19.4246518" id="Fill-3" fill="#020303"></path>
            <path d="M4.0851641,31.1549464 C4.0851641,31.1549464 5.41021538,31.825125 5.80844615,33.433875 C6.20667692,35.042625 6.40539487,41.8786071 5.41101026,42.3478929 C4.41662564,42.8171786 2.89206154,43.55325 2.09639487,42.2803929 C1.30072821,41.0075357 1.63218974,31.1549464 4.0851641,31.1549464" id="Fill-5" fill="#F9E164"></path>
            <g id="Group-9" transform="translate(0.000000, 0.137491)">
                <mask id="mask-2" fill="white">
                    <use xlink:href="#path-1"></use>
                </mask>
                <g id="Clip-8"></g>
                <path d="M29.0405615,25.1397321 C21.1188692,20.626875 14.0381513,14.7045536 5.76274103,10.8658929 C14.4093564,9.57455357 23.1585103,7.37678571 31.3123051,4.27258929 C34.4099205,3.09375 36.9248949,2.46375 40.141741,3.90294643 C42.293459,4.865625 44.3656897,6.01473214 46.4411,7.13330357 C50.0688949,9.09 53.6951,10.9816071 57.5414846,12.4111607 C48.3241513,17.4391071 38.6203564,20.8960714 29.0405615,25.1397321 M48.2255872,35.3916964 C43.8283564,38.0708036 37.4455359,38.4251786 32.4243308,38.3383929 C27.4158436,38.2508036 20.9145872,37.7316964 17.1421256,33.9942857 C15.3035872,32.1717857 16.1636385,28.6473214 16.3869974,26.3820536 C16.5666385,24.5635714 16.7049462,21.96 17.4060231,20.0603571 C20.9543308,22.6253571 24.5010487,25.1935714 28.2472795,27.4580357 C28.8426385,27.8180357 29.4141513,27.5817857 29.7440231,27.1478571 C31.3584077,26.9991964 32.7708949,26.5291071 34.2477667,25.8404464 C34.8924077,25.5391071 35.5831513,25.2192857 36.2635615,24.8705357 C40.092459,23.6523214 43.905459,22.1464286 47.6167154,20.4436607 C48.6572026,25.54875 53.6116385,32.1091071 48.2255872,35.3916964 M3.79463846,41.7350893 C1.59522821,42.5105357 2.69692051,38.3560714 2.91630513,37.344375 C3.26048462,35.7516964 3.71674103,34.194375 4.16743333,32.6330357 C4.40271538,33.7829464 4.9575359,35.0686607 5.13399744,35.9244643 C5.50758718,37.738125 6.02027949,40.95 3.79463846,41.7350893 M60.5492795,11.0073214 C60.4411769,10.9229464 60.3163821,10.8490179 60.1629718,10.7991964 C54.8579974,9.08276786 50.0569718,6.3 45.132741,3.72375 C41.5669462,1.85785714 38.4200487,0.126160714 34.3550744,0.823660714 C32.2605872,1.18366071 30.2153821,2.26607143 28.2234333,2.98044643 C25.4580744,3.97044643 22.5726897,4.72339286 19.7540744,5.54464286 C14.4626128,7.08669643 9.12027949,8.41821429 3.73502308,9.58339286 C3.54584359,9.62357143 3.41548462,9.73526786 3.32407436,9.871875 C2.96320256,9.93776786 2.7875359,10.546875 3.17781795,10.7525893 C3.22392051,10.7766964 3.26922821,10.8024107 3.31533077,10.8273214 C2.97989487,17.0252679 2.31697179,23.9874107 3.22392051,30.1757143 C2.84794615,30.2319643 2.49661282,30.4690179 2.34399744,30.9407143 C1.45215128,33.6945536 -2.88864359,44.3491071 3.14840769,44.1948214 C6.03061282,44.1208929 7.36281795,41.5157143 7.52020256,38.9595536 C7.61320256,37.4520536 7.27935641,35.881875 6.94948462,34.4225893 C6.70784359,33.3530357 6.50992051,31.3376786 5.61489487,30.6192857 C5.46386923,30.4979464 5.30012564,30.4288393 5.13876667,30.4007143 C6.04412564,24.4992857 5.50917692,17.881875 5.15863846,11.8759821 C8.95176667,14.0472321 12.533459,16.5455357 16.0785872,19.1016964 C13.5063821,22.2235714 13.1669718,30.04875 14.2456128,33.2678571 C16.1819205,39.0511607 24.9557154,40.1391964 29.9379718,40.6366071 C36.3112538,41.2722321 43.7202538,40.4863393 49.4655872,37.5364286 C57.4055615,33.4599107 50.3860487,25.430625 50.0243821,19.3074107 C53.8445359,17.4479464 57.5335359,15.40125 60.9896385,13.2774107 C62.0539718,12.6241071 61.5047154,11.1680357 60.5492795,11.0073214" id="Fill-7" fill="#020303" mask="url(#mask-2)"></path>
            </g>
        </g>
    </g>
</svg>