<?xml version="1.0" encoding="UTF-8"?>
<svg width="12px" height="21px" viewBox="0 0 12 21" version="1.1" xmlns="http://www.w3.org/2000/svg" xmlns:xlink="http://www.w3.org/1999/xlink">
    <!-- Generator: sketchtool 48.2 (47327) - http://www.bohemiancoding.com/sketch -->
    <title>E630466F-28BF-4D1C-80D9-6020365C877E</title>
    <desc>Created with sketchtool.</desc>
    <defs></defs>
    <g id="Forums" stroke="none" stroke-width="1" fill="none" fill-rule="evenodd" transform="translate(-149.000000, -584.000000)">
        <g id="forum-forum" transform="translate(149.000000, 584.629999)">
            <path d="M11.4317282,5.86960179 C11.4317282,8.79758013 8.97979397,11.1713828 5.95554645,11.1713828 C2.93129893,11.1713828 0.479364718,8.79758013 0.479364718,5.86960179 C0.479364718,2.94162345 2.93129893,0.567820749 5.95554645,0.567820749 C8.97979397,0.567820749 11.4317282,2.94162345 11.4317282,5.86960179" id="Fill-1" fill="#EA5645"></path>
            <path d="M2.15361136,4.68367708 C2.15361136,4.68367708 1.66528942,3.56751265 2.6419333,2.93967016 C3.61857718,2.31182767 4.24641967,2.24206739 4.38594022,2.5211085 C4.52546078,2.80014961 4.80450188,4.05583459 4.17665939,4.54415653 C3.5488169,5.03247847 2.50241275,5.31151957 2.15361136,4.68367708" id="Fill-3" fill="#FFFFFF"></path>
            <path d="M4.17665939,11.1713828 L8.15299517,11.1713828 C8.15299517,11.1713828 6.68802936,19.1938147 6.2694677,19.3333352 C5.85090604,19.4728558 4.52546078,13.8920336 4.17665939,11.1713828" id="Fill-5" fill="#C1C5C4"></path>
            <path d="M4.17665939,11.1713828 L7.94371434,11.4504239 L7.73443351,12.7061089 C7.73443351,12.7061089 3.89761828,13.4037117 4.17665939,11.1713828" id="Fill-7" fill="#1D1D1B"></path>
            <path d="M10.9164509,7.63378338 C9.91078672,9.48996483 8.44721612,10.5051164 6.25367397,10.6008275 C4.56156869,10.6742153 2.94619972,10.0346531 1.84621968,8.82333562 C0.257080572,6.63676951 0.925663066,3.27376608 3.47861016,1.51217957 C3.71216756,1.4030745 3.94963155,1.30513107 4.18514224,1.19770024 C5.69028997,0.856153926 7.02968729,0.744537483 8.59482886,1.59254341 C10.0918844,2.40343687 10.8779432,4.00708611 11.0506696,5.63975563 C11.127685,6.37000621 11.0749462,7.0371935 10.9164509,7.63378338 M6.79166523,15.2463038 C6.5946622,16.3524228 6.52573905,17.6039221 6.09936424,18.6732077 C5.49300791,16.3080552 5.1732268,13.8633761 4.57021897,11.5032464 C5.13555625,11.6522544 5.72042641,11.7457331 6.30445945,11.785357 C6.74450728,11.8152144 7.16558031,11.7945653 7.56628334,11.7320601 C7.24147949,12.8875694 7.00373647,14.0575887 6.79166523,15.2463038 M11.8799798,5.13636547 C11.5666167,3.29469416 10.6134122,1.83698342 9.04017847,0.830203103 C7.48898895,-0.162067075 5.76200354,-0.166810774 4.1095221,0.304210615 C3.7958799,0.368948152 3.49200413,0.471356239 3.20291754,0.61031871 C3.04442219,0.672265836 2.88676397,0.736445291 2.73050095,0.805089403 C2.63283656,0.848340775 2.58093491,0.91782201 2.5577745,0.995674479 C2.05550051,1.35675367 1.62521912,1.82219424 1.30404281,2.34930289 C0.432039347,3.46407212 -0.0409353305,4.91536491 0.00287412341,6.42441922 C0.0757038524,8.94081193 1.76976242,10.5352528 3.88433593,11.2903381 C4.07854854,13.9716441 4.72955144,16.7148972 5.45729065,19.2767736 C5.49189175,19.3975984 5.56444243,19.4746137 5.65234038,19.5147957 C5.64787573,19.5206555 5.64452723,19.5267944 5.64034162,19.5329333 C5.3490227,19.9411705 6.02458122,20.4638145 6.33682822,20.0700875 C7.16976593,19.0206139 7.319611,17.8252017 7.52721758,16.5240331 C7.79705033,14.8386248 8.07078966,13.1551698 8.48879324,11.4998979 C10.9549585,10.6290106 12.3616048,7.96695847 11.8799798,5.13636547" id="Fill-9" fill="#1D1D1B"></path>
            <path d="M4.23389072,3.44869695 C4.13204072,3.97329423 3.7843555,4.4780796 3.32310055,4.74679618 C2.74604354,5.08331976 2.14219858,4.6614096 2.35064229,4.01124382 C2.52113641,3.47939147 3.07084739,2.90847337 3.60632727,2.59343596 C3.61609371,2.59706349 3.62362782,2.60292335 3.63451042,2.60515568 C4.12562277,2.70672665 4.33239223,2.94112118 4.23389072,3.44869695 M3.63451042,2.17068868 C3.60437398,2.17794375 3.57953933,2.19217484 3.55805316,2.20975443 C2.70781491,2.44833458 1.95245063,3.22267365 1.73145007,4.05784369 C1.47333705,5.03197619 2.47509462,5.65981869 3.33258795,5.41426251 C4.13036647,5.1854488 4.69793608,4.30730644 4.84833924,3.53268832 C5.00599747,2.72123678 4.52186115,1.95387374 3.63451042,2.17068868" id="Fill-11" fill="#1D1D1B"></path>
        </g>
    </g>
</svg>