<?xml version="1.0" encoding="UTF-8"?>
<svg width="18px" height="14px" viewBox="0 0 18 14" version="1.1" xmlns="http://www.w3.org/2000/svg" xmlns:xlink="http://www.w3.org/1999/xlink">
    <!-- Generator: sketchtool 48.2 (47327) - http://www.bohemiancoding.com/sketch -->
    <title>8669AD33-B543-4DFF-8E29-B67F4BCA5B5E</title>
    <desc>Created with sketchtool.</desc>
    <defs>
        <polygon id="path-1" points="0 0.0625845138 17.994375 0.0625845138 17.994375 13.042089 0 13.042089"></polygon>
    </defs>
    <g id="Forums" stroke="none" stroke-width="1" fill="none" fill-rule="evenodd" transform="translate(-146.000000, -505.000000)">
        <g id="forum-sticky" transform="translate(146.000000, 505.000000)">
            <path d="M0.6044625,2.13280421 C0.6044625,2.13280421 0.3333375,1.33414105 1.0256625,1.03859368 C1.7179875,0.743046316 2.9820375,0.683804211 3.0724875,0.683804211 C3.1627125,0.683804211 15.0211125,0.743046316 15.1414875,0.743046316 C15.2620875,0.743046316 16.6764375,0.979351579 16.8568875,1.42300421 C17.0375625,1.86665684 17.0677125,3.04928842 17.0677125,3.04928842 L17.5494375,11.0922884 C17.5494375,11.0922884 18.1213875,12.2457411 17.3687625,12.5116674 C16.6161375,12.7775937 14.5094625,12.8072147 14.5094625,12.8072147 L2.5005375,12.7479726 C2.5005375,12.7479726 1.2661875,12.8074358 0.9653625,12.0680147 C0.6647625,11.3288147 0.6346125,9.90965684 0.6346125,9.90965684 C0.6346125,9.90965684 0.5142375,2.36933053 0.6044625,2.13280421" id="Fill-1" fill="#FFCC01"></path>
            <path d="M15.1749675,3.50379474 C15.2132175,3.89726842 15.3144675,4.47200526 15.1277175,4.84359474 C15.0917175,4.91654211 14.2232175,4.86127895 14.0452425,4.85243684 C13.8744675,4.84116316 13.7214675,4.81485789 13.5594675,4.76821579 C13.4807175,4.74611053 13.4694675,4.34821579 13.4402175,4.21337368 C13.4357175,3.74717368 13.4264925,3.27832105 13.3817175,2.81654211 C13.3884675,2.72126842 13.3952175,2.62621579 13.3997175,2.53138421 C13.9442175,2.48695263 14.5922175,2.43854211 15.0849675,2.63306842 C15.1097175,2.92463684 15.1457175,3.21222632 15.1749675,3.50379474" id="Fill-3" fill="#EA5745"></path>
            <g id="Group-7" transform="translate(0.000000, 0.158495)">
                <mask id="mask-2" fill="white">
                    <use xlink:href="#path-1"></use>
                </mask>
                <g id="Clip-6"></g>
                <path d="M16.7009625,12.2118095 C16.2959625,12.3459884 15.8000625,12.2893989 15.3820125,12.2571253 C12.9641625,12.0707779 10.4749875,12.3218937 8.0508375,12.3258726 C6.9697125,12.32742 5.8876875,12.3267568 4.8070125,12.3050937 C3.9499875,12.2880726 1.2414375,12.5840621 1.0679625,11.3435147 C0.8440875,9.27932526 0.6622875,7.18286211 0.7952625,5.11093579 C0.8598375,4.10382 0.9995625,3.08012526 0.9617625,2.07102 C0.9417375,1.53695684 0.9489375,1.13751474 1.5670125,0.954925263 C2.2030875,0.767472632 2.9674125,0.856556842 3.6212625,0.881535789 C5.9918625,0.972609474 8.3779875,0.763493684 10.7533125,0.809693684 C11.9050875,0.83202 13.0543875,0.904967368 14.2007625,1.01262 C15.1275375,1.09949368 16.3508625,0.778083158 16.6224375,1.96447263 C16.8127875,2.79563053 16.7776875,3.75765158 16.8550875,4.60362 C16.9696125,5.86229368 17.0546625,7.12295684 17.1068625,8.38560947 C17.1421875,9.24727263 17.1354375,10.1018621 17.2180125,10.9606516 C17.2684125,11.4871989 17.3768625,11.9874411 16.7009625,12.2118095 M17.9456625,10.7026832 C17.8257375,9.37769368 17.8700625,8.03524105 17.7944625,6.70538842 C17.7130125,5.27009368 17.5579875,3.83988316 17.4605625,2.40591474 C17.4117375,1.68683053 17.2760625,0.988746316 16.6433625,0.563883158 C16.0012125,0.132388421 14.9297625,0.284472632 14.2007625,0.240262105 C10.8858375,0.0393252632 7.6213125,0.0169989474 4.3007625,0.132167368 C3.0920625,0.173725263 1.9373625,-0.0369378947 0.7817625,0.421304211 C-0.0102375,0.73542 0.1783125,1.68638842 0.2048625,2.33959895 C0.2629125,3.78417789 0.0001125,5.25528316 -0.0001125,6.70538842 C-0.0005625,8.33211474 0.6325875,9.94845158 0.4219875,11.5685463 C0.4024125,11.7193042 0.4897125,11.8159042 0.6069375,11.8594516 C1.2792375,13.23882 3.9004875,12.8745253 5.2025625,12.9569779 C8.4445875,13.1616726 11.7041625,12.9271358 14.9495625,12.9706832 C15.8052375,12.9819568 16.6282875,13.1064095 17.4144375,12.6983463 C18.1360125,12.3241042 18.0043875,11.3501463 17.9456625,10.7026832" id="Fill-5" fill="#020303" mask="url(#mask-2)"></path>
            </g>
            <path d="M12.24711,5.61438316 C11.405835,5.36393053 10.516635,5.45964632 9.64701,5.49413053 C8.79651,5.52795158 7.977285,5.16807789 7.113285,5.20433053 C6.157035,5.24412 5.208435,5.32789895 4.247235,5.34757263 C3.493935,5.36304632 2.783385,5.42869895 2.12706,5.80868842 C2.062485,5.84626737 2.09556,5.93314105 2.163285,5.93910947 C3.91986,6.09207789 5.728185,6.03747789 7.485885,5.96629895 C8.193735,5.93756211 8.93511,6.22205684 9.64701,6.27466737 C10.45566,6.33435158 11.464335,6.33634105 12.24711,6.12390947 C12.508335,6.05295158 12.499335,5.68954105 12.24711,5.61438316" id="Fill-8" fill="#020303"></path>
            <path d="M6.2217675,8.39502632 C6.7689675,8.51572105 7.3350675,8.35081579 7.8660675,8.23476316 C8.6094675,8.07228947 9.3789675,8.2047 10.1243925,8.05526842 C10.4346675,7.99315263 10.4355675,7.50241579 10.1243925,7.44096316 C8.5138425,7.12198421 6.9842925,7.88815263 5.4119925,7.38415263 C4.5299925,7.10120526 2.9594925,7.25174211 2.1400425,7.70976316 C1.9503675,7.81608947 2.0183175,8.16866842 2.2586175,8.13971053 C2.7785925,8.07671053 3.3026175,8.04288947 3.8255175,8.00840526 C4.7066175,7.94982632 5.3843175,8.21044737 6.2217675,8.39502632" id="Fill-10" fill="#020303"></path>
            <path d="M12.063195,9.70471895 C11.055195,9.70737158 10.056195,9.84707684 9.04437,9.83381368 C8.13672,9.82187684 7.46397,9.81170842 6.583995,10.0270137 C5.221395,10.3608032 3.84732,9.36540316 2.60847,10.3409084 C2.39112,10.5120032 2.67732,10.8732032 2.905695,10.7193505 C4.07997,9.92776105 5.490945,10.9737821 6.76557,10.6744768 C8.53092,10.2597821 10.373895,10.7628979 12.132045,10.2034137 C12.405195,10.1163189 12.362445,9.70383474 12.063195,9.70471895" id="Fill-12" fill="#020303"></path>
        </g>
    </g>
</svg>