<?xml version="1.0" encoding="UTF-8"?>
<svg width="18px" height="18px" viewBox="0 0 18 18" version="1.1" xmlns="http://www.w3.org/2000/svg" xmlns:xlink="http://www.w3.org/1999/xlink">
    <!-- Generator: sketchtool 48.2 (47327) - http://www.bohemiancoding.com/sketch -->
    <title>48427090-9E80-498C-ADC6-5E53450A1214</title>
    <desc>Created with sketchtool.</desc>
    <defs>
        <polygon id="path-1" points="0 0.135094737 17.7519836 0.135094737 17.7519836 17.7631135 0 17.7631135"></polygon>
    </defs>
    <g id="Forums" stroke="none" stroke-width="1" fill="none" fill-rule="evenodd" transform="translate(-148.000000, -448.000000)">
        <g id="forum-global" transform="translate(148.000000, 448.000000)">
            <path d="M8.75084211,0.726228947 C8.75084211,0.726228947 16.2037895,1.60799211 17.1253421,8.45959737 C18.0471316,15.3119132 11.0749737,17.1950447 8.91118421,17.2750974 C6.74739474,17.3553868 -0.0646578947,13.9093342 0.496421053,8.29972895 C1.0575,2.68965 6.82744737,0.16515 8.75084211,0.726228947" id="Fill-1" fill="#82C3C3"></path>
            <g id="Group-5" transform="translate(0.000000, 0.101818)">
                <mask id="mask-2" fill="white">
                    <use xlink:href="#path-1"></use>
                </mask>
                <g id="Clip-4"></g>
                <path d="M14.9762605,13.6412526 C14.6892079,13.3551474 14.3659184,13.1168842 14.0179974,12.9167526 C14.5191553,11.7633316 14.8457605,10.5689368 14.9809974,9.52493684 C15.01155,9.28762105 15.0373658,9.0522 15.0574974,8.81867368 C15.2806026,8.80162105 15.5039447,8.78859474 15.7289447,8.78409474 C16.0967605,8.77675263 16.4233658,8.91814737 16.77105,8.95509474 C16.84755,10.6930421 16.1446026,12.3274895 14.9762605,13.6412526 M12.3714711,15.6465947 C12.8619711,15.0601737 13.2875763,14.3941737 13.64805,13.6959632 C13.9109447,13.8574895 14.1548921,14.0410421 14.3723132,14.2501737 C13.7797342,14.7942 13.1054447,15.2683579 12.3714711,15.6465947 M10.2157342,16.4395421 C10.1226553,16.4613316 10.0295763,16.4840684 9.93555,16.5027789 C9.77189211,16.5354632 9.60941842,16.5598579 9.44765526,16.5799895 C9.44694474,15.2925158 9.41591842,14.0097789 9.37162895,12.7277526 C10.5281289,12.6853579 11.8658132,12.8596737 12.9917605,13.3537263 C12.2987605,14.5670684 11.3646553,15.6278842 10.2157342,16.4395421 M9.23497105,9.37288421 C9.51918158,9.33617368 9.80339211,9.2997 10.0866553,9.26464737 C11.4442342,9.09625263 12.8070237,9.04012105 14.16555,8.90038421 C14.2344711,8.89351579 14.3031553,8.88664737 14.3718395,8.87977895 C14.3528921,9.06522632 14.3313395,9.2502 14.3067079,9.43375263 C14.1572605,10.5419368 13.8422605,11.6122263 13.3794711,12.6019895 C12.2930763,12.1463053 11.0513132,11.9793316 9.91920789,11.9127789 C9.72760263,11.9016474 9.53433947,11.8995158 9.34060263,11.9016474 C9.30815526,11.0594368 9.27262895,10.2167526 9.23497105,9.37288421 M9.19541842,8.47454211 C9.19068158,8.36677895 9.18570789,8.25972632 9.18120789,8.15196316 C9.15207632,7.48501579 9.12223421,6.81522632 9.10991842,6.14543684 C10.8028658,6.15230526 12.4707079,5.83541053 13.9443395,5.10309474 C14.3334711,5.98722632 14.4537868,6.94548947 14.4331816,7.91346316 C13.4640237,7.97717368 12.4832605,8.0937 11.5342342,8.19483158 C10.7521816,8.27772632 9.97320789,8.37459474 9.19541842,8.47454211 M9.01589211,1.36691053 C9.61581316,1.39462105 10.2088658,1.47088421 10.8014447,1.62435789 C11.8347868,2.39622632 12.7958921,3.25809474 13.5244184,4.33596316 C13.5663395,4.39872632 13.6011553,4.46314737 13.6397605,4.52662105 C12.2341026,5.20327895 10.68255,5.47683158 9.10518158,5.46451579 C9.10683947,4.98467368 9.12033947,4.50554211 9.15444474,4.02759474 C9.21957632,3.11267368 9.27736579,2.22522632 9.01589211,1.36691053 M14.5276816,4.03162105 C14.4263132,4.09651579 14.3235237,4.15856842 14.2200237,4.21896316 C13.8339711,3.54159474 13.3155237,2.95398947 12.7222342,2.4417 C13.4107342,2.87062105 14.0056816,3.41867368 14.5276816,4.03162105 M16.0157605,6.2622 C16.3167868,6.82991053 16.5209447,7.39856842 16.6424447,7.96059474 C16.2630237,7.84122632 15.7985763,7.86230526 15.4137079,7.86988421 C15.3109184,7.87201579 15.2062342,7.87983158 15.1027342,7.88338421 C15.1112605,6.82043684 14.9549447,5.79254211 14.5129974,4.79377895 C14.6532079,4.71041053 14.79105,4.62254211 14.9267605,4.53064737 C15.3372079,5.07917368 15.6988658,5.66464737 16.0157605,6.2622 M7.97047105,16.5944368 C7.94607632,16.5357 7.90747105,16.4793316 7.84186579,16.4348053 C7.03636579,15.8850947 6.37936579,15.5265158 5.84291842,14.6549368 C5.63757632,14.3214632 5.45307632,13.9737789 5.28397105,13.6187526 C6.31731316,13.2682263 7.35349737,12.9546474 8.46144474,12.8075684 C8.50573421,14.0801211 8.53960263,15.3531474 8.54883947,16.6297263 C8.35391842,16.6271211 8.16160263,16.6136211 7.97047105,16.5944368 M3.39681316,14.2636737 C3.76699737,14.1428842 4.13244474,14.0166474 4.49599737,13.8906474 C4.83065526,14.6305421 5.24370789,15.3960158 5.79673421,15.9945158 C4.90052368,15.5807526 4.09099737,14.9822526 3.39681316,14.2636737 M0.987892105,9.46667368 C1.74247105,9.63933158 2.50060263,9.73691053 3.26110263,9.77883158 C3.41836579,10.9661211 3.76391842,12.1325684 4.21368158,13.2331737 C3.80607632,13.4314105 3.41291842,13.6448053 3.03799737,13.8690947 C1.96533947,12.6159632 1.22876053,11.0610947 0.987892105,9.46667368 M0.927023684,8.95864737 C0.771892105,7.11080526 1.30999737,5.63741053 2.25049737,4.43354211 C2.71660263,4.67535789 3.20615526,4.89609474 3.71347105,5.09338421 C3.36768158,6.09948947 3.18602368,7.17593684 3.16636579,8.25214737 C3.16091842,8.55625263 3.17536579,8.86012105 3.19786579,9.16375263 C2.45655,9.22106842 1.71310263,9.26322632 0.965392105,9.27909474 C0.951892105,9.17227895 0.935786842,9.0657 0.927023684,8.95864737 M6.14228684,1.44696316 C6.15910263,1.45098947 6.17686579,1.45335789 6.19486579,1.45596316 C5.17715526,2.26572632 4.42589211,3.33601579 3.92497105,4.53325263 C3.46739211,4.37977895 3.02023421,4.21185789 2.58705,4.03280526 C3.53370789,2.97980526 4.79299737,2.1447 6.14228684,1.44696316 M4.02965526,9.09198947 C4.00715526,8.81251579 3.99105,8.53280526 3.98678684,8.25214737 C3.97115526,7.19772632 4.14878684,6.24396316 4.47539211,5.36717368 C5.66883947,5.76127895 6.93760263,6.02346316 8.21039211,6.11204211 C8.21489211,6.94027895 8.25918158,7.77088421 8.29305,8.59059474 C6.87318158,8.77556842 5.45473421,8.95864737 4.02965526,9.09198947 M8.33047105,9.48846316 C8.36481316,10.3119632 8.39820789,11.1347526 8.42947105,11.9573053 C7.25544474,12.0861474 6.07194474,12.4257789 4.96305,12.8928316 C4.90999737,12.7654105 4.85647105,12.6377526 4.80626053,12.5093842 C4.46449737,11.6375684 4.23405,10.7285684 4.10615526,9.80441053 C5.51276053,9.81293684 6.92457632,9.6642 8.33047105,9.48846316 M7.33218158,1.38775263 C7.69005,1.36785789 8.04365526,1.35388421 8.39394474,1.35293684 C8.53202368,2.36614737 8.36860263,3.39854211 8.27481316,4.40938421 C8.24331316,4.74735789 8.22531316,5.08793684 8.21631316,5.42898947 C7.03518158,5.34325263 5.85357632,5.11043684 4.72052368,4.78193684 C5.31476053,3.50772632 6.23133947,2.40025263 7.33218158,1.38775263 M17.3250237,6.6222 C16.0337605,2.90401579 12.40605,0.108094737 8.46499737,0.180805263 C8.46191842,0.165410526 8.45670789,0.150015789 8.45126053,0.135094737 C7.95507632,0.190515789 7.45865526,0.244752632 6.96223421,0.296857895 C6.80757632,0.351094737 6.65149737,0.402015789 6.49944474,0.460278947 C6.38741842,0.490357895 6.27562895,0.520436842 6.16383947,0.555489474 C6.08733947,0.579647368 6.02576053,0.620857895 5.97602368,0.671068421 C2.26233947,2.26217368 -0.461107895,5.29612105 0.0651552632,9.68291053 C0.59355,14.0884105 4.44460263,17.5403842 8.86076053,17.5804105 C8.92636579,17.7016737 9.05994474,17.7916737 9.21697105,17.7547263 C9.46376053,17.6964632 9.70249737,17.6159368 9.93507632,17.5202526 C10.0276816,17.5095947 10.1202868,17.5003579 10.2131289,17.4863842 C15.4203395,16.7064632 19.0298132,11.5309895 17.3250237,6.6222" id="Fill-3" fill="#1D1D1B" mask="url(#mask-2)"></path>
            </g>
        </g>
    </g>
</svg>