<?xml version="1.0" encoding="UTF-8"?>
<svg width="21px" height="36px" viewBox="0 0 21 36" version="1.1" xmlns="http://www.w3.org/2000/svg" xmlns:xlink="http://www.w3.org/1999/xlink">
    <!-- Generator: sketchtool 48.2 (47327) - http://www.bohemiancoding.com/sketch -->
    <title>CE014EF8-B3FA-464F-85D0-AD02E2289802</title>
    <desc>Created with sketchtool.</desc>
    <defs></defs>
    <g id="ForumDetails" stroke="none" stroke-width="1" fill="none" fill-rule="evenodd" transform="translate(-148.000000, -183.000000)">
        <g id="forum-icon" transform="translate(148.000000, 183.000000)">
            <path d="M19.8497898,10.1918415 C19.8497898,15.2759157 15.5923077,19.3977321 10.3410738,19.3977321 C5.08984002,19.3977321 0.832357869,15.2759157 0.832357869,10.1918415 C0.832357869,5.10776729 5.08984002,0.985950886 10.3410738,0.985950886 C15.5923077,0.985950886 19.8497898,5.10776729 19.8497898,10.1918415" id="Fill-1" fill="#EA5645"></path>
            <path d="M3.73948123,8.13262914 C3.73948123,8.13262914 2.89157025,6.1945469 4.5873922,5.10437564 C6.28321416,4.01420438 7.37338542,3.89307424 7.6156457,4.3775948 C7.85790598,4.86211536 8.34242654,7.04245788 7.25225528,7.89036886 C6.16208402,8.73827984 4.34513193,9.2228004 3.73948123,8.13262914" id="Fill-3" fill="#FFFFFF"></path>
            <path d="M7.25225528,19.3977321 L14.1566733,19.3977321 C14.1566733,19.3977321 11.6129403,33.3276982 10.8861595,33.5699585 C10.1593786,33.8122188 7.85790598,24.1218076 7.25225528,19.3977321" id="Fill-5" fill="#C1C5C4"></path>
            <path d="M7.25225528,19.3977321 L13.7932828,19.8822527 L13.4298924,22.0625952 C13.4298924,22.0625952 6.76773472,23.2738966 7.25225528,19.3977321" id="Fill-7" fill="#1D1D1B"></path>
            <path d="M18.9550742,13.2551258 C17.2088621,16.4781566 14.6675517,18.2408424 10.8587356,18.407033 C7.92060294,18.5344619 5.11571342,17.4239407 3.20573338,15.320637 C0.446388791,11.5239339 1.60730005,5.68449211 6.04017865,2.62571382 C6.44572236,2.43626628 6.85804935,2.26619956 7.26698471,2.07965915 C9.8804886,1.48660598 12.2061873,1.29279776 14.9238631,2.76525574 C17.5233159,4.17327248 18.8882103,6.95781214 19.1881286,9.79274193 C19.3218562,11.0607322 19.2302818,12.2192209 18.9550742,13.2551258 M11.7928913,26.4733312 C11.4508197,28.3939707 11.3311432,30.5670454 10.5907957,32.4237282 C9.53793257,28.316932 8.98267201,24.0720473 7.93562308,19.9739724 C8.91726173,20.2327064 9.93281682,20.3950208 10.9469184,20.4638227 C11.7110073,20.5156664 12.4421488,20.4798119 13.1379203,20.3712793 C12.5739384,22.3776789 12.1611269,24.4092736 11.7928913,26.4733312 M20.6281237,8.91866684 C20.0840071,5.72083115 18.4288848,3.18969575 15.6971579,1.44154557 C13.0037081,-0.281409541 10.0050104,-0.28964639 7.13567964,0.528224314 C6.59107853,0.640633084 6.06343564,0.818452129 5.56147234,1.05974337 C5.28626466,1.16730693 5.01251054,1.27874666 4.74117903,1.39793872 C4.57159683,1.4730394 4.48147601,1.59368502 4.4412608,1.72886626 C3.5691238,2.35583586 2.82199309,3.16401616 2.26430993,4.07927549 C0.750183182,6.01493513 -0.0710791661,8.53492656 0.00499056176,11.1552137 C0.131450428,15.5246201 3.07297474,18.2931706 6.74467154,19.6042833 C7.08189785,24.2600413 8.21228432,29.0233629 9.47591394,33.4717462 C9.53599449,33.6815436 9.66196983,33.8152713 9.81459381,33.8850422 C9.80684148,33.8952172 9.80102723,33.9058766 9.79375942,33.9165361 C9.28791996,34.6253896 10.4609442,35.5328967 11.0031227,34.8492381 C12.4494166,33.0269563 12.7096042,30.9512702 13.0700874,28.6919509 C13.5386188,25.7654467 14.0139335,22.8423342 14.7397453,19.9681582 C19.021938,18.4559695 21.4644061,13.8336434 20.6281237,8.91866684" id="Fill-9" fill="#1D1D1B"></path>
            <path d="M7.35163045,5.98823805 C7.17478044,6.8991367 6.57106783,7.77563439 5.77015534,8.24222769 C4.76816683,8.82655948 3.71966433,8.0939644 4.08160119,6.96503149 C4.37764325,6.04153531 5.33214876,5.05020624 6.26194371,4.50318253 C6.27890193,4.5094813 6.29198398,4.51965623 6.31088029,4.5235324 C7.16363647,4.69989788 7.52266621,5.10689515 7.35163045,5.98823805 M6.31088029,3.76913388 C6.25855207,3.78173142 6.21542974,3.80644197 6.17812165,3.83696676 C4.70178751,4.25123184 3.39019035,5.59577639 3.00645007,7.04594643 C2.55826855,8.7374077 4.29769736,9.82757896 5.78662904,9.40120087 C7.17187332,9.00389401 8.15738814,7.47910781 8.41854472,6.13407873 C8.69229884,4.72509295 7.85165567,3.39266141 6.31088029,3.76913388" id="Fill-11" fill="#1D1D1B"></path>
        </g>
    </g>
</svg>