<?xml version="1.0" encoding="UTF-8"?>
<svg width="24px" height="32px" viewBox="0 0 24 32" version="1.1" xmlns="http://www.w3.org/2000/svg" xmlns:xlink="http://www.w3.org/1999/xlink">
    <!-- Generator: sketchtool 48.2 (47327) - http://www.bohemiancoding.com/sketch -->
    <title>A7A45D32-0037-467B-B91A-68A37E02DD19</title>
    <desc>Created with sketchtool.</desc>
    <defs>
        <polygon id="path-1" points="0 0.0144097111 23.9475254 0.0144097111 23.9475254 31.5999919 0 31.5999919"></polygon>
    </defs>
    <g id="QuizzesList" stroke="none" stroke-width="1" fill="none" fill-rule="evenodd" transform="translate(-161.000000, -391.000000)">
        <g id="geography" transform="translate(161.000000, 391.000000)">
            <path d="M14.1006915,18.31376 C12.4914712,18.60536 10.9265898,18.51576 9.60984407,17.90456 C9.34258983,17.96776 9.04197966,17.93176 8.73445424,17.73496 C6.19533559,16.10896 4.06299661,14.31696 4.16184407,11.03896 C4.24279322,8.36736 5.29675932,5.78656 7.8171661,4.49336 C12.2644881,2.21096 17.943539,3.09656 20.1230644,7.90896 C22.2342508,12.57016 18.9474712,17.43576 14.1006915,18.31376 M22.5116746,7.40056 C21.0419797,2.53176 16.1683525,-0.13024 10.1345898,1.84736 C4.10082712,3.82496 -0.153681356,7.24816 1.78014915,16.98496 C3.71438644,26.72136 13.9253695,31.05696 13.9253695,31.05696 C21.5838102,25.73256 23.9817763,12.26856 22.5116746,7.40056" id="Fill-1" fill="#EA5645"></path>
            <g id="Group-5" transform="translate(0.000000, 0.385600)">
                <mask id="mask-2" fill="white">
                    <use xlink:href="#path-1"></use>
                </mask>
                <g id="Clip-4"></g>
                <path d="M21.9649627,13.48908 C21.2673356,19.12188 18.5899119,25.39748 14.4920136,29.83668 C12.8295051,29.39708 11.3374373,28.68108 10.006861,27.76788 C9.0232678,26.90548 8.11492881,25.95388 7.15574237,24.99068 C7.05811525,24.89268 6.92875932,24.86548 6.80306441,24.87948 C4.64103051,22.38548 3.14164068,19.34708 2.23981017,16.44828 C1.33757288,13.54748 1.02964068,10.39908 2.5672678,7.63108 C4.19072542,4.71028 7.52997966,2.62908 11.0055051,1.75628 C14.7234712,0.82268 18.6208271,2.02868 20.6502508,4.95108 C22.3810983,7.44388 22.311539,10.69068 21.9649627,13.48908 M20.8463186,2.62828 C18.2925559,0.05708 14.1344542,-0.41772 10.5649627,0.34548 C6.77743729,1.15468 3.4772339,3.59668 1.50069153,6.50188 C-0.429071186,9.33828 -0.201274576,12.68508 0.543538983,15.79828 C1.53730169,19.95388 4.20211525,25.09748 8.29106441,28.14548 C9.89214915,29.73588 12.1265898,30.99788 14.1633356,31.57428 C14.4549966,31.65668 14.703539,31.53108 14.8410305,31.33908 C15.0253017,31.34188 15.2156746,31.28188 15.382861,31.11468 C20.579878,25.91028 23.6653017,18.27988 23.9358102,11.39748 C24.0590644,8.24628 23.2398102,5.03788 20.8463186,2.62828" id="Fill-3" fill="#1D1D1B" mask="url(#mask-2)"></path>
            </g>
            <path d="M13.2759864,17.8958 C8.29415593,18.3294 4.55707119,15.3122 4.5867661,10.9286 C4.6168678,6.4514 8.7188339,3.517 13.6050712,3.7038 C13.7356475,3.709 13.8218847,3.6334 13.860122,3.541 C14.6968678,3.5882 15.5287322,3.767 16.3475797,4.1442 C18.2923932,5.0402 19.4582237,6.8714 20.0472407,8.6662 C21.5445966,13.2266 18.6621559,17.427 13.2759864,17.8958 M8.76764746,3.5134 C8.72900339,3.5362 8.70256271,3.5654 8.67449492,3.5934 C5.62405424,4.6686 3.53768136,7.2878 3.24113898,10.6126 C2.74974915,16.117 7.93944407,19.5646 13.7958508,19.0762 C19.8999864,18.567 22.7397153,13.6366 21.5214102,8.6582 C20.2481898,3.4558 14.0594441,0.4282 8.76764746,3.5134" id="Fill-6" fill="#1D1D1B"></path>
        </g>
    </g>
</svg>