<?xml version="1.0" encoding="UTF-8"?>
<svg width="27px" height="32px" viewBox="0 0 27 32" version="1.1" xmlns="http://www.w3.org/2000/svg" xmlns:xlink="http://www.w3.org/1999/xlink">
    <!-- Generator: sketchtool 48.2 (47327) - http://www.bohemiancoding.com/sketch -->
    <title>159BC77F-AC06-41DD-904F-0617BF833294</title>
    <desc>Created with sketchtool.</desc>
    <defs>
        <polygon id="path-1" points="0 0.328912327 26.5711765 0.328912327 26.5711765 31.7600527 0 31.7600527"></polygon>
    </defs>
    <g id="QuizzesList" stroke="none" stroke-width="1" fill="none" fill-rule="evenodd" transform="translate(-162.000000, -624.000000)">
        <g id="grammar" transform="translate(162.000000, 624.000000)">
            <path d="M4.01329889,27.270269 L3.51579491,3.12349242 C3.51579491,3.12349242 4.41121622,1.71169281 6.0522496,1.45978774 C7.69371224,1.20788266 20.3270509,2.16547001 21.1228855,2.11500198 C21.9187202,2.06453395 24.3062242,2.82111931 24.3062242,2.82111931 C24.3062242,2.82111931 25.7485135,6.90380883 25.4003895,9.82790903 C25.0522655,12.7520092 25.2514388,18.3474344 25.4999762,20.1625432 C25.7485135,21.9772169 25.2510095,27.270269 25.2510095,27.270269 C25.2510095,27.270269 21.4212162,26.4131826 17.2930922,27.2198009 C13.1649682,28.0264192 4.16267886,28.0264192 4.01329889,27.270269" id="Fill-1" fill="#7C716B"></path>
            <path d="M3.81438315,29.1354542 L4.06292051,27.8250257 C4.06292051,27.8250257 11.9714738,27.8245906 14.9058458,27.2703125 C17.8402178,26.7155992 22.4658458,26.31229 23.8089777,26.7660672 C25.1516804,27.2198444 25.4500111,28.3793039 25.4500111,28.3793039 C25.4500111,28.3793039 23.8583418,31.101967 20.4264658,31.202468 C16.9945898,31.302969 11.1258458,30.3453817 10.1308378,30.4463177 C9.13625914,30.5472538 3.61563911,30.1939776 3.81438315,29.1354542" id="Fill-3" fill="#FFFFFF"></path>
            <path d="M16.5968013,1.91347792 L21.6701399,2.26631905 L22.5157679,16.3812696 L19.7466582,13.203089 C19.7466582,13.203089 17.0380731,15.8461345 17.0234785,15.7586856 C17.0088839,15.6712367 15.0317456,5.32877126 16.5968013,1.91347792" id="Fill-5" fill="#EA5645"></path>
            <g id="Group-9" transform="translate(0.000000, 0.106113)">
                <mask id="mask-2" fill="white">
                    <use xlink:href="#path-1"></use>
                </mask>
                <g id="Clip-8"></g>
                <path d="M24.8077202,26.2296704 C22.5275294,25.1950758 19.7000413,25.9747198 17.3309952,26.296236 C13.1865596,26.8583454 8.95927822,27.1628939 4.80024801,26.5838167 C4.78050238,26.0277983 4.75903975,25.4713448 4.74015262,24.9153263 C4.7440159,24.9127159 4.74830843,24.9092353 4.75260095,24.9066249 C5.0058601,24.8552868 5.25868998,24.787851 5.51151987,24.6969216 C6.16055008,24.4637245 6.19789507,23.5566051 5.52740223,23.3251483 C5.4385469,23.2059394 5.30848331,23.1102241 5.12648013,23.0619314 C5.10802226,23.0571457 5.08999364,23.0545353 5.07153577,23.0497495 C5.25482671,22.7860976 5.14880127,22.3566842 4.72469952,22.3331905 C4.70023211,22.3318853 4.67662321,22.3336256 4.6521558,22.3323204 C4.6057965,20.8952868 4.56029571,19.4582531 4.51865819,18.0207844 C4.98225119,18.0112129 5.44884897,17.9459525 5.91115421,17.810646 C6.45372973,17.6522808 6.65848331,16.7764865 6.0794213,16.5050033 C5.9712496,16.4541002 5.86136089,16.4079829 5.75147218,16.3640409 C5.74159936,16.3414173 5.7321558,16.3192287 5.71927822,16.2983454 C5.70940541,16.1056098 5.61711606,15.9106987 5.43425437,15.7745221 C5.29903975,15.673586 5.15867409,15.5865722 5.01573291,15.5078247 C5.04020032,15.2920303 4.94318919,15.0731905 4.65988235,15.0057548 C4.58390461,14.9874819 4.50792687,14.969644 4.43280763,14.9526763 C4.38301431,13.1245155 4.3357965,11.2967897 4.29072496,9.46862887 C4.63498569,9.43077785 4.97881717,9.38640079 5.32050238,9.33810811 C6.09015262,9.23021094 5.95708426,8.09250494 5.32050238,7.89585366 C5.20632114,7.86061305 5.0912814,7.83102835 4.97667091,7.80144364 C4.93031161,7.57999341 4.78093164,7.39204351 4.5057806,7.34505603 C4.41649603,7.32982861 4.3276407,7.31895188 4.23878537,7.30764008 C4.20272814,5.81013184 4.16667091,4.31305867 4.13147218,2.81511536 C5.569469,1.26626895 8.70730684,1.65826632 10.5526645,1.73701384 C12.3100254,1.81184575 14.0605183,2.01719842 15.8084356,2.23125247 C15.0872909,6.92129862 15.6148426,11.6396243 16.2260986,16.3122676 C16.294779,16.8352208 16.9635548,17.3311997 17.3966709,16.8034608 C18.1590238,15.8758932 18.914938,14.9426697 19.6760032,14.013797 C20.5173386,15.0831971 21.5033323,16.0277324 22.0776725,17.2920435 C22.3914563,17.9824984 23.4345405,17.6118194 23.433682,16.9196243 C23.4281017,12.1356032 22.8747949,7.39465392 22.4695803,2.6349967 C24.5308521,2.78379038 24.7600731,4.72593935 24.7879746,6.67461437 C24.8317583,9.69704021 24.2084833,12.6507251 24.4497234,15.6792419 C24.668213,18.4293144 24.9648267,21.1676401 24.9532369,23.9311997 C24.9498029,24.7004021 24.9103116,25.4700396 24.8077202,26.2296704 M24.4067981,28.0821951 C24.3737456,28.1879169 24.3351129,28.2871127 24.2930461,28.3819578 C21.5273704,27.8081015 18.5131574,28.5420633 15.7483402,28.6891167 C13.8793736,28.7878774 12.0146995,28.6334278 10.1491669,28.4694067 C11.7429825,28.4868095 13.3415199,28.4111074 14.9520763,28.2714502 C17.6327599,28.0391233 21.9772273,26.5068095 24.4381335,27.9721226 C24.4274022,28.0086684 24.4183879,28.0456493 24.4067981,28.0821951 M21.0483243,30.1418128 C17.8503911,30.5394661 14.5258283,29.9469018 11.3442067,29.6284311 C9.75511288,29.4691958 6.04336407,30.2031575 4.86935771,28.760033 C4.87150397,28.7282729 4.87622576,28.6982531 4.874938,28.6643177 C4.87450874,28.6560514 4.87407949,28.6482202 4.87407949,28.6399539 C8.26775199,28.6952076 11.6309475,29.2286025 15.0250493,29.2842914 C18.0156534,29.3334542 20.8324102,28.948853 23.7788013,29.1315821 C23.0980064,29.8041991 22.0708045,30.0147726 21.0483243,30.1418128 M4.85132909,28.0064931 C5.25439746,28.0769743 5.65746582,28.1374489 6.06053418,28.1905274 C5.66004134,28.1800857 5.25868998,28.182261 4.85776789,28.1896572 C4.85562162,28.1287475 4.85347536,28.0678378 4.85132909,28.0064931 M16.829628,2.35611734 C17.4189921,2.42833883 18.0083561,2.49925511 18.5977202,2.56321028 C19.3935548,2.65022413 20.1743657,2.67197759 20.962903,2.66066579 C21.2985787,6.59978247 21.7291192,10.531503 21.9029666,14.4810613 C21.3556693,13.8462953 20.7830461,13.2298022 20.3117266,12.5123731 C20.0837933,12.1651879 19.5171797,11.9968161 19.2158442,12.3696704 C18.6020127,13.127561 17.989469,13.8863217 17.3769253,14.6455175 C16.8485151,10.575445 16.4437297,6.45011866 16.829628,2.35611734 M26.050407,16.5128345 C25.705717,12.6446341 26.6105819,8.81210943 26.2062258,4.96566249 C26.0529825,3.50687541 25.4395803,1.96194463 24.0419332,1.34284113 C22.6996598,0.748101516 20.9779269,1.2401648 19.5553831,1.15228082 C16.2308203,0.946493078 12.9590556,0.35218853 9.61732273,0.329564931 C7.98058188,0.318253131 4.70366614,0.423539881 3.74900795,2.19209624 C3.39916693,2.06505603 2.93342766,2.24909031 2.92226709,2.74463415 C2.89050238,4.17818721 2.87333227,5.61174028 2.86303021,7.04529334 C2.41961208,6.98351351 1.96803816,7.01353329 1.53406359,7.14100857 C1.40915103,7.15580092 1.28595548,7.16406724 1.15975517,7.18669084 C0.972600954,7.22062624 0.852410175,7.33200396 0.78072496,7.4712261 C0.582410175,7.58912986 0.390963434,7.7270468 0.211535771,7.89019776 C-0.115554849,8.1877851 -0.0614689984,8.86257746 0.359627981,9.05487805 C0.952855326,9.3254911 1.56496979,9.46601846 2.18652782,9.52344759 C2.40973927,9.56390903 2.63166296,9.57696111 2.85315739,9.57391562 C2.8540159,11.3228939 2.87333227,13.0718721 2.90209221,14.8208504 C2.60419078,14.8674028 2.32002544,14.9770402 2.05388871,15.1771721 C1.69288712,15.2611404 1.33789507,15.3820897 0.997497615,15.5356691 C0.762696343,15.6413909 0.663538951,15.9015623 0.681567568,16.1525972 C0.233856916,16.4971721 0.388387917,17.263764 0.937402226,17.4199539 C1.10738633,17.4682465 1.27865819,17.5108833 1.45078855,17.546559 C1.49543084,17.7784509 1.64352305,17.9755372 1.9367027,18.0251351 C2.29641653,18.0856098 2.638531,18.1056229 2.9703434,18.0908306 C3.00811765,19.5761569 3.05662321,21.0606131 3.11070906,22.5455043 C2.87204452,22.6338233 2.64840382,22.7486816 2.45051828,22.902261 C2.37454054,22.9157482 2.29770429,22.9279301 2.22473132,22.9448978 C1.97147218,23.0040672 1.70662321,23.1428543 1.50787917,23.3390705 C1.32115421,23.4034608 1.13614626,23.4774225 0.954143084,23.5605208 C0.680279809,23.6862558 0.56781558,24.0069018 0.60172655,24.3049242 C0.533475358,24.605557 0.610311606,24.9235926 0.945128776,25.076737 C1.71392051,25.4295781 2.48528776,25.5583586 3.23261685,25.460033 C3.26652782,26.2327159 3.29528776,27.0053988 3.33349126,27.7776467 C2.39171065,30.7639618 6.44514467,31.1002703 8.40983466,31.0846078 C12.2945723,31.0532828 16.1273704,31.85294 20.0198347,31.7511338 C22.4412496,31.6876137 24.4192464,31.1146276 25.5001049,29.2412195 C25.6147154,29.18118 25.6752401,29.0576203 25.6563529,28.9388464 C25.8302003,28.5855702 25.9787218,28.1953131 26.092903,27.754588 C27.0188013,24.1809295 26.3723466,20.1286948 26.050407,16.5128345" id="Fill-7" fill="#1D1D1B" mask="url(#mask-2)"></path>
            </g>
        </g>
    </g>
</svg>