<?xml version="1.0" encoding="UTF-8"?>
<svg width="27px" height="32px" viewBox="0 0 27 32" version="1.1" xmlns="http://www.w3.org/2000/svg" xmlns:xlink="http://www.w3.org/1999/xlink">
    <!-- Generator: sketchtool 48.2 (47327) - http://www.bohemiancoding.com/sketch -->
    <title>DC643611-5303-4337-871E-FF5638CF5DD7</title>
    <desc>Created with sketchtool.</desc>
    <defs>
        <polygon id="path-1" points="0 0.215209639 26.870068 0.215209639 26.870068 31.6144578 0 31.6144578"></polygon>
    </defs>
    <g id="QuizzesList" stroke="none" stroke-width="1" fill="none" fill-rule="evenodd" transform="translate(-163.000000, -1185.000000)">
        <g id="history" transform="translate(163.000000, 1185.000000)">
            <path d="M20.6776957,26.6076916 C20.0989565,27.767788 18.3447391,26.7514988 18.9211304,25.5960289 C19.2580435,24.9209446 19.053,23.6093301 19.0526087,22.8683181 C19.0518261,21.7124627 19.0381304,20.5473542 18.9465652,19.3945831 C18.7673478,17.139547 18.714913,14.817041 18.4304348,12.5805108 C18.2676522,11.3005108 20.3036087,11.3163181 20.4648261,12.5805108 C20.8052609,15.2554024 20.9504348,18.0933783 21.047087,20.7929446 C21.110087,22.561041 21.497087,24.9645108 20.6776957,26.6076916 Z M12.7240435,25.7552578 C12.2458696,21.4105831 12.3143478,17.0431614 12.2716957,12.6799807 C12.254087,10.9057157 15.0444783,10.9076434 15.0616957,12.6799807 C15.1051304,17.0431614 15.0362609,21.4105831 15.5144348,25.7552578 C15.7081304,27.5164145 12.9157826,27.4986795 12.7240435,25.7552578 Z M7.04347826,26.0525108 C6.91669565,23.859547 6.56569565,21.6642699 6.59113043,19.4655229 C6.61578261,17.3438843 6.77895652,15.2411373 6.54104348,13.1256675 C6.34265217,11.3645108 9.135,11.3834024 9.33104348,13.1256675 C9.57052174,15.2492337 9.34630435,17.3392578 9.38152174,19.4655229 C9.41791304,21.6692819 9.70669565,23.8529928 9.83386957,26.0525108 C9.9363913,27.8244627 7.14521739,27.8148241 7.04347826,26.0525108 Z M24.2233043,27.0429687 C24.2233043,27.0429687 24.3234783,26.0031614 24.6251739,23.4273542 C24.9264783,20.851547 24.0722609,12.0357398 24.0722609,12.0357398 L26.3844783,11.5407036 L26.0326957,8.76711325 L14.4708261,0.941763855 L0.848347826,8.32104096 L0.747782609,12.234294 L2.95943478,12.6799807 L3.56282609,27.2904867 L1.09956522,27.5877398 L0.999,31.0051855 L7.33265217,30.7079325 L23.7705652,31.1042699 L25.3792174,30.4600289 L25.2281739,27.6370892 L24.2233043,27.0429687 Z" id="Fill-1" fill="#E7E7B6"></path>
            <path d="M20.7218348,14.8716337 C22.905313,14.7837301 24.3918783,14.709706 24.3918783,14.709706 L23.9825739,12.3983807 C23.9825739,12.3983807 22.5687913,12.2129349 20.4643565,12.0155373 C20.5645304,12.9616578 20.7171391,13.9312964 20.7218348,14.8716337" id="Fill-3" fill="#1D1D1B"></path>
            <path d="M18.2026174,11.8241928 C17.2008783,11.749012 16.1251826,11.6807711 15.0217043,11.6318072 C15.0420522,11.7702169 15.030313,11.9240482 14.9696609,12.091759 C14.7133565,12.8019277 14.7364435,13.5032289 14.7266609,14.2465542 C14.7231391,14.5226024 14.715313,14.797494 14.7086609,15.0731566 C15.9330522,15.0415422 17.1421826,15.002988 18.2691391,14.9640482 C18.0468783,13.9697349 18.2170957,12.7313735 18.2026174,11.8241928" id="Fill-5" fill="#1D1D1B"></path>
            <path d="M12.6693391,15.1182265 C12.6779478,14.7292145 12.6904696,14.3398169 12.6920348,13.9508048 C12.6947739,13.1415518 12.7299913,12.3353831 13.0058609,11.5662265 C11.8366435,11.543094 10.6686,11.5473349 9.55612174,11.5932145 C9.62029565,12.7749012 9.68525217,14.0020819 9.45477391,15.1533108 C10.4752957,15.1521542 11.563513,15.1390458 12.6693391,15.1182265" id="Fill-7" fill="#1D1D1B"></path>
            <path d="M6.60181304,11.8445108 C5.26042174,12.033812 4.12681304,12.3268241 3.3489,12.7609446 C2.75959565,13.0894265 2.29707391,13.7236434 3.37668261,14.7144867 C3.62672609,14.9434988 4.8882913,15.0661012 6.67733478,15.1196916 C6.5259,14.0351614 6.5885087,12.8754506 6.60181304,11.8445108" id="Fill-9" fill="#1D1D1B"></path>
            <path d="M6.28121739,8.19354217 C6.28121739,8.19354217 14.826913,3.32298795 14.9106522,3.37812048 C14.9943913,3.43286747 21.9482609,9.21175904 21.9482609,9.21175904 L19.9373478,9.29387952 L14.6594348,5.49706024 L8.51517391,8.46843373 C8.51517391,8.46843373 6.28121739,8.8539759 6.28121739,8.19354217" id="Fill-11" fill="#1D1D1B"></path>
            <path d="M6.86891739,8.25677108 C9.63778696,6.98795181 12.1683522,5.27691566 14.8221783,3.75672289 C16.6820478,5.66824096 18.7234826,7.38737349 20.8568739,8.99238554 C16.2985696,8.68086747 11.4225261,7.70004819 6.86891739,8.25677108 M22.876787,9.14775904 C20.1889174,7.36308434 17.6243087,5.40144578 15.2365696,3.24009639 C15.2103522,2.9413012 14.8890913,2.65908434 14.5396565,2.85146988 C11.0367,4.78033735 7.86713478,7.2613012 4.14387391,8.79460241 C4.1333087,8.79884337 4.12704783,8.80655422 4.11765652,8.81156627 C3.89656957,8.87595181 3.67626522,8.94380723 3.45752609,9.01898795 C2.70504783,9.27575904 3.01652609,10.4451084 3.78935217,10.2033735 C9.80017826,8.32578313 16.4484391,10.1783133 22.6017,10.1474699 C23.1667435,10.1447711 23.3138739,9.43807229 22.876787,9.14775904" id="Fill-13" fill="#1D1D1B"></path>
            <g id="Group-17" transform="translate(0.000000, 0.170255)">
                <mask id="mask-2" fill="white">
                    <use xlink:href="#path-1"></use>
                </mask>
                <g id="Clip-16"></g>
                <path d="M13.2792261,10.8048964 C9.35796522,10.7073542 5.07396522,10.5061012 1.26774783,11.6145349 C1.28809565,10.6333301 1.32096522,9.64904096 1.29396522,8.66976386 C1.29318261,8.64393253 1.28809565,8.62041446 1.28496522,8.5961253 C5.66796522,6.0261012 10.4743565,4.21366747 14.5916609,1.20643855 C18.2757913,3.74908916 21.7396174,6.60672771 25.5485739,8.96586024 C25.5474,9.50446265 25.5493565,10.0419084 25.5708783,10.5805108 C25.5763565,10.7162217 25.5787043,10.8642699 25.5837913,11.016559 C21.5251826,10.751306 17.3472261,10.9059084 13.2792261,10.8048964 M21.8844,21.576559 C21.9094435,18.5527518 21.4101391,15.3546795 20.9699217,12.3297157 C21.799487,12.3505349 22.6267043,12.3532337 23.445313,12.3208482 C24.2110957,17.0329446 23.8170522,21.7662458 23.7556174,26.513812 C23.1913565,26.4448 22.6243565,26.3908241 22.0569652,26.3430169 C22.1242696,24.7977639 21.871487,23.1248964 21.8844,21.576559 M20.5672696,22.234294 C20.5567043,22.8928 20.2659652,24.9708723 20.5829217,26.2400771 C20.0934,26.2127036 19.6030957,26.1945831 19.1124,26.1791614 C19.7244,24.2734265 19.4997913,21.9335711 19.4211391,20.0343904 C19.3131391,17.4381494 18.9938348,14.8542458 18.8858348,12.2576193 C18.936313,12.2560771 18.9867913,12.2568482 19.0372696,12.2545349 C19.4191826,12.2749687 19.8018783,12.2919325 20.1841826,12.3069687 C19.7568783,15.5871614 20.620487,18.9406072 20.5672696,22.234294 M15.4298348,19.207788 C15.3128348,16.8914506 15.1887913,14.5754988 15.1054435,12.2580048 C16.0234435,12.2722699 16.9414435,12.2853783 17.8586609,12.2765108 C17.8598348,14.6603181 18.0809217,17.0375711 18.2167043,19.4167518 C18.3489652,21.7276916 18.0640957,23.8905831 17.9036609,26.1537157 C17.1590087,26.1425349 16.4147478,26.1429205 15.6716609,26.1506313 C15.8348348,23.8659084 15.5448783,21.4824867 15.4298348,19.207788 M12.9880957,12.2333301 C13.3516174,12.2341012 13.7147478,12.2383422 14.0782696,12.2429687 C14.0540087,14.5662458 14.1400957,16.8868241 14.2520087,19.207788 C14.3635304,21.5129446 14.3099217,23.8740048 14.5247478,26.1737639 C14.2242261,26.1807036 13.9225304,26.1830169 13.6227913,26.1918843 C13.600487,26.1926554 13.5785739,26.1945831 13.5562696,26.1953542 C14.0939217,21.575788 12.4011391,16.8340048 12.9880957,12.2333301 M12.1827913,19.0635952 C12.4046609,21.4315952 12.1452261,23.889812 12.4707913,26.2481735 C11.6893565,26.2905831 10.9079217,26.3422458 10.1272696,26.4027759 C10.1225739,25.8541494 10.0325739,25.2708241 10.0227913,24.8478843 C9.98483478,23.2305349 9.9414,21.6128 9.89718261,19.9958361 C9.82792174,17.4635952 9.61387826,14.8712096 9.70466087,12.3389687 C9.93826957,12.3204627 10.1722696,12.3027277 10.4062696,12.2896193 C10.9681826,12.2583904 11.5312696,12.2445108 12.0943565,12.2379566 C11.6009217,14.4606072 11.9730522,16.8208964 12.1827913,19.0635952 M6.99331304,26.6333301 C6.04674783,26.6907759 5.0997913,26.7312578 4.15244348,26.727788 C4.17592174,26.6452819 4.18218261,26.5535229 4.15987826,26.4517398 C3.66761739,24.2078843 4.07926957,21.8464386 3.93213913,19.5678843 C3.78853043,17.3371373 3.60226957,15.1734747 3.64726957,12.9512096 C4.41187826,12.9072578 5.17492174,12.8309205 5.93718261,12.7449446 C5.92387826,14.9367518 6.06826957,17.151306 6.12931304,19.336559 C6.19661739,21.7674024 6.34061739,24.2734265 6.99331304,26.6333301 M8.70448696,19.5902458 C8.74009565,21.2368964 8.79018261,22.8823904 8.8437913,24.5286554 C8.8610087,25.0545349 8.77061739,25.8252337 8.81757391,26.504559 C8.61331304,26.5203663 8.40905217,26.536559 8.2047913,26.5519807 C7.56735652,23.9738602 7.39557391,21.3664386 7.28874783,18.7212337 C7.20774783,16.721041 7.29109565,14.6217639 6.94792174,12.6281253 C7.5747913,12.5537157 8.20166087,12.4804627 8.82970435,12.4172337 C8.27131304,14.6468241 8.65596522,17.3506313 8.70448696,19.5902458 M24.7217478,27.7209446 C24.7542261,27.7251855 24.7870957,27.7278843 24.8195739,27.7317398 C24.7538348,27.9434024 24.7115739,28.168559 24.6830087,28.4002699 C16.9230522,28.5841735 9.21592174,29.1501494 1.44970435,28.8216675 C1.44813913,28.7680771 1.44892174,28.7144867 1.44735652,28.6608964 C1.44109565,28.4646554 1.43170435,28.2190651 1.39374783,27.9773301 C1.52248696,27.999306 1.66453043,28.0062458 1.83826957,27.994294 C2.36887826,27.9576675 2.85487826,27.8886554 3.3447913,27.7008964 C5.28683478,27.8501012 7.23083478,27.7556434 9.17913913,27.6160771 C9.37948696,27.7737639 9.68744348,27.7591133 9.86235652,27.5663422 C10.6551391,27.505812 11.4490957,27.4425831 12.2438348,27.3886072 C16.0884,27.1256675 20.0425304,27.2047036 23.8886609,27.6272578 C24.0909652,27.8528 24.4677913,27.8840289 24.7217478,27.7209446 M1.51309565,30.481041 C1.49274783,30.4548241 1.47435652,30.4270651 1.45674783,30.3981494 C1.45753043,30.0299566 1.45831304,29.6613783 1.45596522,29.2928 C5.4594,29.6266795 9.36696522,29.7581494 13.3817478,29.4396916 C17.092487,29.1447518 20.953487,29.6343904 24.6384,29.0406554 C24.6297913,29.4200289 24.6446609,29.8017157 24.661487,30.1594988 C16.9688348,30.298294 9.14548696,29.2611855 1.51309565,30.481041 M26.7326609,10.3804145 C26.7037043,9.81096867 26.7017478,9.23998072 26.6982261,8.66976386 C26.6970522,8.47583614 26.6148783,8.3354988 26.496313,8.2441253 C26.4532696,8.13154699 26.3718783,8.0274506 26.2423565,7.94648675 C22.401313,5.54417349 18.8975739,2.62754699 14.9555739,0.387161446 C14.9078348,0.373281928 14.8600957,0.359016867 14.8119652,0.345522892 C14.653487,0.313908434 14.4938348,0.271113253 14.3341826,0.215209639 C13.9917913,0.320462651 13.6525304,0.433812048 13.3148348,0.55333012 C9.18931304,3.43448675 4.45061739,5.29434217 0.235486957,8.04287229 C-0.040773913,8.22253494 -0.0489913043,8.53058313 0.0824869565,8.74648675 C0.0547043478,9.87573976 0.104791304,11.0103904 0.120052174,12.1396434 C0.124356522,12.4611855 0.348573913,12.6377639 0.596269565,12.6732337 C0.6174,12.6921253 0.638530435,12.7106313 0.666313043,12.7248964 C0.758269565,12.7730892 0.857269565,12.8070169 0.958617391,12.8359325 C1.03766087,12.9057157 1.14253043,12.954294 1.27557391,12.9623904 C1.70483478,12.9874506 2.13292174,12.9928482 2.56022609,12.9878361 C2.11844348,15.1048482 2.57274783,17.4720771 2.72026957,19.5678843 C2.88735652,21.9455229 2.49957391,24.3621012 3.07713913,26.6996434 C2.96757391,26.6950169 2.8584,26.6961735 2.74883478,26.6903904 C2.49213913,26.6556916 2.2374,26.632559 1.99557391,26.6383422 C1.71226957,26.6152096 1.42896522,26.5870651 1.14526957,26.5523663 C1.06035652,26.5419566 0.988356522,26.5585349 0.928095652,26.5924627 C0.631486957,26.5666313 0.343878261,26.7516916 0.334095652,27.1114024 C0.309443478,28.0000771 -0.0172956522,29.4824867 0.31413913,30.5338602 C0.31413913,30.5496675 0.312965217,30.5654747 0.312573913,30.5812819 C0.309834783,30.7968 0.410008696,30.9463904 0.550878261,31.0339084 C0.694095652,31.2455711 0.882704348,31.423306 1.13783478,31.5482217 C1.43953043,31.6951133 1.70170435,31.5802217 1.83122609,31.3781976 C9.48944348,30.8438361 17.1179217,31.4853783 24.7792696,31.2756434 C24.7976609,31.3034024 24.823487,31.322294 24.8461826,31.3454265 C25.156487,31.1360771 25.4988783,30.9398361 25.8577043,30.8075952 C25.8252261,29.6660048 25.6890522,28.5467759 25.9109217,27.4260048 C25.8021391,27.4267759 25.6929652,27.391306 25.605313,27.3007036 C25.4499652,27.1399325 25.3740522,26.9629687 25.3450957,26.7470651 C25.326313,26.7408964 25.309487,26.7324145 25.2883565,26.7289446 C25.1874,26.7127518 25.0852696,26.7008 24.9839217,26.6853783 C25.0492696,21.8741976 25.5239217,16.991306 24.4799217,12.2587759 C24.9236609,12.2240771 25.3650522,12.1808964 25.8013565,12.1207518 C25.813487,12.1442699 25.8256174,12.167788 25.8385304,12.1909205 C26.1296609,12.0864386 26.4200087,11.9792578 26.7197478,11.8990651 C26.7710087,11.8855711 26.8164,11.8871133 26.8617913,11.889041 C26.9064,11.4117398 26.757313,10.8600289 26.7326609,10.3804145" id="Fill-15" fill="#1D1D1B" mask="url(#mask-2)"></path>
            </g>
        </g>
    </g>
</svg>