<?xml version="1.0" encoding="UTF-8"?>
<svg width="64px" height="57px" viewBox="0 0 64 57" version="1.1" xmlns="http://www.w3.org/2000/svg" xmlns:xlink="http://www.w3.org/1999/xlink">
    <!-- Generator: sketchtool 48.2 (47327) - http://www.bohemiancoding.com/sketch -->
    <title>252305C3-FA31-426A-B8DA-EBA03D816CEF</title>
    <desc>Created with sketchtool.</desc>
    <defs>
        <polygon id="path-1" points="0 0.227197183 63.2925293 0.227197183 63.2925293 56.1971831 0 56.1971831"></polygon>
    </defs>
    <g id="Homepage-Copy-7" stroke="none" stroke-width="1" fill="none" fill-rule="evenodd" transform="translate(-589.000000, -2235.000000)">
        <g id="job" transform="translate(589.000000, 2235.000000)">
            <path d="M39.06904,13.6499746 C36.99704,13.5335662 34.96184,13.4645239 32.88104,13.4147493 C31.82584,13.389862 23.85464,13.477369 24.15224,11.9785099 C24.77784,8.83628451 26.73544,5.52867887 30.26984,4.95867887 C33.25544,4.47698873 37.74344,4.56931268 39.52584,7.36712958 C40.43784,8.79935493 42.75944,13.8554958 39.06904,13.6499746 Z M61.22424,28.3623972 C61.22424,28.3623972 60.25544,18.0887493 59.77144,17.1157352 C59.28584,16.1427211 54.31864,13.5295521 54.31864,13.5295521 L44.20264,12.9218197 C44.20264,12.9218197 43.77944,7.14635493 43.17304,5.68763662 C42.56664,4.22891831 34.38904,1.8582 33.35944,1.79718592 C32.32984,1.73617183 24.99944,2.58796056 22.75864,3.74160845 C20.51864,4.89766479 20.94184,12.3742986 20.94184,12.3742986 C13.79304,11.644538 6.94824,13.1650732 4.04024,15.0484817 C1.13304,16.9334958 1.19304,25.201707 0.82984,35.1710873 C0.46664,45.1404676 2.34504,50.0641437 4.22184,53.4688901 C6.09944,56.8728338 21.06184,55.4133127 25.90904,54.4419042 C30.75544,53.4688901 52.44184,56.0218479 52.44184,56.0218479 C52.44184,56.0218479 56.80264,55.170862 59.28664,54.7445662 C61.77064,54.3190732 62.49704,50.3676085 62.49704,50.3676085 L61.22424,28.3623972 Z" id="Fill-1" fill="#DE7A26"></path>
            <path d="M26.6964,38.331938 L26.2124,34.3194592 C26.2124,34.3194592 40.0228,32.8615437 40.4468,33.5294873 C40.8716,34.1982338 40.4468,38.6362056 40.4468,38.6362056 C40.4468,38.6362056 27.1204,38.6972197 26.6964,38.331938" id="Fill-3" fill="#C1C4C3"></path>
            <path d="M25.76352,33.938362 C25.15632,33.9648549 24.80592,33.9809113 24.80592,33.9809113 C24.80592,33.9809113 15.28032,34.6448408 11.57792,34.6897986 C7.87312,34.7331507 1.30352,30.2197141 1.30352,30.2197141 C0.15712,32.9629394 1.65552,33.5827141 4.96352,35.9285451 C7.33072,37.6072352 15.16912,38.1973056 26.19312,38.121038 C25.90112,36.7434042 25.80752,35.2830803 25.76352,33.938362" id="Fill-5" fill="#020303"></path>
            <path d="M60.38936,28.0521085 C60.38936,28.0521085 58.05256,30.4854465 57.43576,31.193531 C56.81816,31.9016155 49.36616,32.9629394 47.51336,33.0078972 C46.87416,33.0223479 43.97176,33.1435732 40.44456,33.2953056 C40.65896,34.7572352 40.77656,36.2528831 40.75896,37.7380944 C59.11416,36.9762211 61.22696,32.5205873 61.27176,32.2556577 C61.31496,31.9899254 60.38936,28.0521085 60.38936,28.0521085" id="Fill-7" fill="#020303"></path>
            <g id="Group-11" transform="translate(0.000000, 0.575941)">
                <mask id="mask-2" fill="white">
                    <use xlink:href="#path-1"></use>
                </mask>
                <g id="Clip-10"></g>
                <path d="M60.63696,51.9025141 C59.59456,54.2772465 56.10096,54.2041901 53.98576,54.2274718 C50.72976,54.2635986 47.48736,53.6839648 44.23536,53.5619366 C38.55136,53.3515986 32.87616,53.0730211 27.18576,53.2119085 C22.38736,53.3291197 17.62256,53.998669 12.82096,54.0925986 C8.04096,54.1857254 4.26656,53.8686127 2.78416,48.8269225 C1.13136,43.2072042 2.31536,37.0223028 1.98576,31.2548662 C3.05296,32.2736408 4.66816,32.878162 6.32896,33.2659225 C11.86096,35.7915845 18.86976,35.5330775 25.59616,34.8113451 C25.58016,36.7051901 25.79936,38.9057113 26.68416,40.4174155 C27.76496,42.2671056 30.52176,42.3385563 32.37136,42.4645986 C34.84976,42.6331901 38.19296,42.9495 40.16656,41.0829507 C41.75936,39.5760634 41.57936,36.2130634 41.37376,34.0591056 C43.99056,34.0823873 46.60976,34.0478662 49.23936,33.8391338 C52.12896,33.610331 58.32896,33.220162 60.41056,30.2409085 C60.52176,31.8160352 60.63536,33.3903592 60.76176,34.9598662 C61.05616,38.6311479 61.43856,42.3361479 61.52736,46.0178662 C61.57616,48.0080493 61.44496,50.0592465 60.63696,51.9025141 M39.54496,38.8238239 C39.47776,39.0590493 39.39856,39.2894577 39.29776,39.511838 C38.34976,41.6007676 34.11296,40.9159648 32.37136,40.8340775 C30.73536,40.7562042 28.40336,40.7289085 27.76336,38.9000915 C27.68416,38.6720915 27.62096,38.4392746 27.56496,38.2064577 C31.52896,38.5613028 35.56976,39.007669 39.54496,38.8238239 M39.78096,37.3819648 C35.67136,37.1274718 31.50736,37.2639507 27.38656,37.2575282 C27.25936,36.3920915 27.19696,35.5105986 27.04256,34.6491761 C29.11696,34.408331 31.15056,34.1401901 33.09136,33.9137958 C35.33776,33.9410915 37.57936,34.0061197 39.82016,34.0430493 C39.77376,35.1236408 39.86176,36.2748803 39.78096,37.3819648 M1.82096,28.7629225 C1.47136,23.1929789 1.31696,14.3539648 7.38576,13.739007 C7.68656,13.7085 7.88096,13.528669 7.98496,13.3103028 C8.95616,13.0317254 9.96976,12.8390493 11.01136,12.7138099 C14.48256,12.6287113 18.17296,13.2468803 21.18576,13.1995141 C21.76256,13.1898803 22.34016,13.186669 22.91856,13.1802465 C24.25056,13.3472324 25.52896,13.5142183 26.71136,13.6410634 C30.97296,14.0994718 35.27456,13.9975141 39.55456,14.0191901 C44.37776,14.0432746 49.42096,14.7232606 54.20576,14.1275704 C54.28256,14.1187394 54.34176,14.0842183 54.38976,14.0408662 C58.08256,14.3579789 59.20096,16.1811761 59.56816,19.7914437 C59.70496,21.1385704 59.82256,22.4905141 59.93296,23.8448662 C58.05376,33.4866972 43.49296,30.8325845 36.01056,31.4716268 C33.93696,31.6482465 31.67696,31.9589366 29.32016,32.281669 C25.02336,32.3306408 20.72816,32.7167958 16.42576,32.7167958 C14.87136,32.7167958 11.78096,32.8026972 8.75536,32.4502606 C6.21216,31.7405704 3.86736,30.5853169 1.85856,28.7854014 C1.84736,28.774162 1.83376,28.7717535 1.82096,28.7629225 M40.82256,11.7263451 C40.59376,11.7191197 40.36016,11.7183169 40.13216,11.7102887 C35.26176,11.5280493 30.40656,11.5007535 25.54336,11.5577535 C25.35456,11.5400915 25.16656,11.5280493 24.97856,11.5095845 C25.93056,6.45745775 28.51456,4.86065493 33.51536,4.97706338 C38.52096,5.0918662 39.74976,7.65847183 40.82256,11.7263451 M26.65856,3.11372535 C31.77056,1.84688028 36.61536,2.15114789 41.37296,4.21679577 C41.40736,4.24971127 41.44496,4.27941549 41.47856,4.3131338 C43.14816,5.99423239 43.34256,9.43028873 43.57616,11.7921761 C43.06496,11.7841479 42.56016,11.7664859 42.05136,11.7552465 C41.19616,6.56664085 39.02656,4.00324648 33.51536,3.6861338 C28.36816,3.39069718 23.87776,5.69799296 24.17936,11.4060211 C24.18016,11.4172606 24.18656,11.4252887 24.18816,11.437331 C23.34816,11.3522324 22.50976,11.2727535 21.67296,11.2037113 C21.68176,10.5478099 21.63376,9.86300704 21.58256,9.17579577 C22.00496,6.05845775 22.51616,4.13972535 26.65856,3.11372535 M62.98416,41.9507958 C62.55376,36.7140211 62.19136,31.4764437 61.74016,26.2388662 C61.24976,20.5468944 62.41136,13.397007 55.26976,12.3958944 C52.06176,11.9455141 48.75296,11.8700493 45.46096,11.8210775 C45.10576,8.73745775 44.78816,5.47721831 42.79216,2.99410563 C41.95856,1.95766901 40.75856,1.35475352 39.43376,0.996697183 C36.97056,0.103964789 33.87456,0.0967394366 30.98576,0.428302817 C27.83936,0.365683099 24.59136,0.387359155 21.76576,1.78426056 C19.87456,2.72034507 19.67936,4.75307746 19.92416,6.82835915 C19.69136,8.13614789 19.80336,9.58844366 20.24096,11.0977394 C17.60816,10.9235282 14.98016,10.8857958 12.32416,11.182838 C12.24176,11.1924718 12.16816,11.209331 12.08576,11.2189648 C7.86016,11.1756127 3.74496,11.8877113 2.20256,15.655331 C0.83216,18.0958944 0.47136,21.4203592 0.29056,24.1563592 C-0.13504,30.6094014 -0.04384,37.4983732 0.24496,43.9514155 C0.52736,50.3097254 2.24496,55.064007 8.98816,55.8395282 C14.17776,56.4368239 19.53856,55.5914577 24.71696,55.2237676 C31.20736,54.7629507 37.74496,55.1964718 44.23536,55.4445423 C49.51456,55.6460493 59.66496,58.3643873 62.41696,52.0486268 C63.73376,49.0236127 63.24496,45.124331 62.98416,41.9507958" id="Fill-9" fill="#020303" mask="url(#mask-2)"></path>
            </g>
        </g>
    </g>
</svg>