<?xml version="1.0" encoding="UTF-8"?>
<svg width="51px" height="59px" viewBox="0 0 51 59" version="1.1" xmlns="http://www.w3.org/2000/svg" xmlns:xlink="http://www.w3.org/1999/xlink">
    <!-- Generator: sketchtool 48.2 (47327) - http://www.bohemiancoding.com/sketch -->
    <title>7252387B-F98F-4120-B7F4-BDA23FF255E4</title>
    <desc>Created with sketchtool.</desc>
    <defs></defs>
    <g id="Homepage-Copy-7" stroke="none" stroke-width="1" fill="none" fill-rule="evenodd" transform="translate(-922.000000, -2500.000000)">
        <g id="learn" transform="translate(922.000000, 2500.000000)">
            <path d="M8.141025,49.750143 L7.20738611,5.4898519 C7.20738611,5.4898519 8.887775,2.90206709 11.9674139,2.44033291 C15.0478583,1.97859873 38.7561639,3.73382658 40.2488583,3.64211772 C41.7431639,3.54881392 46.2228583,4.93561139 46.2228583,4.93561139 C46.2228583,4.93561139 48.9303306,12.4190544 48.2762194,17.7788392 C47.6237194,23.1386241 47.9974972,33.3948646 48.4639139,36.7219025 C48.9303306,40.048143 47.9966917,49.750143 47.9966917,49.750143 C47.9966917,49.750143 40.809525,48.1791304 33.0624972,49.6584342 C25.3146639,51.136143 8.42135833,51.136143 8.141025,49.750143" id="Fill-2" fill="#7C716B"></path>
            <path d="M7.76740833,53.1689696 L8.233825,50.7669949 C8.233825,50.7669949 23.0761861,50.7661975 28.5821583,49.7502228 C34.0889361,48.7334506 42.7696028,47.9949949 45.2901861,48.8267544 C47.8099639,49.6585139 48.369825,51.7837671 48.369825,51.7837671 C48.369825,51.7837671 45.382825,56.7735266 38.9424083,56.9577418 C32.5019917,57.141957 21.4884361,55.3867291 19.6219639,55.5717418 C17.7546861,55.7567544 7.39443611,55.1100076 7.76740833,53.1689696" id="Fill-4" fill="#FEFEFE"></path>
            <path d="M31.7562889,3.27193291 L41.2763444,3.91947722 L42.8632889,29.791743 L37.66665,23.9654392 C37.66665,23.9654392 32.5835944,28.8100595 32.5562056,28.6497684 C32.5296222,28.4894772 28.8192333,9.53285696 31.7562889,3.27193291" id="Fill-6" fill="#EA5745"></path>
            <path d="M47.164875,48.0375797 C42.8857639,46.1412 37.5795694,47.5702633 33.1337083,48.1587949 C25.3560694,49.1899215 17.4229583,49.7481494 9.61793056,48.686719 C9.580875,47.666757 9.54059722,46.6475924 9.50515278,45.6284278 C9.51320833,45.623643 9.52045833,45.6172633 9.52851389,45.6124785 C10.0029861,45.5183772 10.4774583,45.3947696 10.9527361,45.2280987 C12.1715417,44.7998582 12.2408194,43.1379342 10.9825417,42.7128835 C10.8157917,42.4951747 10.5709028,42.3197316 10.2301528,42.2312127 C10.1955139,42.2224405 10.160875,42.2176557 10.1270417,42.2088835 C10.4710139,41.7256177 10.2720417,40.9385165 9.47615278,40.8954532 C9.43023611,40.8930608 9.38593056,40.8962506 9.34001389,40.8938582 C9.25301389,38.2598203 9.167625,35.6257823 9.08948611,32.9909468 C9.95948611,32.9734025 10.835125,32.8537823 11.7027083,32.6057696 C12.7209306,32.3146937 13.1051806,30.7093899 12.0184861,30.2117696 C11.8154861,30.1192633 11.6092639,30.0347316 11.4022361,29.9533899 C11.3853194,29.912719 11.3667917,29.8720481 11.3418194,29.8337696 C11.3240972,29.4796937 11.1509028,29.1224278 10.8077361,28.8736177 C10.5539861,28.6878076 10.2905694,28.5291114 10.023125,28.3847696 C10.0682361,27.9892253 9.88618056,27.5880987 9.35451389,27.4636937 C9.21193056,27.4302 9.06934722,27.3983013 8.928375,27.3664025 C8.83493056,24.016238 8.747125,20.6660734 8.66173611,17.3151114 C9.30779167,17.2457316 9.95304167,17.1635924 10.5942639,17.0758709 C12.038625,16.8780987 11.7889028,14.792719 10.5942639,14.4314658 C10.3799861,14.3668709 10.1640972,14.3134405 9.94901389,14.2592127 C9.86201389,13.8533013 9.58168056,13.5079975 9.06531944,13.4226684 C8.89776389,13.394757 8.73101389,13.3748203 8.56426389,13.3540861 C8.49659722,10.6092 8.428125,7.86431392 8.36206944,5.11942785 C11.0614861,2.28044051 16.9500972,2.99895949 20.4131806,3.14330127 C23.711125,3.28046582 26.9961806,3.65687089 30.2764028,4.04922532 C28.9230694,12.6459342 29.9130972,21.2944785 31.0610139,29.8584911 C31.1890972,30.8178456 32.4441528,31.7269595 33.2569583,30.7596304 C34.687625,29.0594278 36.1062083,27.3488582 37.5344583,25.6462633 C39.1133472,27.6064405 40.9637083,29.3377443 42.0415417,31.6543899 C42.6304028,32.9207696 44.5879028,32.2405291 44.5862917,30.9725544 C44.5750139,22.2027949 43.5374583,13.5135797 42.7770139,4.78927595 C46.6452917,5.06201013 47.0754583,8.62190886 47.1278194,12.1937696 C47.2099861,17.7329848 46.0403194,23.1477949 46.4922361,28.6981747 C46.903875,33.7397696 47.4597083,38.7590354 47.4379583,43.8245544 C47.4315139,45.2344785 47.3565972,46.6452 47.164875,48.0375797 M46.4124861,51.4332 C46.3504583,51.6269848 46.2771528,51.8088076 46.1990139,51.9826557 C41.0088194,50.9307949 35.3522083,52.2761241 30.163625,52.5448709 C26.6562361,52.7266937 23.1569028,52.4435924 19.6559583,52.1421494 C22.6461806,52.1748456 25.646875,52.0360861 28.6693194,51.7793013 C33.6992083,51.3534532 41.8522361,48.5455671 46.4712917,51.2314405 C46.4503472,51.2984278 46.4342361,51.3662127 46.4124861,51.4332 M40.1098194,55.2076177 C34.1084306,55.9365038 27.8694028,54.8511494 21.898625,54.2674025 C18.9172639,53.9755291 11.9508194,55.3208582 9.747625,52.6756557 C9.75165278,52.6174405 9.76051389,52.5624152 9.75729167,52.5002127 C9.75729167,52.4850608 9.75648611,52.4707063 9.75648611,52.454757 C16.1252083,52.5560354 22.4367361,53.5345291 28.8062639,53.6366051 C34.4185694,53.726719 39.7038194,53.0209595 45.2339583,53.3566937 C43.9563472,54.5895797 42.0286528,54.974757 40.1098194,55.2076177 M9.71379167,51.2944405 C10.4702083,51.4236304 11.2274306,51.5344785 11.9830417,51.6317696 C11.2314583,51.6118329 10.4790694,51.6158203 9.72506944,51.6301747 C9.72184722,51.5177316 9.71781944,51.4068835 9.71379167,51.2944405 M32.1928194,4.27809873 C33.2988472,4.41047848 34.4040694,4.53966835 35.5100972,4.65769367 C37.0044028,4.81718734 38.4697083,4.85706076 39.9495139,4.83632658 C40.5794583,12.0566051 41.3874306,19.2633266 41.7136806,26.5027443 C40.6865972,25.339238 39.6111806,24.2092253 38.7274861,22.8942 C38.2989306,22.2578203 37.2372083,21.9484025 36.6709028,22.6326304 C35.5189583,24.0218203 34.3694306,25.4126051 33.2190972,26.8033899 C32.2282639,19.3438709 31.468625,11.7822759 32.1928194,4.27809873 M49.4969583,30.2269215 C48.8509028,23.1366304 50.5482083,16.1117316 49.789375,9.06051646 C49.5017917,6.38660506 48.3506528,3.55559241 45.7277639,2.42079494 C43.2087917,1.3306557 39.9769028,2.23259241 37.3080972,2.07070633 C31.0690694,1.69430127 24.9283194,0.604959494 18.6570694,0.563491139 C15.5862917,0.542756962 9.435875,0.735744304 7.64431944,3.97745316 C6.98859722,3.74459241 6.11376389,4.08192152 6.093625,4.99023797 C6.03401389,7.61709873 6.00179167,10.244757 5.98245833,12.8724152 C5.15031944,12.7599722 4.30368056,12.8149975 3.48765278,13.0478582 C3.25404167,13.0757696 3.02284722,13.0909215 2.78601389,13.1315924 C2.43479167,13.1945924 2.20843056,13.3979468 2.07470833,13.6539342 C1.70173611,13.8692506 1.34326389,14.1228456 1.00654167,14.4218962 C0.392708333,14.9665671 0.493402778,16.204238 1.28445833,16.5559215 C2.39773611,17.0527443 3.54645833,17.3103266 4.71290278,17.4155924 C5.13179167,17.4889595 5.54826389,17.513681 5.96393056,17.5080987 C5.96554167,20.7139215 6.00179167,23.9197443 6.05576389,27.1255671 C5.49670833,27.2108962 4.96343056,27.4118582 4.46398611,27.7786937 C3.78651389,27.9326051 3.11951389,28.1543013 2.48070833,28.4358076 C2.040875,28.6295924 1.85479167,29.1064785 1.88943056,29.5666177 C1.04843056,30.1982127 1.33843056,31.6033519 2.36873611,31.889643 C2.68693056,31.978162 3.00915278,32.0563139 3.33218056,32.1217063 C3.41595833,32.5459595 3.69306944,32.9072127 4.24406944,32.9989215 C4.919125,33.1089722 5.56115278,33.1456557 6.18384722,33.1193392 C6.25473611,35.8410987 6.34495833,38.5628582 6.44726389,41.2838203 C5.99856944,41.4465038 5.57968056,41.656238 5.20751389,41.9385418 C5.06493056,41.9632633 4.92154167,41.9847949 4.78459722,42.0158962 C4.30931944,42.1251494 3.81309722,42.3787443 3.43931944,42.7384025 C3.08890278,42.8572253 2.74170833,42.9927949 2.40095833,43.1451114 C1.88620833,43.3747823 1.67515278,43.9633139 1.73879167,44.5095797 C1.61070833,45.0606304 1.75570833,45.6427823 2.38323611,45.9242886 C3.82598611,46.5710354 5.27356944,46.8070861 6.67604167,46.6268582 C6.73968056,48.043162 6.79445833,49.4594658 6.86534722,50.8749722 C5.09795833,56.3487949 12.7048194,56.965238 16.3918472,56.9357316 C23.682125,56.8791114 30.874125,58.3448582 38.1805139,58.1574532 C42.7238472,58.0418203 46.4358472,56.9915544 48.4642361,53.5576557 C48.6793194,53.4476051 48.7929028,53.2211241 48.7574583,53.0034152 C49.0837083,52.3550734 49.3624306,51.6405418 49.5759028,50.8327063 C51.3142917,44.2823013 50.101125,36.854681 49.4969583,30.2269215" id="Fill-8" fill="#020303"></path>
        </g>
    </g>
</svg>