<?xml version="1.0" encoding="UTF-8"?>
<svg width="10px" height="14px" viewBox="0 0 10 14" version="1.1" xmlns="http://www.w3.org/2000/svg" xmlns:xlink="http://www.w3.org/1999/xlink">
    <!-- Generator: sketchtool 48.2 (47327) - http://www.bohemiancoding.com/sketch -->
    <title>4318332E-7A8C-4459-A395-7475EF05C572</title>
    <desc>Created with sketchtool.</desc>
    <defs></defs>
    <g id="PostAJob2" stroke="none" stroke-width="1" fill="none" fill-rule="evenodd" transform="translate(-231.000000, -839.000000)">
        <g id="Group-Copy-5" transform="translate(204.000000, 827.000000)" fill="#FFFFFF">
            <g id="lock" transform="translate(27.000000, 12.000000)">
                <path d="M5,0.138888889 C2.92888889,0.138888889 1.25,1.81777778 1.25,3.88888889 L1.25,5.13888889 L3.33333333,5.13888889 L3.33333333,3.88888889 C3.33333333,2.96866667 4.07977778,2.22222222 5,2.22222222 C5.92022222,2.22222222 6.66666667,2.96866667 6.66666667,3.88888889 L6.66666667,5.13888889 L8.75,5.13888889 L8.75,3.88888889 C8.75,1.81777778 7.07111111,0.138888889 5,0.138888889 Z" id="Fill-1"></path>
                <path d="M8.71177778,5.55555556 L1.28822222,5.55555556 C0.618888889,5.55555556 0.0764444444,6.098 0.0764444444,6.76733333 L0.0764444444,12.6762222 C0.0764444444,13.3455556 0.618888889,13.888 1.28822222,13.888 L8.71266667,13.888 C9.382,13.888 9.92444444,13.3455556 9.92444444,12.6762222 L9.92444444,6.76733333 C9.92444444,6.098 9.382,5.55555556 8.71177778,5.55555556 Z M5.76044444,9.85422222 L5.76044444,11.8055556 L4.23866667,11.8055556 L4.23866667,9.85422222 C3.894,9.61377778 3.66844444,9.21444444 3.66844444,8.76222222 C3.66844444,8.02688889 4.26466667,7.43066667 5,7.43066667 C5.73533333,7.43066667 6.33155556,8.02688889 6.33155556,8.76222222 C6.33155556,9.21444444 6.106,9.61377778 5.76044444,9.85422222 Z" id="Fill-2"></path>
            </g>
        </g>
    </g>
</svg>