<?xml version="1.0" encoding="UTF-8"?>
<svg width="259px" height="74px" viewBox="0 0 259 74" version="1.1" xmlns="http://www.w3.org/2000/svg" xmlns:xlink="http://www.w3.org/1999/xlink">
    <!-- Generator: sketchtool 48.2 (47327) - http://www.bohemiancoding.com/sketch -->
    <title>C5E9338B-9863-4F8E-820E-E14ACD83E045</title>
    <desc>Created with sketchtool.</desc>
    <defs>
        <polygon id="path-1" points="0.707148437 0.048 19.2628743 0.048 19.2628743 30.4064387 0.707148437 30.4064387"></polygon>
    </defs>
    <g id="Homepage-Copy-7" stroke="none" stroke-width="1" fill="none" fill-rule="evenodd" transform="translate(-136.000000, 0.000000)">
        <g id="logo" transform="translate(136.000000, -5.000000)">
            <path d="M0,0 L0,79 C0,79 125.569832,59.8406246 257.083799,73.1048076 C257.083799,73.1048076 246.681564,0 266,0 L0,0 Z" id="Page-1" fill="#F26330"></path>
            <g id="Page-1" transform="translate(24.000000, 19.000000)">
                <path d="M0.276,11.3088 C0.053,12.0288 -0.092,12.7978 0.068,13.5348 C0.227,14.2708 0.752,14.9658 1.484,15.1438 C1.653,15.1848 1.838,15.1958 1.994,15.1178 C2.185,15.0218 2.288,14.8138 2.387,14.6238 C3.172,13.1238 4.464,11.9628 5.73,10.8378 C6.72,9.9558 7.744,9.0548 8.993,8.6098 C10.813,7.9608 12.826,8.3738 14.694,8.8708 C15.614,9.1158 16.544,9.3858 17.351,9.8918 C18.273,10.4698 18.989,11.3298 19.563,12.2548 C21.279,15.0168 21.797,18.5808 20.593,21.6018 C19.39,24.6238 16.362,26.9278 13.11,26.9428 C12.843,26.9438 12.552,26.9208 12.356,26.7398 C12.205,26.5988 12.141,26.3888 12.096,26.1858 C11.817,24.9308 12.025,23.6238 12.202,22.3498 C12.595,19.5248 12.835,16.6778 12.918,13.8268 C12.938,13.1158 12.947,12.3898 12.729,11.7128 C12.51,11.0368 12.022,10.4068 11.34,10.2048 C10.684,10.0098 9.985,10.2338 9.338,10.4548 C7.754,10.9968 6.069,11.6118 5.085,12.9648 C4.838,13.3038 4.638,13.7238 4.739,14.1298 C4.801,14.3788 4.967,14.5848 5.109,14.7988 C5.83,15.8788 5.977,17.2438 5.922,18.5418 C5.867,19.8388 5.631,21.1288 5.669,22.4268 C5.704,23.6518 5.982,24.8588 6.017,26.0828 C6.052,27.3078 5.801,28.6168 4.951,29.4968 C4.636,29.8218 4.211,30.2278 4.399,30.6388 C4.553,30.9758 5.006,31.0168 5.377,31.0088 C7.331,30.9678 9.285,30.9278 11.239,30.8868 C14.752,30.8138 18.435,30.6958 21.479,28.9418 C24,27.4898 25.844,24.9918 26.736,22.2228 C27.627,19.4548 27.604,16.4348 26.922,13.6068 C26.664,12.5338 26.309,11.4748 25.764,10.5138 C24.704,8.6468 22.961,7.2328 21.037,6.2788 C19.113,5.3248 17.006,4.7998 14.896,4.4018 C11.736,3.8058 8.599,3.3988 5.658,4.9468 C3.14,6.2708 1.119,8.5778 0.276,11.3088" id="Fill-1" fill="#FEFEFE"></path>
                <path d="M36.858,27.7541 C36.818,27.8871 36.726,27.9921 36.63,28.0811 C35.948,28.7101 34.967,28.7191 34.085,28.5871 C33.879,28.5561 33.671,28.5181 33.481,28.4251 C32.85,28.1161 32.556,27.2851 32.483,26.5201 C32.418,25.8291 32.479,25.1261 32.663,24.4671 C32.891,23.6501 33.337,22.8751 34.013,22.4831 C36.6,20.9881 36.82,25.6731 36.883,27.4181 C36.888,27.5311 36.89,27.6481 36.858,27.7541 M43.892,31.8401 C43.559,31.1541 42.893,30.6961 42.436,30.0861 C41.821,29.2631 41.617,28.2131 41.426,27.2041 C40.595,22.7941 39.66,18.2171 37.11,14.4341 C36.448,13.4511 35.894,12.5211 34.689,12.1521 C33.833,11.8901 32.916,11.9131 32.023,11.9841 C30.776,12.0831 30.161,12.2091 29.366,13.1741 C28.13,14.6731 28.513,18.1981 29.284,18.4741 C30.046,18.7471 31.131,18.9131 31.392,18.1461 C31.557,17.6601 31.333,16.4401 31.584,15.9931 C31.903,15.4231 32.678,15.2121 33.297,15.4221 C33.916,15.6311 34.374,16.1811 34.617,16.7881 C34.859,17.3941 34.914,18.0581 34.94,18.7101 C34.951,18.9821 34.954,19.2691 34.825,19.5081 C34.628,19.8781 34.17,20.0321 33.75,20.0361 C33.331,20.0411 32.918,19.9301 32.499,19.9211 C31.653,19.9041 30.837,20.3121 30.226,20.8981 C29.616,21.4831 29.188,22.2341 28.839,23.0051 C28.357,24.0731 28.005,25.2171 27.972,26.3891 C27.943,27.4611 28.181,28.5251 28.518,29.5431 C28.752,30.2451 29.043,30.9491 29.55,31.4861 C30.422,32.4081 31.826,32.6891 33.068,32.4361 C34.311,32.1841 35.414,31.4661 36.375,30.6391 C36.519,30.5141 36.671,30.3821 36.859,30.3511 C37.213,30.2921 37.521,30.6171 37.648,30.9531 C37.776,31.2881 37.799,31.6621 37.971,31.9771 C38.415,32.7881 39.547,32.8201 40.469,32.7461 C41.509,32.6621 42.548,32.5781 43.588,32.4941 C43.685,32.4861 43.788,32.4761 43.865,32.4181 C44.031,32.2911 43.984,32.0291 43.892,31.8401" id="Fill-3" fill="#FEFEFE"></path>
                <path d="M43.734,14.9235 C43.522,14.3715 43.326,13.7735 42.868,13.4005 C42.374,12.9985 41.681,12.9485 41.046,13.0075 C40.474,13.0615 39.871,13.2105 39.481,13.6335 C39.018,14.1375 38.98,14.9205 39.194,15.5695 C39.409,16.2195 39.835,16.7745 40.231,17.3325 C42.025,19.8585 43.343,22.7195 44.099,25.7235 C44.368,26.7955 44.571,27.8965 45.061,28.8865 C45.291,29.3515 45.705,29.8445 46.216,29.7615 C46.465,29.7205 46.669,29.5495 46.871,29.4005 C47.948,28.6065 49.399,28.2175 50.088,27.0705 C50.855,25.7965 50.346,24.1805 50.297,22.6945 C50.257,21.5135 50.532,20.3235 51.086,19.2805 C51.506,18.4865 52.083,17.7785 52.461,16.9645 C52.838,16.1485 52.994,15.1525 52.549,14.3725 C52.143,13.6585 51.322,13.2775 50.515,13.1315 C49.686,12.9805 48.785,13.0445 48.073,13.4945 C47.361,13.9435 46.897,14.8375 47.114,15.6515 C47.351,16.5405 48.284,17.1055 48.552,17.9865 C48.71,18.4985 48.016,20.9255 47.419,21.2005 C46.86,21.4575 46.344,20.2995 45.944,19.8675 C44.665,18.4845 44.414,16.6965 43.734,14.9235" id="Fill-5" fill="#FEFEFE"></path>
                <path d="M58.1276,16.4811 C59.3776,14.2841 61.4916,12.0481 62.7526,14.7011 C63.0636,15.3551 62.4606,17.5761 60.4616,18.9141 C59.8976,19.2921 58.1156,19.9791 57.5236,19.4311 C56.8966,18.8521 57.7666,17.1151 58.1276,16.4811 M65.3286,21.4811 C64.4166,22.2361 63.7506,23.2411 62.9686,24.1301 C62.1866,25.0201 61.2076,25.8341 60.0346,25.9971 C59.0046,26.1401 57.9136,25.7221 57.2416,24.9281 C56.5696,24.1341 56.3386,22.9891 56.6486,21.9971 C56.6316,22.0551 58.2746,22.6431 58.4826,22.6801 C59.3436,22.8311 60.2486,22.5871 60.9926,22.1551 C61.9226,21.6171 62.6556,20.8031 63.3496,19.9831 C64.4966,18.6281 65.6106,17.1501 65.9616,15.4101 C66.3126,13.6691 65.6736,11.6091 64.0726,10.8411 C63.4046,10.5211 62.6476,10.4521 61.9086,10.3951 C60.5746,10.2921 59.1446,10.2311 57.9986,10.9221 C57.5016,11.2211 57.0936,11.6441 56.6996,12.0711 C54.8166,14.1141 53.1186,16.4271 52.3776,19.1051 C51.6366,21.7831 51.9926,24.8871 53.8376,26.9651 C55.3676,28.6901 57.7676,29.5151 60.0696,29.3911 C60.9026,29.3461 61.7396,29.1831 62.4826,28.8041 C63.9426,28.0611 64.8746,26.5871 65.6066,25.1221 C65.9106,24.5131 66.1986,23.8731 66.2216,23.1921 C66.2436,22.5121 65.9396,21.7791 65.3286,21.4811" id="Fill-7" fill="#FEFEFE"></path>
                <path d="M70.0377,10.6222 C70.8127,10.1232 71.4577,9.3882 71.7347,8.5082 C72.0727,7.4362 71.8407,6.2552 71.3797,5.2292 C71.1837,4.7902 70.9407,4.3642 70.5947,4.0302 C69.7327,3.2012 68.2777,3.1242 67.2857,3.7922 C66.2947,4.4592 65.8157,5.7732 66.0637,6.9422 C66.3447,8.2662 67.4417,9.4592 67.1747,10.7862 C66.8547,12.3692 69.3777,11.0462 70.0377,10.6222" id="Fill-9" fill="#FEFEFE"></path>
                <path d="M74.8024,15.8317 C75.0534,16.3267 74.8944,16.9167 74.8364,17.4687 C74.7784,18.0207 74.9164,18.7047 75.4434,18.8817 C75.9984,19.0677 76.5284,18.5517 76.8534,18.0637 C77.8554,16.5647 78.4654,14.8077 78.6104,13.0107 C78.6404,12.6237 78.6444,12.2117 78.4464,11.8797 C78.2224,11.5037 77.7894,11.3107 77.3734,11.1777 C74.3914,10.2267 70.8534,11.4417 69.0834,14.0247 C68.5554,14.7967 68.1794,15.6627 67.8384,16.5347 C67.5634,17.2377 67.3054,17.9687 67.3154,18.7247 C67.3274,19.8307 67.9284,20.8737 68.7574,21.6077 C69.5864,22.3407 70.6254,22.7957 71.6824,23.1237 C72.6194,23.4147 73.6334,23.6437 74.3344,24.3297 C75.1064,25.0857 75.3304,26.2697 75.1634,27.3377 C75.0114,28.3067 74.5344,29.2647 73.7124,29.7987 C72.8904,30.3327 71.6974,30.3367 70.9894,29.6567 C70.2834,28.9757 70.3324,27.6167 71.1794,27.1217 C71.6804,26.8287 72.4014,26.8077 72.6664,26.2917 C72.8414,25.9517 72.7254,25.5287 72.5184,25.2067 C71.8294,24.1357 70.2754,23.8837 69.1024,24.3807 C67.9294,24.8767 67.0954,25.9477 66.4984,27.0727 C66.2814,27.4837 66.0844,27.9157 66.0224,28.3767 C65.8804,29.4067 66.4294,30.4247 67.1684,31.1557 C68.8134,32.7857 71.4054,33.2657 73.6264,32.6137 C75.8474,31.9607 77.6874,30.2897 78.8364,28.2807 C79.4574,27.1937 79.9024,25.9757 79.9034,24.7237 C79.9044,23.4707 79.4184,22.1837 78.4464,21.3947 C77.6154,20.7217 76.5354,20.4677 75.5084,20.1747 C74.4814,19.8827 73.4104,19.4937 72.7464,18.6567 C71.3614,16.9097 73.8934,14.0387 74.8024,15.8317" id="Fill-11" fill="#FEFEFE"></path>
                <path d="M95.4479,7.7609 C96.5239,6.9259 97.2939,6.6509 98.5299,6.5729 C99.3109,6.5229 100.2899,6.5089 100.9069,6.9899 C101.5239,7.4729 101.8579,7.7919 101.6739,8.5539 C101.4889,9.3149 100.6729,9.9069 99.9099,9.7259 C99.7549,9.6889 99.5979,9.6229 99.4399,9.6489 C99.1169,9.7029 98.9779,10.1079 99.0239,10.4329 C99.1479,11.3009 100.0509,11.8359 100.9019,12.0439 C102.5039,12.4339 104.2679,12.0949 105.6109,11.1379 C106.9529,10.1809 107.8489,8.6239 108.0029,6.9819 C108.0599,6.3579 108.0109,5.7079 107.7409,5.1419 C107.3679,4.3609 106.6059,3.8189 105.7889,3.5339 C104.9699,3.2499 104.0939,3.1949 103.2269,3.1669 C99.0909,3.0359 94.7349,3.5619 91.3469,5.9399 C89.7119,7.0879 88.2399,8.6859 86.2639,8.9869 C86.6189,9.9099 87.9019,10.0679 88.5159,10.8439 C88.7289,11.1129 88.8489,11.4429 88.9429,11.7729 C89.4009,13.3919 89.2859,15.1109 89.1669,16.7889 C88.9469,19.9069 88.7259,23.0249 88.5059,26.1419 C88.4639,26.7369 88.4149,27.3529 88.1249,27.8739 C87.6869,28.6599 86.8009,29.0629 85.9729,29.4149 C86.8019,30.0849 87.9859,29.9979 89.0469,29.8999 C93.5679,29.4829 98.1289,29.4929 102.6469,29.9299 C103.3219,29.9959 104.0529,30.0579 104.6299,29.7009 C105.4259,29.2079 105.5949,28.1379 105.6559,27.2029 C105.7339,26.0139 105.7639,24.8229 105.7479,23.6319 C105.7319,22.5389 105.6469,21.3639 104.9579,20.5149 C104.1419,19.8439 104.1589,23.3719 102.2389,25.4709 C101.8799,25.8639 101.3459,26.2299 100.8829,26.4919 C100.3399,26.7989 99.6839,26.8039 99.0609,26.8019 C98.1979,26.7989 97.3239,26.7949 96.4859,26.5869 C95.6479,26.3779 94.8359,25.9429 94.3429,25.2339 C93.9089,24.6109 93.7579,23.8389 93.6679,23.0859 C93.5629,22.2239 93.5279,21.3349 93.7659,20.4999 C94.0059,19.6649 94.7039,19.2069 95.5029,18.8669 C96.3019,18.5269 97.3949,18.7879 97.8799,19.5089 C98.2069,19.9939 98.6729,21.9709 99.4509,21.8539 C100.1469,21.7489 100.4289,20.8969 100.3979,20.1929 C100.3589,19.3499 99.4829,15.1329 99.1019,13.8379 C98.9269,13.2449 98.5309,12.5099 97.9269,12.6429 C97.5799,12.7189 97.3719,13.0659 97.2039,13.3789 C96.8819,13.9799 96.1679,14.6059 95.5909,14.9699 C95.0129,15.3339 94.1379,15.3209 93.7509,14.7599 C93.5449,14.4609 93.5149,14.0779 93.5039,13.7149 C93.4669,12.5069 93.4429,11.0459 93.8159,9.8829 C94.0769,9.0729 94.7539,8.2999 95.4479,7.7609" id="Fill-13" fill="#FEFEFE"></path>
                <g id="Group-17" transform="translate(106.000000, 0.951900)">
                    <mask id="mask-2" fill="white">
                        <use xlink:href="#path-1"></use>
                    </mask>
                    <g id="Clip-16"></g>
                    <path d="M11.2858,5.3363 C12.1158,5.2413 13.0388,5.5433 13.4728,6.2563 C14.1228,7.3263 13.5608,8.9913 14.5468,9.7633 C14.7608,9.9313 15.0768,10.0233 15.3008,9.8683 C15.4688,9.7533 15.5308,9.5393 15.5978,9.3473 C16.0118,8.1683 16.9838,7.2893 17.7138,6.2743 C18.4438,5.2593 18.9308,3.8473 18.2658,2.7883 C17.8348,2.0993 17.0338,1.7533 16.2808,1.4463 C14.6078,0.7633 12.8848,0.0703 11.0768,0.0483 C10.4868,0.0413 9.8888,0.1093 9.3438,0.3333 C8.8178,0.5483 7.3268,1.2943 6.8978,1.6653 C4.4698,3.7693 3.3588,5.5803 3.2108,8.7903 C3.1758,9.5423 3.6108,11.1063 3.8908,11.8043 C4.4058,13.0893 5.6108,13.9713 6.8558,14.5773 C8.1018,15.1833 9.4458,15.5863 10.6358,16.2973 C12.5768,17.4583 14.0448,19.5563 14.0448,21.8183 C14.0438,24.0803 12.3168,26.3363 10.0658,26.5613 C9.3088,26.6363 8.5418,26.4943 7.8238,26.2433 C6.9718,25.9453 6.1488,25.4733 5.6248,24.7393 C5.0998,24.0053 4.9308,22.9753 5.3698,22.1873 C5.8088,21.3993 6.9308,21.0133 7.6838,21.5093 C8.2878,21.9063 8.5728,22.7453 9.2648,22.9543 C9.9628,23.1653 10.7028,22.5443 10.8508,21.8303 C10.9998,21.1163 10.7108,20.3833 10.3398,19.7553 C9.6628,18.6113 8.6218,17.6063 7.3228,17.3233 C6.0148,17.0393 4.6238,17.5383 3.5988,18.3993 C2.5728,19.2593 1.8708,20.4433 1.3218,21.6643 C1.0418,22.2863 0.7938,22.9343 0.7258,23.6133 C0.5548,25.3393 1.5818,26.9903 2.8958,28.1223 C5.7128,30.5463 10.0228,31.1173 13.3528,29.4673 C18.2528,27.0403 19.0238,24.3343 19.2448,20.6243 C19.3108,19.5173 19.2028,18.3883 18.8088,17.3523 C17.8348,14.7853 15.3068,13.1733 12.8298,11.9913 C11.6278,11.4193 10.3538,10.8693 9.4968,9.8503 C7.8898,7.9413 8.8788,5.6113 11.2858,5.3363" id="Fill-15" fill="#FEFEFE" mask="url(#mask-2)"></path>
                </g>
                <path d="M128.0123,4.967 C127.3103,4.878 126.3433,4.911 126.2033,5.605 C126.0723,6.26 126.8503,6.673 127.3563,7.11 C128.4063,8.018 128.4563,9.6 128.4263,10.988 C128.3333,15.16 128.2413,19.333 128.1493,23.506 C128.1263,24.531 128.0673,25.653 127.3773,26.412 C127.0173,26.81 126.5233,27.058 126.1033,27.393 C125.6843,27.729 124.3213,28.179 124.3883,28.713 C125.7183,29.198 128.1673,29.229 129.5823,29.222 C134.1073,29.199 142.8543,30.219 143.1513,29.538 C144.2243,26.039 144.2913,22.237 143.3413,18.701 C143.2343,18.304 143.1053,17.893 142.8153,17.602 C142.0793,16.866 140.8393,17.281 139.9043,17.738 C139.8603,19.268 139.7873,20.797 139.6893,22.324 C139.6213,23.364 139.4543,24.558 138.5753,25.115 C137.8253,25.591 136.8583,25.408 135.9743,25.472 C135.5113,25.506 135.0163,25.606 134.6053,25.391 C134.0063,25.079 133.8943,24.286 133.8623,23.613 C133.6793,19.76 133.7423,15.896 134.0523,12.052 C134.0983,11.472 134.1563,10.874 134.4313,10.361 C134.9163,9.457 135.9543,9.015 136.6613,8.273 C137.2453,7.658 137.5933,6.823 137.6183,5.976 C137.6273,5.67 137.5923,5.35 137.4253,5.094 C137.0393,4.504 136.1863,4.512 135.4853,4.589 C133.0043,4.857 130.5093,5.284 128.0123,4.967" id="Fill-18" fill="#FEFEFE"></path>
                <path d="M152.6618,8.6247 C154.6978,5.1927 159.0478,3.3117 162.9418,4.1777 C163.9608,4.4047 164.9568,4.8077 165.7598,5.4737 C167.2228,6.6867 167.8828,8.6037 168.3158,10.4537 C168.5788,11.5747 168.7818,12.7577 168.4688,13.8657 C168.2578,14.6107 167.8198,15.2787 167.2818,15.8357 C166.1318,17.0247 164.4718,17.7257 162.8198,17.6347 C161.1688,17.5437 159.5648,16.6337 158.7108,15.2177 C158.1178,14.2337 157.9368,12.8627 158.6938,11.9997 C158.9278,11.7327 159.2608,11.5267 159.6138,11.5407 C160.4348,11.5737 160.7438,12.5937 161.0408,13.3587 C161.3628,14.1907 162.2188,15.0217 163.0378,14.6717 C163.2798,14.5677 163.4728,14.3737 163.6298,14.1617 C164.5058,12.9847 164.3398,11.2067 163.3808,10.0967 C162.4218,8.9867 160.8098,8.5497 159.3748,8.8487 C157.9378,9.1477 156.6908,10.1127 155.8748,11.3317 C155.0578,12.5507 154.6428,14.0047 154.4908,15.4637 C154.2708,17.5737 154.5838,19.7377 155.3918,21.6997 C155.7518,22.5737 156.2218,23.4237 156.9138,24.0667 C158.2088,25.2697 160.1778,25.5877 161.8788,25.1097 C163.5798,24.6317 165.0188,23.4417 166.0598,22.0147 C166.1918,21.8327 166.3408,21.6327 166.5598,21.5877 C166.9318,21.5127 167.2168,21.9137 167.3418,22.2717 C167.9588,24.0437 167.2708,26.1127 165.9038,27.3977 C164.5368,28.6847 162.6008,29.2487 160.7248,29.2287 C157.9218,29.2007 155.1878,27.9317 153.2178,25.9377 C151.2478,23.9447 150.0258,21.2677 149.6208,18.4937 C149.0228,14.4157 150.3448,9.9007 153.6308,7.4117" id="Fill-20" fill="#FEFEFE"></path>
                <path d="M177.3844,25.8049 C177.2734,26.0359 177.0064,26.1599 176.7544,26.2529 C175.8914,26.5719 174.8814,26.8859 174.0324,26.5339 C171.3984,25.4419 172.8614,22.2679 173.3314,21.8669 C173.8024,21.4669 174.4274,21.2079 175.0624,21.2299 C175.9034,21.2589 176.9334,21.6539 177.1064,22.4549 C177.3134,23.4089 177.4264,24.3819 177.4474,25.3549 C177.4514,25.5079 177.4514,25.6659 177.3844,25.8049 M181.3494,27.1799 C180.9864,25.4149 181.2634,23.5869 181.1804,21.7869 C181.0904,19.8589 180.5834,17.9639 180.5404,16.0329 C180.5184,15.0469 180.6144,14.0409 180.3634,13.0869 C179.3684,9.2939 174.3154,9.2199 171.4554,10.7019 C170.7754,11.0549 170.0964,11.5739 169.9324,12.3229 C169.8274,12.7989 169.9504,13.2909 170.0624,13.7649 C170.2064,14.3759 170.3374,14.9979 170.6174,15.5589 C170.8984,16.1199 171.3534,16.6249 171.9504,16.8149 C172.5484,17.0049 173.2904,16.8029 173.5964,16.2549 C173.9704,15.5839 173.6264,14.6419 174.1084,14.0439 C174.5354,13.5129 175.4314,13.5929 175.9294,14.0589 C176.4264,14.5259 176.5994,15.2419 176.6474,15.9229 C176.6874,16.4829 176.6564,17.0479 176.5594,17.6009 C176.5164,17.8389 176.4364,18.1089 176.2134,18.2059 C176.0514,18.2769 175.8634,18.2309 175.6924,18.1889 C173.8564,17.7379 171.7724,17.8839 170.2784,19.0419 C169.6484,19.5299 169.3984,19.8029 168.9554,20.4649 C167.9824,21.9219 168.2714,24.8869 168.4404,25.3879 C168.9274,26.8369 169.1694,27.7359 170.3764,28.6759 C171.0104,29.1689 171.7724,29.4819 172.5564,29.6559 C174.0834,29.9939 175.7894,29.7799 177.0184,28.8109 C176.9364,29.6119 177.6254,30.3279 178.3974,30.5589 C179.1674,30.7909 179.9954,30.6579 180.7884,30.5229 C180.9934,30.4889 181.2104,30.4489 181.3664,30.3109 C181.4844,30.2079 181.5534,30.0609 181.6024,29.9129 C181.8914,29.0319 181.5364,28.0879 181.3494,27.1799" id="Fill-22" fill="#FEFEFE"></path>
                <path d="M190.8043,7.882 C191.1263,8.285 191.6413,8.499 192.1553,8.549 C193.1923,8.647 194.2623,8.077 194.7593,7.161 C195.6083,5.597 194.5973,3.496 192.9903,2.732 C191.3823,1.967 189.4463,2.283 187.8313,3.032 C186.9503,3.44 186.1083,3.989 185.5413,4.777 C184.7023,5.944 184.5753,7.465 184.5443,8.901 C184.5103,10.486 184.5563,11.504 184.6833,13.083 C183.6123,13.358 182.4953,13.623 181.3943,13.534 C181.3253,14.169 181.3813,15.217 181.5593,15.831 C182.5333,15.945 183.5223,15.939 184.4933,15.812 C184.7683,19.258 184.6383,22.737 184.1073,26.153 C184.0493,26.526 183.9803,26.913 183.7543,27.215 C183.3773,27.72 182.5763,27.998 182.5883,28.629 C182.9823,29.227 183.8323,29.257 184.5483,29.224 C186.0753,29.152 187.6023,29.08 189.1293,29.007 C189.5993,28.986 190.1573,28.908 190.3653,28.486 C190.5593,28.09 190.3253,27.629 190.1173,27.239 C188.1613,23.563 188.3123,19.571 188.5113,15.412 C189.5903,15.429 190.6683,15.045 191.7473,15.061 C191.9733,15.064 192.2393,15.049 192.3653,14.861 C192.4543,14.726 192.4393,14.55 192.4193,14.39 C192.3743,14.013 192.3283,13.635 192.2833,13.257 C192.2633,13.086 192.2403,12.907 192.1413,12.765 C191.9263,12.457 191.4773,12.462 191.1023,12.485 C190.2943,12.532 189.4843,12.507 188.6813,12.408 C188.4653,12.382 188.2263,12.337 188.0973,12.161 C188.0043,12.033 187.9923,11.866 187.9843,11.708 C187.9443,10.97 187.9033,10.232 187.8633,9.493 C187.8243,8.776 187.7863,8.04 188.0063,7.356 C188.2253,6.672 188.7613,6.041 189.4693,5.923 C191.1133,5.65 190.1903,7.114 190.8043,7.882" id="Fill-24" fill="#FEFEFE"></path>
                <path d="M196.15,16.8698 C196.324,16.0608 196.577,15.2278 197.158,14.6408 C197.74,14.0528 198.74,13.8038 199.408,14.2908 C199.792,14.5708 200.001,15.0328 200.124,15.4918 C200.489,16.8498 200.22,18.3668 199.409,19.5158 C198.782,20.4058 195.712,22.4738 195.76,20.1908 C195.784,19.0748 195.915,17.9608 196.15,16.8698 M203.553,22.9808 C202.521,23.5778 201.88,24.6538 201.222,25.6478 C200.563,26.6418 199.76,27.6548 198.614,27.9828 C197.589,28.2748 196.409,27.9118 195.726,27.0928 C195.045,26.2738 194.899,25.0468 195.373,24.0908 C195.479,23.8778 197.086,24.2248 197.524,24.1228 C198.38,23.9248 199.169,23.4368 199.838,22.8798 C202.055,21.0368 203.551,18.3488 203.951,15.4938 C204.108,14.3728 204.091,13.1868 203.595,12.1708 C203.233,11.4288 202.631,10.8208 201.942,10.3668 C201.084,9.8018 200.059,9.4608 199.032,9.5098 C197.874,9.5638 196.775,10.1098 195.9,10.8708 C195.025,11.6318 194.352,12.5988 193.769,13.6018 C192.316,16.1018 191.359,18.9148 191.193,21.8018 C191.027,24.6878 191.676,27.6458 193.212,30.0958 C193.872,31.1498 194.732,32.1358 195.877,32.6238 C197.587,33.3518 199.646,32.8008 201.091,31.6308 C202.537,30.4618 203.462,28.7688 204.165,27.0478 C204.454,26.3408 204.715,25.5988 204.682,24.8358 C204.648,24.0728 204.255,23.2808 203.553,22.9808" id="Fill-26" fill="#FEFEFE"></path>
            </g>
        </g>
    </g>
</svg>