<?xml version="1.0" encoding="UTF-8"?>
<svg width="14px" height="19px" viewBox="0 0 14 19" version="1.1" xmlns="http://www.w3.org/2000/svg" xmlns:xlink="http://www.w3.org/1999/xlink">
    <!-- Generator: sketchtool 48.2 (47327) - http://www.bohemiancoding.com/sketch -->
    <title>30FEBFEF-49CD-4A47-97D4-F033164EBA7D</title>
    <desc>Created with sketchtool.</desc>
    <defs></defs>
    <g id="CreateAccount" stroke="none" stroke-width="1" fill="none" fill-rule="evenodd" transform="translate(-906.000000, -327.000000)">
        <path d="M915.581612,335.302223 C916.796021,334.473686 917.612693,333.101893 917.612693,331.532262 C917.612693,329.026605 915.536863,327 913.019431,327 C910.480212,327 908.426463,329.048393 908.426463,331.532262 C908.426463,333.100731 909.221054,334.473686 910.457249,335.302223 C907.83177,336.325693 906,338.809853 906,341.729779 L906,344.147992 L906.287337,344.344378 C907.832948,345.390798 910.328595,346 913,346 C915.671405,346 918.167052,345.389636 919.712663,344.344378 L920,344.147992 L920,341.729779 C919.997645,338.809853 918.165875,336.325693 915.581612,335.302223 Z M918.672835,343.451347 C917.32624,344.235436 915.228624,344.692701 912.998822,344.692701 C910.76902,344.692701 908.671405,344.235436 907.32481,343.451347 L907.32481,341.729779 C907.32481,338.636418 909.864028,336.130761 912.998822,336.130761 C916.134794,336.130761 918.672835,338.636418 918.672835,341.729779 L918.672835,343.451347 Z M912.998822,328.308462 C914.808807,328.308462 916.267275,329.767698 916.267275,331.533424 C916.267275,333.298278 914.808807,334.779013 912.998822,334.779013 C911.188838,334.779013 909.73037,333.319776 909.73037,331.55405 C909.73037,329.789196 911.188838,328.308462 912.998822,328.308462 Z" id="name-icon" fill="#2A2D34"></path>
    </g>
</svg>