<?xml version="1.0" encoding="UTF-8"?>
<svg width="17px" height="18px" viewBox="0 0 17 18" version="1.1" xmlns="http://www.w3.org/2000/svg" xmlns:xlink="http://www.w3.org/1999/xlink">
    <!-- Generator: sketchtool 48.2 (47327) - http://www.bohemiancoding.com/sketch -->
    <title>5555B0C3-9494-46C9-BCEB-56E7AC11505A</title>
    <desc>Created with sketchtool.</desc>
    <defs></defs>
    <g id="CreateAccount" stroke="none" stroke-width="1" fill="none" fill-rule="evenodd" transform="translate(-905.000000, -446.000000)">
        <path d="M916.73735,446 C913.835661,446 911.475779,448.332267 911.475779,451.2 C911.475779,452.345867 911.857311,453.402133 912.494905,454.2624 L905.237175,461.4344 C904.920942,461.746933 904.920942,462.253067 905.237175,462.5656 C905.395292,462.721867 905.601708,462.8 905.809472,462.8 C906.017237,462.8 906.223652,462.721867 906.381769,462.5656 L906.618945,462.3312 L908.070329,463.7656 C908.228446,463.921867 908.434861,464 908.642626,464 C908.85039,464 909.056806,463.921867 909.214923,463.7656 C909.531157,463.453067 909.531157,462.946933 909.214923,462.6344 L907.763539,461.2 L909.047362,459.9312 L910.498746,461.3656 C910.656863,461.521867 910.863279,461.6 911.071043,461.6 C911.278808,461.6 911.485223,461.521867 911.64334,461.3656 C911.959574,461.053067 911.959574,460.546933 911.64334,460.2344 L910.191956,458.8 L913.639769,455.3928 C914.510222,456.022933 915.578995,456.4 916.738429,456.4 C919.640118,456.4 922,454.067733 922,451.2 C922,448.332267 919.637959,446 916.73735,446 Z M916.73735,454.8 C914.728509,454.8 913.094724,453.184267 913.094724,451.2 C913.094724,449.215733 914.728509,447.6 916.73735,447.6 C918.746191,447.6 920.379976,449.215733 920.379976,451.2 C920.379976,453.184267 918.746191,454.8 916.73735,454.8 Z" id="password" fill="#2A2D34"></path>
    </g>
</svg>