<?xml version="1.0" encoding="UTF-8"?>
<svg width="38px" height="31px" viewBox="0 0 38 31" version="1.1" xmlns="http://www.w3.org/2000/svg" xmlns:xlink="http://www.w3.org/1999/xlink">
    <!-- Generator: sketchtool 48.2 (47327) - http://www.bohemiancoding.com/sketch -->
    <title>38D1F74F-CBDE-440B-9E7D-212E665361CA</title>
    <desc>Created with sketchtool.</desc>
    <defs></defs>
    <g id="PostAJob2" stroke="none" stroke-width="1" fill="none" fill-rule="evenodd" transform="translate(-141.000000, -146.000000)">
        <g id="payment-icon" transform="translate(141.000000, 146.000000)">
            <polygon id="Fill-1" fill="#82C3C3" points="1.0414 28.88595 1.1564 2.37195 26.4059 1.16395 35.6079 2.71645 36.0104 28.08095 33.5374 29.28895 5.7579 29.69095"></polygon>
            <polygon id="Fill-2" fill="#FFFFFF" points="4.55 25.77985 7.9435 25.77985 7.9435 21.46635 4.55 21.46635"></polygon>
            <g id="Group-11" transform="translate(0.000000, 0.064350)" fill="#1D1D1B">
                <path d="M35.2267,22.96125 C35.2047,24.47425 35.0377,26.01225 35.1632,27.51825 C33.6532,28.17875 31.8917,28.04475 30.2737,27.99575 C27.9582,27.92625 25.7457,27.80725 23.4242,27.94325 C16.2397,28.36325 9.1227,29.07875 1.9192,28.63325 C1.7452,23.77725 2.0027,18.91775 2.1222,14.06125 C6.6227,13.27725 11.4692,15.09175 15.9937,14.96375 C20.8462,14.82675 25.9407,14.76825 30.8607,14.12275 C31.7787,14.23475 32.7202,14.20075 33.6307,14.03975 C34.0427,14.06025 34.4567,14.06925 34.8727,14.06775 C34.9977,14.06725 35.1072,14.03025 35.2082,13.97875 C35.2222,14.70675 35.2367,15.43525 35.2477,16.16275 C35.2822,18.42975 35.2597,20.69525 35.2267,22.96125 M34.8217,3.34825 C34.9137,4.85175 34.9807,6.35775 35.0382,7.86425 C34.9852,7.85475 34.9312,7.84675 34.8727,7.84625 C29.2492,7.80075 23.6767,7.42275 18.0497,7.66475 C12.7672,7.89225 7.3327,8.22425 2.2367,6.54475 C2.1947,6.53075 2.1552,6.52425 2.1162,6.51725 C2.0747,5.41175 2.0117,4.30725 1.9177,3.20275 C12.8807,3.30475 23.9722,1.02625 34.8217,3.34825 M37.2647,16.16275 C37.1812,11.63275 36.8482,7.11775 36.6317,2.59375 C36.6127,2.19175 36.3647,1.79775 35.9517,1.70075 C24.6222,-0.95975 12.9882,1.35575 1.5392,1.65325 C1.5207,1.65425 1.5052,1.65825 1.4872,1.65975 C0.9997,1.32025 0.1862,1.50875 0.2422,2.26025 C0.5017,5.74975 0.4567,9.24025 0.3402,12.73025 C-0.1018,13.07575 -0.0638,13.74125 0.2922,14.09175 C0.1032,19.09325 -0.1723,24.09475 0.1447,29.09375 C0.1927,29.85075 0.9827,30.11025 1.4972,29.86325 C1.5107,29.86675 1.5222,29.87175 1.5367,29.87375 C9.7197,31.18275 17.9892,30.09075 26.2057,29.72325 C28.0412,29.64125 33.7017,30.90025 35.8692,29.40975 C36.1912,29.46825 36.5682,29.29475 36.6947,28.94075 C38.0452,25.16875 37.3382,20.12275 37.2647,16.16275" id="Fill-3"></path>
                <path d="M7.08095,24.31085 C6.93895,24.93935 6.65595,25.11435 6.28495,25.05935 C5.99645,24.79185 5.66245,24.65785 5.28845,24.58285 C5.27545,23.83585 5.21495,23.01935 5.52245,22.38435 C5.75395,21.90735 6.59045,21.99985 7.22495,22.12185 C7.25195,22.85635 7.24195,23.59835 7.08095,24.31085 M8.26445,20.60985 C7.04645,20.41485 5.26095,20.09185 4.37745,21.23435 C3.56645,22.28285 3.69495,24.01785 3.80495,25.25985 C3.79195,25.54585 3.91195,25.74185 4.08695,25.85435 C4.15695,25.99785 4.26345,26.12385 4.41495,26.20985 C5.77195,26.97635 7.40295,27.29485 8.37645,25.80935 C9.16845,24.60085 8.99945,22.78885 8.88645,21.42635 C8.85795,21.07985 8.65245,20.67185 8.26445,20.60985" id="Fill-5"></path>
                <path d="M20.2411,21.9061 C23.2201,21.6551 26.2031,21.4101 29.1386,22.1071 C30.2416,22.3701 30.6926,20.7381 29.6061,20.4131 C27.0521,19.6466 24.3201,19.8701 21.7061,20.1476 C19.4041,20.3926 16.6351,20.3436 14.4321,21.0391 C14.1296,21.1346 13.9991,21.6201 14.3361,21.7741 C16.0691,22.5671 18.4056,22.0611 20.2411,21.9061" id="Fill-7"></path>
                <path d="M31.91565,23.83235 C29.40365,23.01735 26.47415,23.44535 23.90265,23.75485 C21.07715,24.09435 18.22915,24.40535 15.41465,24.80835 C14.95865,24.87335 14.97165,25.63435 15.41465,25.71185 C17.92215,26.15385 20.58115,25.68835 23.09315,25.45635 C26.01565,25.18635 28.79165,25.30735 31.70615,25.38285 C32.62515,25.40585 32.74165,24.10035 31.91565,23.83235" id="Fill-9"></path>
            </g>
        </g>
    </g>
</svg>