<?xml version="1.0" encoding="UTF-8"?>
<svg width="25px" height="32px" viewBox="0 0 25 32" version="1.1" xmlns="http://www.w3.org/2000/svg" xmlns:xlink="http://www.w3.org/1999/xlink">
    <!-- Generator: sketchtool 48.2 (47327) - http://www.bohemiancoding.com/sketch -->
    <title>DB62D3A1-2B3A-4EBE-9AAC-789B7599C78C</title>
    <desc>Created with sketchtool.</desc>
    <defs>
        <polygon id="path-1" points="2.58293866e-05 0.298494591 24.9425 0.298494591 24.9425 15.9999634 2.58293866e-05 15.9999634"></polygon>
    </defs>
    <g id="QuizzesList" stroke="none" stroke-width="1" fill="none" fill-rule="evenodd" transform="translate(-662.000000, -784.000000)">
        <g id="people" transform="translate(662.000000, 784.000000)">
            <path d="M22.9470417,23.3875368 C23.6470417,24.7349053 23.9970417,26.7938526 23.3762083,28.2384842 C22.955375,29.2106947 21.5845417,29.2612211 20.7095417,29.3285895 C14.267875,29.8506947 7.62620833,31.1685895 1.205375,29.8801684 C1.17204167,25.0717474 3.055375,21.0974316 5.88454167,17.3664842 C7.205375,23.1605895 14.8470417,21.4212211 18.167875,17.8679579 C20.0012083,19.5054316 21.7970417,21.1648 22.9470417,23.3875368" id="Fill-1" fill="#82C3C3"></path>
            <path d="M16.859625,3.12686316 C18.7762917,5.00854737 17.822125,8.68012632 17.159625,10.8990737 C16.5262917,13.0258105 15.3179583,15.4632842 13.072125,16.1959158 C9.91379167,17.2274947 7.75129167,12.6426526 7.06795833,10.3184421 C6.659625,8.92054737 6.49295833,7.28644211 6.77629167,5.85065263 C7.109625,6.23844211 7.95129167,6.01486316 7.922125,5.40012632 C7.88045833,4.36854737 8.13045833,3.55633684 8.57629167,2.93696842 C9.02629167,2.63844211 9.559625,2.41065263 10.2012917,2.29696842 C10.547125,2.23381053 10.6554583,1.87591579 10.5762917,1.5816 C12.6137917,0.979073684 15.3304583,1.62749474 16.859625,3.12686316" id="Fill-3" fill="#CDAF6C"></path>
            <path d="M5.88466667,17.3665684 C5.88466667,17.3665684 5.608,23.1834105 11.6496667,22.9728842 C17.6913333,22.7623579 19.4534167,18.2718316 19.4534167,18.2718316 L18.0055,17.2949895 C18.0055,17.2949895 10.5346667,24.0697263 5.88466667,17.3665684" id="Fill-5" fill="#1D1D1B"></path>
            <g id="Group-9" transform="translate(0.000000, 15.645474)">
                <mask id="mask-2" fill="white">
                    <use xlink:href="#path-1"></use>
                </mask>
                <g id="Clip-8"></g>
                <path d="M23.3763333,12.5928 C22.9555,13.5654316 21.5846667,13.6159579 20.7096667,13.6833263 C14.268,14.2050105 7.62633333,15.5233263 1.2055,14.2344842 C1.17216667,9.42606316 3.0555,5.45174737 5.88466667,1.72122105 C7.2055,7.51490526 14.8471667,5.77595789 18.168,2.22227368 C20.0013333,3.86016842 21.7971667,5.51911579 22.9471667,7.74185263 C23.6471667,9.08964211 23.9971667,11.1481684 23.3763333,12.5928 M24.7305,8.9128 C24.0846667,5.48122105 21.018,2.96332632 18.5846667,0.782273684 C18.3346667,0.554484211 17.8721667,0.478694737 17.6346667,0.782273684 C15.3805,3.62016842 7.82216667,6.65174737 7.13466667,0.984378947 C7.07633333,0.508589474 6.65133333,0.289642105 6.28883333,0.323326316 C6.16383333,0.277010526 6.018,0.289642105 5.87633333,0.411326316 C1.83883333,3.91869474 -0.157,9.43490526 0.00966666667,14.7359579 C0.018,14.9970105 0.184666667,15.2622737 0.451333333,15.3208 C4.868,16.3102737 9.30966667,16.0538526 13.7763333,15.5864842 C15.793,15.3759579 17.8055,15.1102737 19.8346667,15.0138526 C20.9055,14.9633263 22.168,14.9755368 23.1513333,14.4786947 C25.2055,13.4475368 25.1013333,10.8875368 24.7305,8.9128" id="Fill-7" fill="#1D1D1B" mask="url(#mask-2)"></path>
            </g>
            <path d="M6.77620833,5.85052632 C7.10954167,6.23831579 7.95120833,6.01515789 7.92204167,5.40042105 C7.880375,4.36842105 8.130375,3.55621053 8.57620833,2.93684211 C9.02620833,2.63831579 9.55954167,2.41052632 10.2012083,2.29726316 C10.5470417,2.23368421 10.655375,1.87621053 10.5762083,1.58147368 C12.6137083,0.979368421 15.330375,1.62778947 16.8595417,3.12673684 C18.7762083,5.00842105 17.8220417,8.68042105 17.1595417,10.8989474 C16.5262083,13.0256842 15.317875,15.4631579 13.0720417,16.1957895 C9.91370833,17.2277895 7.75120833,12.6425263 7.067875,10.3183158 C6.65954167,8.92042105 6.492875,7.28631579 6.77620833,5.85052632 M14.3970417,17.1646316 C17.142875,15.8214737 18.317875,12.3515789 18.9595417,9.58989474 C19.5970417,6.84463158 19.6762083,3.39621053 17.2095417,1.54357895 C14.2720417,-0.662736842 8.77204167,-0.637473684 7.08454167,2.49094737 C2.26370833,6.92884211 7.55954167,20.4993684 14.3970417,17.1646316" id="Fill-10" fill="#1D1D1B"></path>
        </g>
    </g>
</svg>