<?xml version="1.0" encoding="UTF-8"?>
<svg width="32px" height="40px" viewBox="0 0 32 40" version="1.1" xmlns="http://www.w3.org/2000/svg" xmlns:xlink="http://www.w3.org/1999/xlink">
    <!-- Generator: sketchtool 48.2 (47327) - http://www.bohemiancoding.com/sketch -->
    <title>AAEDA346-00EE-42FF-A7C4-F55A2BFC8986</title>
    <desc>Created with sketchtool.</desc>
    <defs>
        <polygon id="path-1" points="3.26265936e-05 0.373118238 31.5063158 0.373118238 31.5063158 19.9999543 3.26265936e-05 19.9999543"></polygon>
    </defs>
    <g id="PostAJob-Login-Copy" stroke="none" stroke-width="1" fill="none" fill-rule="evenodd" transform="translate(-143.000000, -140.000000)">
        <g id="person-icon" transform="translate(143.000000, 140.000000)">
            <path d="M28.9857368,29.2344211 C29.8699474,30.9186316 30.3120526,33.4923158 29.5278421,35.2981053 C28.9962632,36.5133684 27.2646842,36.5765263 26.1594211,36.6607368 C18.0225789,37.3133684 9.63310526,38.9607368 1.52257895,37.3502105 C1.48047368,31.3396842 3.85942105,26.3717895 7.43310526,21.7081053 C9.10152632,28.9507368 18.7541579,26.7765263 22.9488947,22.3349474 C25.2646842,24.3817895 27.5331053,26.456 28.9857368,29.2344211" id="Fill-1" fill="#82C3C3"></path>
            <path d="M21.2963684,3.90857895 C23.7174211,6.26068421 22.5121579,10.8501579 21.6753158,13.6238421 C20.8753158,16.2822632 19.349,19.3291053 16.5121579,20.2448947 C12.5226842,21.5343684 9.79110526,15.8033158 8.92794737,12.8980526 C8.41215789,11.1506842 8.20163158,9.10805263 8.55952632,7.31331579 C8.98057895,7.79805263 10.0437368,7.51857895 10.0068947,6.75015789 C9.95426316,5.46068421 10.2700526,4.44542105 10.8332105,3.67121053 C11.4016316,3.29805263 12.0753158,3.01331579 12.8858421,2.87121053 C13.3226842,2.79226316 13.4595263,2.34489474 13.3595263,1.977 C15.9332105,1.22384211 19.3647895,2.03436842 21.2963684,3.90857895" id="Fill-3" fill="#CDAF6C"></path>
            <path d="M7.43326316,21.7082105 C7.43326316,21.7082105 7.08378947,28.9792632 14.7153684,28.7161053 C22.3469474,28.4529474 24.5727368,22.8397895 24.5727368,22.8397895 L22.7437895,21.6187368 C22.7437895,21.6187368 13.3069474,30.0871579 7.43326316,21.7082105" id="Fill-5" fill="#1D1D1B"></path>
            <g id="Group-9" transform="translate(0.000000, 19.556842)">
                <mask id="mask-2" fill="white">
                    <use xlink:href="#path-1"></use>
                </mask>
                <g id="Clip-8"></g>
                <path d="M29.528,15.741 C28.9964211,16.9567895 27.2648421,17.0199474 26.1595789,17.1041579 C18.0227368,17.7562632 9.63326316,19.4041579 1.52273684,17.7931053 C1.48063158,11.7825789 3.85957895,6.81468421 7.43326316,2.15152632 C9.10168421,9.39363158 18.7543158,7.21994737 22.9490526,2.77784211 C25.2648421,4.82521053 27.5332632,6.89889474 28.9858947,9.67731579 C29.8701053,11.3620526 30.3122105,13.9352105 29.528,15.741 M31.2385263,11.141 C30.4227368,6.85152632 26.5490526,3.70415789 23.4753684,0.977842105 C23.1595789,0.693105263 22.5753684,0.598368421 22.2753684,0.977842105 C19.428,4.52521053 9.88063158,8.31468421 9.01221053,1.23047368 C8.93852632,0.635736842 8.40168421,0.362052632 7.94378947,0.404157895 C7.78589474,0.346263158 7.60168421,0.362052632 7.42273684,0.514157895 C2.32273684,4.89836842 -0.198315789,11.7936316 0.0122105263,18.4199474 C0.0227368421,18.7462632 0.233263158,19.0778421 0.570105263,19.151 C6.14905263,20.3878421 11.7595789,20.0673158 17.4016842,19.4831053 C19.9490526,19.2199474 22.4911579,18.8878421 25.0543158,18.7673158 C26.4069474,18.7041579 28.0016842,18.7194211 29.2437895,18.0983684 C31.8385263,16.8094211 31.7069474,13.6094211 31.2385263,11.141" id="Fill-7" fill="#1D1D1B" mask="url(#mask-2)"></path>
            </g>
            <path d="M8.55942105,7.31315789 C8.98047368,7.79789474 10.0436316,7.51894737 10.0067895,6.75052632 C9.95415789,5.46052632 10.2699474,4.44526316 10.8331053,3.67105263 C11.4015263,3.29789474 12.0752105,3.01315789 12.8857368,2.87157895 C13.3225789,2.79210526 13.4594211,2.34526316 13.3594211,1.97684211 C15.9331053,1.22421053 19.3646842,2.03473684 21.2962632,3.90842105 C23.7173158,6.26052632 22.5120526,10.8505263 21.6752105,13.6236842 C20.8752105,16.2821053 19.3488947,19.3289474 16.5120526,20.2447368 C12.5225789,21.5347368 9.791,15.8031579 8.92784211,12.8978947 C8.41205263,11.1505263 8.20152632,9.10789474 8.55942105,7.31315789 M18.1857368,21.4557895 C21.6541579,19.7768421 23.1383684,15.4394737 23.9488947,11.9873684 C24.7541579,8.55578947 24.8541579,4.24526316 21.7383684,1.92947368 C18.0278421,-0.828421053 11.0804737,-0.796842105 8.94889474,3.11368421 C2.85942105,8.66105263 9.54889474,25.6242105 18.1857368,21.4557895" id="Fill-10" fill="#1D1D1B"></path>
        </g>
    </g>
</svg>