<?xml version="1.0" encoding="UTF-8"?>
<svg width="61px" height="63px" viewBox="0 0 61 63" version="1.1" xmlns="http://www.w3.org/2000/svg" xmlns:xlink="http://www.w3.org/1999/xlink">
    <!-- Generator: sketchtool 48.2 (47327) - http://www.bohemiancoding.com/sketch -->
    <title>6E24C572-1C9E-4C93-B7DB-37CDD1DCB4F8</title>
    <desc>Created with sketchtool.</desc>
    <defs></defs>
    <g id="Homepage-Copy-7" stroke="none" stroke-width="1" fill="none" fill-rule="evenodd" transform="translate(-261.000000, -2498.000000)">
        <g id="postjob" transform="translate(261.000000, 2498.000000)">
            <polygon id="Fill-1" fill="#FEFEFE" points="40.1550158 -0.000159493671 34.2685158 5.9497519 35.4668447 11.7624987 21.5757 20.3703722 13.1143579 19.5378152 4.21317368 27.8944861 2.51881842 36.4800304 6.18122632 44.4276 0.000160526316 61.803638 5.48052895 62.9998405 21.0331211 53.1255873 34.2685158 53.9238532 42.3903447 43.6301316 41.5933316 37.4537392 51.8228711 27.0970177 60.6767 23.1264228 60.6767 10.9650304 46.9613316 -0.000159493671"></polygon>
            <g id="Group-14" transform="translate(4.815789, 3.987342)">
                <path d="M16.7180934,22.1500025 L34.2250934,11.1258 C34.2250934,11.1258 33.3606592,6.68709114 34.5862776,5.11288861 C35.8110934,3.53788861 36.6755276,1.96288861 38.1162513,1.96288861 C39.556975,1.96288861 46.9066724,4.68305316 48.9959224,8.33386329 C51.0843697,11.9846734 51.0129355,14.2040278 50.1476987,15.6354835 C49.2832645,17.0669392 47.410725,18.1411291 47.0503434,18.2129013 C46.6899618,18.2838759 43.5203697,18.4991924 43.5203697,18.4991924 L30.7673566,34.5330911 C30.7673566,34.5330911 33.289225,37.6121165 32.4239882,39.4016354 C31.5595539,41.1911544 28.8217776,43.6975975 27.4532908,44.1266354 C26.0848039,44.5556734 14.6280408,45.8443823 10.6662513,40.332281 C6.70365921,34.8201797 4.25402763,29.8088886 6.12736974,25.0846861 C8.00071184,20.3604835 13.5476987,19.0725722 16.7180934,22.1500025" id="Fill-2" fill="#EA5745"></path>
                <path d="M34.3572066,8.505 C34.1332724,7.79365823 34.2825618,6.53365823 34.8716934,5.21863291 C35.4600224,3.90281013 38.1801408,2.80788608 38.1801408,2.80788608 C38.1801408,2.80788608 36.7097197,6.02168354 39.7966408,10.1844684 C42.8843645,14.3480506 43.9133382,15.7356456 44.7223908,16.1742532 C45.5314434,16.6128608 47.8101145,17.4167089 47.8101145,17.4167089 C47.8101145,17.4167089 37.8125355,19.4606203 34.3572066,8.505" id="Fill-4" fill="#020303"></path>
                <path d="M16.0032697,21.8633924 C16.0032697,21.8633924 11.5775592,27.5852278 16.8877697,34.2050127 C22.1971776,40.824 32.1377697,39.1891899 32.1377697,39.1891899 L30.4739145,35.5168481 C30.4739145,35.5168481 23.2903618,36.2409494 19.4385329,32.3110253 C15.5867039,28.3803038 15.8997303,24.7597975 16.2119539,23.6218101 C16.523375,22.4838228 16.6277171,20.8290759 16.0032697,21.8633924" id="Fill-6" fill="#020303"></path>
                <path d="M2.67749868,49.6883392 L8.29913026,39.551719 L13.9207618,43.2750987 C13.9207618,43.2750987 4.34295921,51.446757 2.67749868,49.6883392" id="Fill-8" fill="#C1C4C3"></path>
                <path d="M8.29905,39.5517987 L13.5611026,43.451419 L12.0064053,44.6683557 C12.0064053,44.6683557 7.22994474,42.392381 8.29905,39.5517987" id="Fill-10" fill="#020303"></path>
                <path d="M48.7621961,16.3831101 C45.2723539,15.4397051 42.686275,13.9524266 40.8265776,10.6947684 C39.8858934,9.04640127 37.3118539,5.01759114 38.8617355,3.1714519 C39.133025,3.11403418 39.4251829,3.08293291 39.7606829,3.0933 C41.3113671,3.1411481 42.8227224,4.05105949 44.0748276,4.87005949 C46.9225645,6.73374304 49.6715776,10.1851861 49.7028803,13.6980342 C49.7141171,15.0050848 49.3553408,15.8607684 48.7621961,16.3831101 M39.4211697,14.4093759 C36.7010513,12.5121987 33.4696566,6.66356582 36.6721566,4.29667975 C36.7443934,4.24723671 36.8134197,4.20178101 36.8840513,4.15393291 C36.6745645,5.90995823 37.5293671,8.06711013 38.2605645,9.6277557 C39.5495908,12.379819 41.4550382,15.0489456 44.0162355,16.6151734 C42.198275,16.0561481 40.4027882,15.0936038 39.4211697,14.4093759 M35.2354461,26.6776291 C32.9046039,29.0540848 31.1026961,31.9058316 28.793525,34.2639456 C27.8086961,34.2248696 26.8343013,34.3070089 25.8261961,34.0988696 C23.9929855,33.7208696 22.2753539,32.7375911 20.8129592,31.606781 C18.1731039,29.5628696 16.2435776,26.4974013 16.8824724,23.0993886 C16.9474855,23.0746671 17.0116961,23.0467557 17.0759066,23.0212367 C17.2524855,23.0036924 17.417025,22.9327177 17.5623013,22.8266544 C20.833025,21.5076418 23.8509197,19.7221101 26.9193803,17.9844266 C29.5520118,16.4939582 32.8813276,15.618338 35.1415382,13.5505025 C35.2988539,13.7745911 35.4601829,13.9915025 35.6303408,14.1908696 C37.1079855,15.9213759 39.5511961,17.7483759 42.1453013,18.7723253 C40.1074197,21.6320468 37.6971171,24.1695911 35.2354461,26.6776291 M22.5354066,43.0990975 C18.2196566,43.0129709 13.7369592,41.1915532 10.4927224,38.4179582 C7.15216974,35.5598316 5.92414342,31.2176165 6.879275,27.0093759 C7.79668289,22.9717937 12.2689461,20.6782747 15.9024592,22.5395658 C15.9048671,22.5571101 15.9024592,22.5754519 15.9056697,22.5929962 C15.892025,22.6121354 15.8743671,22.6225025 15.8631303,22.6448316 C13.7690645,26.2382241 16.0661961,30.208819 18.7814987,32.7391861 C20.9502092,34.7599709 25.7122224,37.528781 28.9998013,36.445819 C29.1490908,36.4394392 29.3015908,36.4027557 29.4500776,36.2895152 C29.4725513,36.2727684 29.4910118,36.2536291 29.5118803,36.2368823 C29.6266566,36.1826544 29.7430382,36.1316165 29.8529987,36.0662241 C32.9070118,41.1134013 26.4859592,43.1780468 22.5354066,43.0990975 M3.75543289,49.3177557 C5.48349868,46.4396924 6.93064342,43.4117051 8.49898553,40.440338 C9.71176184,41.5631734 11.1725513,42.5711734 12.7802224,43.4133 C10.0183671,45.7235658 6.96836711,47.6773633 3.75543289,49.3177557 M34.8156697,3.21531266 C33.1863276,4.82619873 32.9696171,7.52243924 33.5916566,10.0201101 C33.4279197,10.0567937 33.2649855,10.1325532 33.1140908,10.2705152 C28.793525,14.2147937 21.549775,16.2172367 17.8705118,20.947819 C17.7573408,21.0132114 17.645775,21.0833886 17.5326039,21.148781 C14.5331697,17.5729329 7.81353816,18.9852494 5.59024868,22.9606291 C2.55710395,28.3881987 3.35170921,34.6706544 7.33757763,39.2321734 C5.201775,43.1405658 3.33726184,47.2036671 0.808972368,50.8855785 C0.299301316,51.6264266 1.25523553,52.3050722 1.92944605,51.9980468 C6.376025,49.9780595 10.9060776,47.5481734 14.5147092,44.2227304 C18.9251697,46.0888063 24.0820776,46.7036544 28.2092092,45.0895785 C32.6838803,43.3399329 36.0444987,37.7935405 31.5272882,34.3867557 C33.3950118,32.4576797 35.0163276,30.220781 36.9298013,28.3602873 C39.7462355,25.6209835 42.3258934,22.737338 44.4689197,19.4469835 C47.0493803,19.9111101 49.5415513,19.3329456 51.1596566,16.8424519 C56.7234987,8.27843924 37.8448013,-5.3335481 34.8156697,3.21531266" id="Fill-12" fill="#020303"></path>
            </g>
        </g>
    </g>
</svg>