<?xml version="1.0" encoding="UTF-8"?>
<svg width="29px" height="23px" viewBox="0 0 29 23" version="1.1" xmlns="http://www.w3.org/2000/svg" xmlns:xlink="http://www.w3.org/1999/xlink">
    <!-- Generator: sketchtool 48.2 (47327) - http://www.bohemiancoding.com/sketch -->
    <title>57C57211-4D99-4447-916A-C0122EED23FE</title>
    <desc>Created with sketchtool.</desc>
    <defs>
        <polygon id="path-1" points="0 0.247 28.7082275 0.247 28.7082275 22.6666333 0 22.6666333"></polygon>
    </defs>
    <g id="QuizzesList" stroke="none" stroke-width="1" fill="none" fill-rule="evenodd" transform="translate(-662.000000, -968.000000)">
        <g id="reading" transform="translate(662.000000, 968.000000)">
            <path d="M1.91831548,21.9708667 C1.88517262,21.8755333 1.06143452,21.3028667 1.06143452,21.3028667 L0.468315476,21.0165333 L0.96235119,3.29453333 C0.96235119,3.29453333 2.5438869,1.19453333 6.79514881,1.16253333 C11.0460655,1.13053333 12.4964107,1.86253333 12.8917083,2.40353333 C13.2873512,2.94453333 13.649506,3.42186667 13.649506,3.42186667 C13.649506,3.42186667 16.3188869,0.971533333 19.4491607,0.8762 C22.5797798,0.780866667 26.2700298,1.09853333 26.8966369,1.7032 C27.5228988,2.3082 28.0497321,3.42186667 28.0497321,3.42186667 L28.1491607,21.0165333 L25.6444583,22.3208667 C25.6444583,22.3208667 24.2931964,21.5572 23.963494,21.3345333 C23.6341369,21.1118667 18.657875,19.7122 17.4719821,19.9348667 C16.285744,20.1575333 13.3198036,20.9845333 13.3198036,20.9845333 C13.3198036,20.9845333 9.16797024,19.7752 6.69641071,20.2208667 C4.22485119,20.6665333 1.91831548,21.9708667 1.91831548,21.9708667" id="Fill-1" fill="#FFFFFF"></path>
            <path d="M1.71704167,22.0076333 L0.931625,21.1856333 C0.931625,21.1856333 2.40510119,19.3839667 4.2711131,19.2889667 C6.13747024,19.1939667 9.47730357,18.9093 10.2302679,19.4153 C10.9835774,19.9209667 10.8851845,20.1109667 10.8851845,20.1109667 C10.8851845,20.1109667 4.56560119,19.7946333 1.71704167,22.0076333" id="Fill-3" fill="#1D1D1B"></path>
            <path d="M16.6806274,19.6049667 C16.6806274,19.6049667 18.7106274,18.7826333 21.395544,19.1623 C24.080806,19.5419667 26.4384369,20.3006333 26.8309726,20.6799667 C27.2238536,21.0589667 27.2894488,21.5333 27.2894488,21.5333 L25.5211393,22.3236333 C25.5211393,22.3236333 20.445794,19.3519667 16.6806274,19.6049667" id="Fill-5" fill="#1D1D1B"></path>
            <g id="Group-9" transform="translate(0.000000, 0.086433)">
                <mask id="mask-2" fill="white">
                    <use xlink:href="#path-1"></use>
                </mask>
                <g id="Clip-8"></g>
                <path d="M14.2191143,20.2089667 C14.3509952,19.2119667 14.2574357,18.1609667 14.2567452,17.1699667 C14.2560548,15.7199667 14.2553643,14.2703 14.2546738,12.8206333 C14.2536381,9.7133 14.2367214,6.60596667 14.1656024,3.49963333 C14.1652571,3.4853 14.16215,3.4733 14.1604238,3.45963333 C14.1832095,3.4313 14.1990905,3.39896667 14.214281,3.36696667 C15.9287333,1.85496667 18.9198762,1.35163333 21.116281,1.26796667 C22.8217571,1.20263333 26.5724238,1.4373 27.5056024,3.17696667 C27.5346024,3.23063333 27.5718881,3.27263333 27.6133167,3.3073 C27.3174476,6.30663333 27.5176857,9.4103 27.5294238,12.4176333 C27.5404714,15.1206333 27.3101976,17.9596333 27.6516381,20.6569667 C23.7863524,18.1209667 18.1575905,17.6166333 14.2191143,20.2089667 M25.6651381,21.8903 C25.50115,21.9463 24.3328643,21.0776333 24.1360786,20.9569667 C23.0499595,20.2919667 21.8012333,19.9946333 20.5504357,19.7643 C20.047769,19.6716333 19.5233524,19.6056333 18.9903048,19.5696333 C21.6534714,19.3123 24.3660071,19.9143 26.7329595,21.3353 C26.4008405,21.5499667 26.0635429,21.7546333 25.6651381,21.8903 M13.124019,12.2676333 C13.1233286,13.7239667 13.1226381,15.1799667 13.1222929,16.6359667 C13.1212571,17.7753 12.9973167,19.0079667 13.1502571,20.1606333 C9.8528881,17.4919667 4.05150714,17.7543 0.90362619,20.5726333 C0.757245238,17.8219667 1.0641619,14.9749667 1.20743571,12.2396333 C1.35899524,9.3273 1.51020952,6.41596667 1.53161429,3.49963333 C1.53265,3.36396667 1.49260238,3.25363333 1.42769762,3.16763333 C2.31772143,2.0803 5.83293571,1.7713 6.95219762,1.65563333 C8.90382857,1.4533 11.843531,1.8293 13.1478405,3.46096667 C13.1678643,3.4863 13.19065,3.50696667 13.2130905,3.5273 C13.1461143,6.4403 13.1257452,9.3543 13.124019,12.2676333 M7.67995952,19.7159667 C6.59245952,19.7159667 5.57193571,19.8359667 4.55417381,20.2133 C4.02285238,20.4099667 3.52605476,20.7363 3.04272143,21.0209667 C2.34465,21.4316333 1.97351905,21.5999667 1.42976905,21.2589667 C3.55194762,19.5189667 6.96980476,18.9079667 9.76795952,19.6916333 C9.05711429,19.6849667 8.34661429,19.7159667 7.67995952,19.7159667 M28.5219833,3.04763333 C28.5161143,2.99363333 28.4985071,2.94896667 28.4805548,2.9053 C28.4753762,2.86863333 28.4670905,2.8313 28.450519,2.79263333 C27.5708524,0.722966667 24.238269,0.448633333 22.266269,0.2853 C19.8537452,0.0859666667 15.6729119,0.626966667 13.9871143,2.70263333 C12.4242214,0.850966667 9.22455476,0.4783 6.95219762,0.666633333 C5.64823333,0.774633333 1.25542381,1.31596667 0.710292857,2.9833 C0.505566667,3.05496667 0.342959524,3.22663333 0.343304762,3.49963333 C0.34537619,6.4143 0.21487619,9.32696667 0.111995238,12.2396333 C0.00635238095,15.2323 0.148935714,18.2493 0.000483333333,21.2336333 C-0.0119452381,21.4833 0.163780952,21.6239667 0.366435714,21.6606333 C0.442042857,21.7436333 0.554245238,21.7993 0.703388095,21.7993 C0.912947619,21.7993 1.04379286,21.6879667 1.10731667,21.5466333 C1.27786429,21.7676333 1.44944762,21.9879667 1.61861429,22.2103 C1.72218571,22.3456333 1.88720952,22.4066333 2.04947143,22.3193 C3.95173333,21.2943 5.42659048,20.4636333 7.67995952,20.4373 C9.20867381,20.4193 10.6555667,20.4076333 12.0803643,20.7919667 C12.2491857,20.9159667 12.4128286,21.0466333 12.56715,21.1876333 C12.7521976,21.3559667 12.9676262,21.3769667 13.1533643,21.3126333 C13.2168881,21.3746333 13.3149357,21.4013 13.4274833,21.3433 C13.5317452,21.2899667 13.6366976,21.2439667 13.74165,21.1953 C13.8151857,21.2153 13.8949357,21.2129667 13.9719238,21.1686333 C14.1697452,21.0553 14.3713643,20.9539667 14.5729833,20.8526333 C17.1653762,19.9419667 19.9517929,20.2666333 22.6046024,21.0479667 C23.2805786,21.2473 23.907531,21.7173 24.5009952,22.0773 C24.7706262,22.2416333 25.2453286,22.6666333 25.5995429,22.6666333 C26.2661976,22.6666333 26.8986738,22.2326333 27.4424238,21.7913 C27.4462214,21.7939667 27.4503643,21.7963 27.4545071,21.7989667 C27.8166619,22.0499667 28.1619,21.7779667 28.2254238,21.4443 C28.330031,21.4083 28.4159952,21.3336333 28.4349833,21.2156333 C28.8896619,18.3546333 28.6169238,15.3076333 28.6286619,12.4176333 C28.6407452,9.32363333 28.856519,6.12663333 28.5219833,3.04763333" id="Fill-7" fill="#1D1D1B" mask="url(#mask-2)"></path>
            </g>
            <path d="M3.50323452,5.45946667 C5.7686869,4.45013333 8.47638929,4.6588 10.8719964,4.99113333 C11.1654488,5.0318 11.371556,4.6708 11.0839726,4.5048 C10.188425,3.98813333 8.87859167,4.04013333 7.87429405,4.1178 C6.23613929,4.24346667 4.7536869,4.32046667 3.26950833,5.07413333 C3.00229405,5.2098 3.23705595,5.57813333 3.50323452,5.45946667" id="Fill-10" fill="#1D1D1B"></path>
            <path d="M7.75636071,7.10203333 C6.7720869,7.06303333 4.81596786,6.9947 4.22319405,7.97403333 C4.09994405,8.17703333 4.39339643,8.4037 4.56325357,8.22736667 C5.24751548,7.51603333 6.85943214,7.71136667 7.75636071,7.7647 C9.01337262,7.83903333 10.0660036,8.12703333 11.1673131,8.66636667 C11.473194,8.8167 11.7925393,8.5157 11.6320036,8.21836667 C11.0582179,7.15703333 8.79794405,7.14336667 7.75636071,7.10203333" id="Fill-12" fill="#1D1D1B"></path>
            <path d="M6.46506667,11.6225667 C5.42210238,11.6102333 3.96554286,11.5455667 3.37380476,12.5575667 C3.36586429,12.5705667 3.38070952,12.5829 3.39382857,12.5769 C4.41607857,12.1202333 5.37135238,12.1619 6.46506667,12.2585667 C7.40169762,12.3405667 8.29897143,12.1885667 9.21799524,12.4435667 C9.43894762,12.5045667 9.67612619,12.2469 9.53181667,12.0492333 C8.88587619,11.1639 7.41826905,11.6332333 6.46506667,11.6225667" id="Fill-14" fill="#1D1D1B"></path>
            <path d="M21.4954214,4.98843333 C20.3433619,4.99343333 18.1448857,5.04043333 17.5483143,6.2361 C17.4544095,6.42443333 17.6888262,6.6181 17.8535048,6.46376667 C19.7133024,4.7281 23.5150643,5.8671 25.6531238,6.35676667 C25.9779929,6.43143333 26.2786952,6.02243333 25.9976714,5.7851 C24.9446952,4.89643333 22.7948976,4.98343333 21.4954214,4.98843333" id="Fill-16" fill="#1D1D1B"></path>
            <path d="M17.2473702,9.65736667 C19.3405488,8.79136667 21.5010488,9.09736667 23.6943464,9.37203333 C24.0150726,9.41203333 24.054775,8.9837 23.843144,8.8407 C23.3946798,8.53703333 23.113656,8.5377 22.5488464,8.5387 C21.8583702,8.53936667 21.1865369,8.40703333 20.4995131,8.36536667 C19.2956679,8.2927 18.028644,8.6737 17.0733702,9.3707 C16.8952274,9.5007 17.0422988,9.74236667 17.2473702,9.65736667" id="Fill-18" fill="#1D1D1B"></path>
            <path d="M25.0968071,14.7550333 C22.7015452,13.9777 19.3199381,13.5587 17.0907357,15.0220333 C17.0092595,15.0750333 17.0596643,15.1943667 17.1566762,15.1740333 C18.5293429,14.8830333 19.9272119,14.7653667 21.3306048,14.7353667 C22.6380214,14.7080333 23.7662595,15.2487 25.0212,15.2913667 C25.353319,15.3030333 25.3892238,14.8500333 25.0968071,14.7550333" id="Fill-20" fill="#1D1D1B"></path>
        </g>
    </g>
</svg>