<?xml version="1.0" encoding="UTF-8"?>
<svg width="62px" height="49px" viewBox="0 0 62 49" version="1.1" xmlns="http://www.w3.org/2000/svg" xmlns:xlink="http://www.w3.org/1999/xlink">
    <!-- Generator: sketchtool 48.2 (47327) - http://www.bohemiancoding.com/sketch -->
    <title>A977B9B7-BA63-427A-BCDA-485B6F458FD6</title>
    <desc>Created with sketchtool.</desc>
    <defs>
        <polygon id="path-1" points="9.19323616e-05 0.0498871141 61.6875027 0.0498871141 61.6875027 48.1967213 9.19323616e-05 48.1967213"></polygon>
    </defs>
    <g id="Homepage-Copy-7" stroke="none" stroke-width="1" fill="none" fill-rule="evenodd" transform="translate(-919.000000, -2241.000000)">
        <g id="resume" transform="translate(919.000000, 2241.000000)">
            <path d="M2.82567013,43.5134459 C2.82567013,43.5134459 0.6138,29.9573148 1.11946234,24.5343803 C1.62512468,19.1122492 4.15263117,4.10539672 4.15263117,4.10539672 C4.15263117,4.10539672 30.4454623,1.96224918 35.8805273,2.59282295 C41.3163974,3.22339672 55.2205013,3.22339672 57.8116182,6.75380656 C60.4035403,10.2850197 60.0870987,28.5692492 59.6442416,30.335659 C59.2021896,32.1004623 58.6965273,45.908823 58.6965273,45.908823 C58.6965273,45.908823 48.5840857,48.3050033 42.7061636,46.4759377 C36.8282416,44.6476754 28.8020597,45.4043639 26.4629688,45.908823 C24.1246831,46.413282 4.40626753,48.7468066 2.82567013,43.5134459" id="Fill-1" fill="#FEFEFE"></path>
            <path d="M7.94542078,25.2913902 C7.86892727,25.0504066 7.50256364,12.1136033 7.69258961,10.9785705 C7.88261558,9.8435377 8.00822597,9.27642295 8.00822597,9.27642295 L15.7187714,8.77196393 L18.4363039,9.33907869 C18.4363039,9.33907869 19.6376545,21.319177 19.2584078,22.5168656 C18.879161,23.7145541 18.2470831,24.6608164 18.2470831,24.6608164 C18.2470831,24.6608164 8.32466753,26.4890787 7.94542078,25.2913902" id="Fill-3" fill="#82C2C2"></path>
            <g id="Group-7" transform="translate(0.000000, 0.753877)">
                <mask id="mask-2" fill="white">
                    <use xlink:href="#path-1"></use>
                </mask>
                <g id="Clip-6"></g>
                <path d="M58.2284675,24.2245557 C57.7662857,30.7865393 57.8918961,37.3123754 57.5955844,43.8703426 C57.5577403,43.8880148 57.5198961,43.8936377 57.4820519,43.9169328 C53.7668831,46.1090803 48.1603117,44.9828836 44.0876364,44.5756213 C40.0681039,44.1747852 35.9060519,43.1184738 31.8583377,43.2686869 C27.0513247,43.4470148 22.2491429,44.1988836 17.4493766,44.5378672 C14.3050909,44.7595721 6.04620779,45.7194902 3.72885714,42.3899 C3.73771429,42.2669984 3.7352987,42.1376705 3.70792208,41.9938836 C1.27864935,29.6121459 3.5034026,16.474523 5.28851948,4.18194918 C14.255974,3.76826066 23.1936364,3.09350656 32.1788052,3.10234262 C36.8932208,3.1071623 41.602,3.36019508 46.2914545,3.82850656 C49.7972727,4.17953934 54.2797922,4.07591639 56.4683117,7.29626066 C59.5538182,11.8331787 58.59,19.0851787 58.2284675,24.2245557 M58.5473247,4.85750656 C56.8354805,2.74568689 54.7331169,1.94160492 52.1057662,1.50703115 C46.9404416,0.652342623 41.6986234,0.304522951 36.4721039,0.136637705 C25.7895844,-0.206362295 14.9540779,0.467588525 4.39877922,2.16170328 C3.67812987,1.83958852 2.76020779,2.0516541 2.45664935,3.09109672 C-1.19732468,15.5893098 -0.0724675325,29.5912607 1.35353247,42.311982 C1.43968831,43.0710803 1.96628571,43.4301459 2.50415584,43.4526377 C4.17574026,46.2689328 8.49319481,46.8336377 11.5175065,47.1019328 C17.9405455,47.6730639 24.3821039,46.6593262 30.7801818,46.2392115 C35.7764156,45.9114738 40.9232208,47.2328672 45.8856364,47.6955557 C48.1417922,47.9052115 55.308026,49.033818 58.1696883,47.001523 C58.9829351,47.3983426 60.2535325,46.9934902 60.3308312,45.7925885 C60.8356883,38.0184574 60.921039,30.2676213 61.4395844,22.4926869 C61.8091688,16.9613098 62.2947013,9.47555574 58.5473247,4.85750656" id="Fill-5" fill="#020303" mask="url(#mask-2)"></path>
            </g>
            <path d="M8.35751948,10.0322279 C8.40663636,9.97680164 8.45494805,9.92137541 8.50406494,9.86675246 C8.59344156,9.76553934 8.64738961,9.66432623 8.68201299,9.56471967 C8.70294805,9.57837541 8.71502597,9.59444098 8.73998701,9.60649016 C9.92362338,10.1607525 11.2224026,10.0563262 12.4954156,9.96475246 C13.4125325,9.89888361 14.324013,9.83542459 15.2443506,9.84185082 C16.1284545,9.84827705 16.8048182,10.2298344 17.6381948,10.363982 C17.696974,10.3736213 17.7549481,10.3704082 17.8137273,10.3679984 C18.0568961,14.886441 19.3001169,19.4410311 18.1237273,23.8895885 C15.0784805,24.608523 12.2466104,25.5579984 9.11198701,24.8254082 C8.51855844,21.0981951 8.39133766,17.3894574 8.50809091,13.6172607 C8.53466234,12.7312443 8.55801299,11.8444246 8.59102597,10.9584082 C8.62323377,10.1149656 8.90102597,10.1575393 8.18842857,10.1021131 C8.2455974,10.1061295 8.31967532,10.0748016 8.35751948,10.0322279 M8.68684416,26.205441 C12.2401688,27.2609492 15.6308442,26.337982 19.1551818,25.4254574 C19.6157532,25.3065721 19.7856494,24.9459 19.7614935,24.5876377 C19.7647143,24.5763918 19.7711558,24.5675557 19.7743766,24.5555066 C21.2575455,19.2731459 19.3274935,14.0944082 19.0046104,8.79196557 C18.9635455,8.11480164 18.0858831,8.01519508 17.8386883,8.51001475 C15.6622468,7.07375246 11.3592857,9.03937541 9.11923377,8.70922787 C8.90102597,8.67709672 8.70294805,8.79598197 8.58619481,8.95824426 C8.27377922,8.53330984 7.50723377,8.40558852 7.25279221,9.13978525 C6.65855844,10.8523754 6.71411688,12.9224246 6.61105195,14.7016869 C6.39848052,18.3606213 6.50557143,22.0589164 7.22058442,25.6600148 C7.37357143,26.4327689 8.15783117,26.5307689 8.68684416,26.205441" id="Fill-8" fill="#020303"></path>
            <path d="M23.0868675,11.6803951 C28.0307636,12.8459525 33.240374,12.078018 38.2382182,11.720559 C40.9227377,11.5285754 43.5951792,11.3671164 46.2861403,11.4562803 C49.0165558,11.5454443 50.8499844,12.6740508 53.3436727,13.2789197 C54.0224519,13.4435918 54.5120104,12.7535754 54.2100623,12.1551328 C52.3556987,8.4721 44.5976468,9.3428541 41.3680104,9.53162459 C35.3862182,9.88265738 29.2160104,11.4080836 23.2189195,10.706018 C22.6568935,10.6401492 22.5506078,11.553477 23.0868675,11.6803951" id="Fill-10" fill="#020303"></path>
            <path d="M54.2968623,19.0236475 C51.6413299,16.7664344 45.7980312,18.0428443 42.5200831,17.9536803 C36.3619532,17.7865984 30.1353818,18.1055 24.159226,16.3342705 C23.5174857,16.1446967 23.2888104,17.0845328 23.8886805,17.3150738 C33.4503688,20.9981066 43.846239,18.3673689 53.6366026,20.1562705 C54.2413039,20.267123 54.8629143,19.5048115 54.2968623,19.0236475" id="Fill-12" fill="#020303"></path>
            <path d="M40.3749636,24.5140574 C35.0993273,24.6176803 29.8228857,24.6955984 24.5609377,25.1173197 C24.2042364,25.1462377 24.2042364,25.6410574 24.5609377,25.6691721 C29.4057948,26.0587623 34.2635351,26.1535492 39.1212753,26.2483361 C43.443561,26.3334836 48.4269117,27.0805328 52.6566,26.0531393 C53.3120286,25.8940902 53.3120286,24.8940082 52.6566,24.7333525 C48.7989117,23.7967295 44.3163922,24.4369426 40.3749636,24.5140574" id="Fill-14" fill="#020303"></path>
            <path d="M50.2456857,33.0331492 C50.9220494,32.9399689 50.9220494,31.7711984 50.2456857,31.678018 C43.7252182,30.7767393 36.9535299,31.2900344 30.3839455,31.3173459 C22.6266987,31.349477 14.8678416,31.4281984 7.11542597,31.678018 C6.23937403,31.7061328 6.23937403,33.0050344 7.11542597,33.0331492 C14.4048545,33.2677066 21.6958935,33.3199197 28.9901532,33.3833787 C36.0034,33.4436246 43.2855818,33.9938705 50.2456857,33.0331492" id="Fill-16" fill="#020303"></path>
            <path d="M54.0845325,38.5643656 C46.965,37.9329885 39.7246883,38.2912508 32.5793896,38.3024967 C24.8752857,38.3137426 16.9143247,37.9329885 9.26255844,38.9282508 C8.76092208,38.9933164 8.76092208,39.6415623 9.26255844,39.7066279 C16.9143247,40.7010869 24.8752857,40.3211361 32.5793896,40.332382 C39.7246883,40.3436279 46.965,40.7018902 54.0845325,40.0705131 C55.0564026,39.9845623 55.0564026,38.6503164 54.0845325,38.5643656" id="Fill-18" fill="#020303"></path>
        </g>
    </g>
</svg>