<?xml version="1.0" encoding="UTF-8"?>
<svg width="39px" height="31px" viewBox="0 0 39 31" version="1.1" xmlns="http://www.w3.org/2000/svg" xmlns:xlink="http://www.w3.org/1999/xlink">
    <!-- Generator: sketchtool 48.2 (47327) - http://www.bohemiancoding.com/sketch -->
    <title>C6068A0B-9C29-40FA-B1DB-B16E05BAEEDB</title>
    <desc>Created with sketchtool.</desc>
    <defs></defs>
    <g id="ResumeDetail" stroke="none" stroke-width="1" fill="none" fill-rule="evenodd" transform="translate(-140.000000, -187.000000)">
        <g id="resume-icon3" transform="translate(140.000000, 187.000000)">
            <g id="Group-20" transform="translate(0.000000, 0.279967)">
                <path d="M1.79251598,26.8189317 C1.79251598,26.8189317 0.408288337,18.335132 0.724740816,14.9418132 C1.0411933,11.5484944 2.62295179,2.15679343 2.62295179,2.15679343 C2.62295179,2.15679343 19.076969,0.815552753 22.4788331,1.21018316 C25.8801934,1.60431086 34.5816287,1.60431086 36.2036997,3.81373843 C37.8252667,6.02366871 37.6277358,17.4669451 37.3505879,18.572413 C37.073944,19.6768754 36.7574915,28.3180246 36.7574915,28.3180246 C36.7574915,28.3180246 30.4289458,29.8181228 26.7504377,28.6734433 C23.0719296,27.5292665 18.0490023,28.0023202 16.5851577,28.3180246 C15.1218169,28.6342316 2.78117803,30.0946155 1.79251598,26.8189317" id="Fill-2" fill="#FEFEFE"></path>
                <path d="M4.99604304,15.4155708 C4.94817204,15.2647566 4.71889516,7.16854934 4.8383207,6.45821461 C4.95673843,5.74787987 5.03585155,5.39296386 5.03585155,5.39296386 L9.86124795,5.07675682 L11.5619281,5.43217554 C11.5619281,5.43217554 12.3132508,12.9296506 12.0764153,13.679197 C11.8390759,14.4287434 11.4435103,15.0204377 11.4435103,15.0204377 C11.4435103,15.0204377 5.2333824,16.1651172 4.99604304,15.4155708" id="Fill-4" fill="#82C2C2"></path>
                <path d="M36.4640171,15.2197135 C36.1752794,19.3263833 36.2538886,23.410431 36.0684515,27.5145872 C36.044264,27.5256469 36.0205805,27.5291659 35.996897,27.5437446 C33.6723822,28.9156508 30.1636901,28.2103433 27.6149375,27.95597 C25.0994426,27.7051158 22.4947565,27.044047 19.9611211,27.1375518 C16.9533108,27.249657 13.9475162,27.7196945 10.9442411,27.9323425 C8.97649116,28.0710915 3.8074314,28.6718346 2.35719217,26.5880855 C2.36273513,26.5106676 2.36172732,26.4297306 2.34409064,26.3402476 C0.823808583,18.5909129 2.21660262,10.3695298 3.33376049,2.67649905 C8.94575294,2.4176014 14.5391009,1.99481901 20.1621793,2.00085158 C23.1125443,2.00336515 26.0593821,2.16222274 28.9936222,2.45530494 C31.1876255,2.6744882 33.9933698,2.61014082 35.3629842,4.62552083 C37.293949,7.4643462 36.6907744,12.00335 36.4640171,15.2197135 M36.6640675,3.09928144 C35.5922611,1.77714389 34.2770684,1.27443 32.6323218,1.00246178 C29.4002737,0.467574195 26.1198507,0.249899078 22.848498,0.14432916 C16.1636913,-0.070329674 9.38263877,0.351949999 2.77694522,1.4121736 C2.32544614,1.21008262 1.7514981,1.3433018 1.56102192,1.99331087 C-0.725699974,9.81553909 -0.0212404739,18.578345 0.871175674,26.5393223 C0.924589627,27.0138842 1.25464755,27.2391 1.59075233,27.2526733 C2.63736348,29.0156909 5.33930327,29.3690988 7.23146738,29.5370052 C11.2516232,29.8939321 15.282865,29.2600099 19.2868959,28.9970905 C22.4131239,28.7919832 25.6340861,29.6189476 28.7401579,29.9085108 C30.1515964,30.0397191 34.6363529,30.7460321 36.4277359,29.474166 C36.9361763,29.7220039 37.7318426,29.4691388 37.7802175,28.7175816 C38.0961661,23.8523165 38.1495801,19.0016301 38.474095,14.1358623 C38.7048836,10.6736717 39.0092424,5.98938363 36.6640675,3.09928144" id="Fill-6" fill="#020303"></path>
                <path d="M5.25439524,5.86596737 C5.28513346,5.83128011 5.31536778,5.79659285 5.34610599,5.76190559 C5.40153557,5.69856364 5.43580112,5.6357244 5.45696514,5.57338788 C5.47057058,5.58193401 5.47812916,5.59198829 5.49375022,5.599529 C6.23398699,5.94589888 7.04729002,5.88104878 7.84396418,5.8237394 C8.41740832,5.78201414 8.98782903,5.74280246 9.5642966,5.74682417 C10.1175845,5.75084588 10.5408649,5.98963498 11.0624068,6.07308549 C11.098688,6.07962077 11.1354731,6.07760992 11.1717543,6.07559906 C11.3244375,8.90336472 12.1019633,11.7542552 11.3662617,14.5377821 C9.45998822,14.9882137 7.68825746,15.5824215 5.72605053,15.1239465 C5.35467238,12.7908513 5.27555926,10.4698212 5.34812161,8.10957948 C5.36525439,7.55458334 5.37936374,7.00008991 5.40052776,6.44559649 C5.42068397,5.91724418 5.59453127,5.94388802 5.14857515,5.90970347 C5.18435242,5.91221704 5.23020779,5.8926112 5.25439524,5.86596737 M5.46049248,15.9876089 C7.68372232,16.6476723 9.80617111,16.0705567 12.0117643,15.498971 C12.2994941,15.4245694 12.4063221,15.1993536 12.390701,14.9751432 C12.3932205,14.9676025 12.3967479,14.9625753 12.3987635,14.9550346 C13.3274608,11.649188 12.1190961,8.40768882 11.917534,5.08977711 C11.8913309,4.6659893 11.3425781,4.60315006 11.1878792,4.91332453 C9.82582341,4.01396937 7.13295391,5.24461299 5.73058568,5.03749487 C5.59402736,5.01788902 5.47006668,5.09178797 5.39750433,5.19383889 C5.2019891,4.92790324 4.72227133,4.84797173 4.56303728,5.30745223 C4.19115523,6.37923825 4.22592469,7.67422925 4.16142482,8.78774053 C4.02788993,11.0776023 4.09490933,13.3925998 4.54288107,15.6457635 C4.63862306,16.129877 5.12942675,16.1912081 5.46049248,15.9876089" id="Fill-8" fill="#020303"></path>
                <path d="M14.4723335,6.89693302 C17.5663115,7.6268736 20.8260744,7.1457764 23.954318,6.92206872 C25.6338341,6.80242281 27.3062956,6.70137732 28.9908507,6.75667585 C30.6990894,6.8129798 31.8469855,7.51879011 33.40758,7.89783639 C33.8323721,8.00089274 34.1387465,7.5690615 33.949782,7.19403694 C32.7887844,4.88959644 27.9341615,5.4345383 25.9129976,5.55267607 C22.1689818,5.77236204 18.30806,6.72701573 14.5549739,6.28764378 C14.2032481,6.24642124 14.1362287,6.81800694 14.4723335,6.89693302" id="Fill-10" fill="#020303"></path>
                <path d="M34.0040526,11.4925424 C32.3416693,10.080419 28.685333,10.8787287 26.6339348,10.8234302 C22.7795638,10.7188657 18.8833686,10.9184431 15.143384,9.80995896 C14.7412677,9.69081577 14.5986625,10.2794937 14.9740719,10.4237726 C20.9579464,12.7282131 27.4638667,11.0818251 33.5903464,12.2018717 C33.9692831,12.2712462 34.3577941,11.7941707 34.0040526,11.4925424" id="Fill-12" fill="#020303"></path>
                <path d="M25.2910274,14.9290443 C21.9899443,14.9938944 18.6873495,15.0426576 15.3943288,15.3065824 C15.1716027,15.3246801 15.1716027,15.6338492 15.3943288,15.6519469 C18.4268305,15.8957631 21.4668907,15.9545806 24.5069509,16.0144036 C27.2119141,16.0671886 30.3300796,16.5352152 32.9775976,15.8922441 C33.3877765,15.7927068 33.3877765,15.1663253 32.9775976,15.0662852 C30.5628838,14.4796181 27.7576435,14.8807838 25.2910274,14.9290443" id="Fill-14" fill="#020303"></path>
                <path d="M31.4688046,20.2605765 C31.8915811,20.201759 31.8915811,19.470813 31.4688046,19.4124982 C27.3876762,18.8484532 23.1503372,19.1696874 19.0389745,19.1867796 C14.1838477,19.2068882 9.32872091,19.2556514 4.47661753,19.4124982 C3.92836865,19.4295904 3.92836865,20.2429815 4.47661753,20.2605765 C9.03897541,20.4068663 13.6018372,20.4400454 18.1662107,20.4797598 C22.5552252,20.5174633 27.112544,20.8613196 31.4688046,20.2605765" id="Fill-16" fill="#020303"></path>
                <path d="M33.8711728,23.7221639 C29.4151389,23.3270307 24.8840232,23.5507384 20.4123682,23.5577764 C15.591507,23.5653171 10.609396,23.3270307 5.82028081,23.9493905 C5.50685176,23.9906131 5.50685176,24.3958005 5.82028081,24.437023 C10.609396,25.0593828 15.591507,24.8210964 20.4123682,24.8286371 C24.8840232,24.8351724 29.4151389,25.0593828 33.8711728,24.6647524 C34.4793864,24.610962 34.4793864,23.7754515 33.8711728,23.7221639" id="Fill-18" fill="#020303"></path>
            </g>
        </g>
    </g>
</svg>