<?xml version="1.0" encoding="UTF-8"?>
<svg width="25px" height="32px" viewBox="0 0 25 32" version="1.1" xmlns="http://www.w3.org/2000/svg" xmlns:xlink="http://www.w3.org/1999/xlink">
    <!-- Generator: sketchtool 48.2 (47327) - http://www.bohemiancoding.com/sketch -->
    <title>2A2B890F-D63B-4AF9-A307-E2835179BE9E</title>
    <desc>Created with sketchtool.</desc>
    <defs>
        <polygon id="path-1" points="8.21823124e-05 0.1603 24.7816327 0.1603 24.7816327 29.75 8.21823124e-05 29.75"></polygon>
        <path d="M9.08010204,1.8945 C9.08010204,1.8945 9.46173469,6.28525 9.46173469,6.97275 C9.46173469,7.66025 8.56913265,9.03525 7.93137755,10.16025 C7.29362245,11.28525 4.42372449,17.59775 3.40331633,19.34775 C2.38290816,21.09775 0.150765306,23.78525 0.214540816,25.22275 C0.278061224,26.66025 0.916071429,28.22275 2.82933673,28.22275 C4.74260204,28.22275 6.91096939,28.47275 8.37780612,28.22275 C9.84464286,27.973 12.5869898,27.91025 14.5640306,27.84775 C14.9346939,27.836 15.3905612,27.83775 15.8951531,27.839 C18.0813776,27.84525 21.1806122,27.8515 22.2170918,26.78525 C23.492602,25.47275 22.6632653,23.72275 21.8982143,22.28525 C21.1329082,20.84775 14.117602,11.84775 13.5436224,10.72275 C12.9696429,9.59775 13.0334184,8.47275 12.9056122,7.03525 C12.7783163,5.59775 12.4558673,2.05825 12.4558673,2.05825 L9.84464286,0.1015 L9.08010204,1.8945 Z" id="path-3"></path>
        <polygon id="path-5" points="0.240812768 0.12325 13.2288832 0.12325 13.2288832 5.07963241 0.240812768 5.07963241"></polygon>
    </defs>
    <g id="QuizzesList" stroke="none" stroke-width="1" fill="none" fill-rule="evenodd" transform="translate(-660.000000, -1117.000000)">
        <g id="science" transform="translate(660.000000, 1117.000000)">
            <g id="Group-10" transform="translate(0.000000, 2.126750)">
                <g id="Group-3">
                    <mask id="mask-2" fill="white">
                        <use xlink:href="#path-1"></use>
                    </mask>
                    <g id="Clip-2"></g>
                    <path d="M8.71311224,2.44105 C8.71311224,2.44105 8.79321429,7.6603 8.71311224,8.4103 C8.6330102,9.1603 7.29372449,11.4103 6.0819898,13.4103 C4.8702551,15.4103 3.21209184,19.7228 2.44678571,20.9103 C1.68147959,22.0978 -0.231785714,24.2228 0.0233163265,26.3478 C0.278418367,28.4728 1.42637755,29.9728 3.46719388,29.7228 C5.5080102,29.4728 7.33377551,29.7853 8.74857143,29.4728 C10.1636224,29.1603 13.862602,29.4728 16.0309694,29.3478 C18.1993367,29.2228 21.2605612,29.4728 22.5998469,28.4103 C23.9391327,27.3478 25.2146429,26.4103 24.6406633,24.5353 C24.0666837,22.6603 21.1330102,17.9103 17.6253571,13.6603 C15.9671939,11.4103 15.0743367,9.9728 14.8192347,9.3478 C14.5641327,8.7228 13.9901531,1.1603 13.9901531,1.1603 L9.90852041,0.1603 L8.71311224,2.44105 Z" id="Fill-1" fill="#151412" mask="url(#mask-2)"></path>
                </g>
                <path d="M9.84535714,2.394425 C9.84535714,2.394425 10.2272449,6.785175 10.2272449,7.472675 C10.2272449,8.160175 9.33438776,9.535175 8.69663265,10.660175 C8.05887755,11.785175 5.18897959,18.097675 4.16857143,19.847675 C3.14816327,21.597675 0.916020408,24.285175 0.979795918,25.722675 C1.04357143,27.160175 1.68132653,28.722675 3.59459184,28.722675 C5.50785714,28.722675 7.67622449,28.972675 9.14306122,28.722675 C10.609898,28.472675 13.3522449,28.410175 15.3292857,28.347675 C17.3063265,28.285175 21.7068367,28.597675 22.9823469,27.285175 C24.2578571,25.972675 23.4287755,24.222675 22.6634694,22.785175 C21.8981633,21.347675 14.8828571,12.347675 14.3088776,11.222675 C13.734898,10.097675 13.7986735,8.972675 13.6711224,7.535175 C13.5435714,6.097675 13.2213776,2.558175 13.2213776,2.558175 L10.609898,0.601425 L9.84535714,2.394425 Z" id="Fill-4" fill="#B1C3CB"></path>
                <path d="M16.7745918,17.4103 C15.3416837,16.88355 12.9694898,18.4728 9.2705102,19.8478 C5.57153061,21.2228 4.74244898,22.4728 4.16846939,22.6603 C3.5944898,22.8478 3.53071429,23.0353 3.33938776,24.4103 C3.14806122,25.7853 3.0205102,26.5353 3.97714286,26.7228 C4.93377551,26.9103 9.22918367,27.4103 12.3110714,27.2853 C15.3929592,27.1603 20.367449,27.1603 21.4516327,26.1603 C22.5358163,25.1603 21.6429592,23.3478 21.0052041,22.0353 C20.367449,20.7228 17.964898,17.8478 16.7745918,17.4103" id="Fill-6" fill="#151412"></path>
                <path d="M16.2221684,18.7228 C17.3359439,18.44305 18.3905357,19.5978 19.1558418,20.9103 C19.921148,22.2228 21.5793112,24.7853 20.048699,25.2228 C18.5180867,25.6603 16.2859439,25.6603 13.0333929,25.8478 C9.78084184,26.0353 6.84716837,25.9728 5.63543367,25.8478 C4.42369898,25.7228 3.78594388,25.7853 3.84971939,24.9728 C3.9134949,24.1603 3.77497449,23.5353 5.08772959,22.9728 C6.4007398,22.4103 14.4377296,19.17105 16.2221684,18.7228" id="Fill-8" fill="#8AB135"></path>
            </g>
            <g id="Group-13" transform="translate(0.765306, 2.626750)">
                <mask id="mask-4" fill="white">
                    <use xlink:href="#path-3"></use>
                </mask>
                <g id="Clip-12"></g>
                <path d="M9.20859694,3.41175 C9.20859694,3.41175 10.6432908,3.09775 11.8170153,3.97275 C12.9909949,4.84775 12.7777296,5.605 12.7777296,5.605 L14.2665051,1.457 L8.59048469,-1.71475 L6.97466837,2.09775 L9.20859694,3.41175 Z" id="Fill-11" fill="#8D989C" mask="url(#mask-4)"></path>
            </g>
            <g id="Group-19" transform="translate(4.846939, 0.126750)">
                <g id="Group-16">
                    <mask id="mask-6" fill="white">
                        <use xlink:href="#path-5"></use>
                    </mask>
                    <g id="Clip-15"></g>
                    <path d="M13.1609439,3.8478 C13.7617092,1.9508 10.2272704,0.2853 8.50533163,0.2228 C6.78339286,0.1603 1.49002551,-0.4022 0.469617347,2.0353 C-0.550790816,4.4728 2.12778061,4.9103 2.89308673,4.5978 C3.65839286,4.2853 7.86757653,4.33755 9.01553571,4.6863 C10.1634949,5.0353 12.5869643,5.6603 13.1609439,3.8478" id="Fill-14" fill="#151412" mask="url(#mask-6)"></path>
                </g>
                <path d="M11.8642602,3.5978 C12.1708929,3.14705 11.3540561,2.01455 9.69589286,1.5978 C8.03772959,1.18105 3.36094388,1.30605 2.38288265,1.88955 C1.40507653,2.4728 1.78772959,3.18105 1.83033163,3.26455 C1.87267857,3.3478 2.59563776,3.88955 3.44589286,3.5978 C4.29614796,3.30605 7.39997449,3.30605 8.42038265,3.51455 C9.44079082,3.7228 11.3540561,4.3478 11.8642602,3.5978" id="Fill-17" fill="#B1C3CB"></path>
            </g>
        </g>
    </g>
</svg>