<?xml version="1.0" encoding="UTF-8"?>
<svg width="18px" height="18px" viewBox="0 0 18 18" version="1.1" xmlns="http://www.w3.org/2000/svg" xmlns:xlink="http://www.w3.org/1999/xlink">
    <!-- Generator: sketchtool 48.2 (47327) - http://www.bohemiancoding.com/sketch -->
    <title>694C7FE2-A03A-4BA0-B518-F49362E5DBAD</title>
    <desc>Created with sketchtool.</desc>
    <defs></defs>
    <g id="JobDetail-Copy-2" stroke="none" stroke-width="1" fill="none" fill-rule="evenodd" transform="translate(-1287.000000, -39.000000)">
        <path d="M1299.93768,50.0945902 C1300.725,48.9621639 1301.175,47.603687 1301.175,46.1321848 C1301.175,42.1697794 1298.025,39 1294.08768,39 C1290.15,39 1287,42.0567541 1287,46.0191596 C1287,49.9812027 1290.15,53.1509821 1294.08768,53.1509821 C1295.55,53.1509821 1296.9,52.6981565 1298.025,51.9058928 L1303.08768,57 L1305,55.0756722 L1299.93768,50.0945902 Z M1289.13768,46.0191596 C1289.13768,43.3022058 1291.38768,41.0380776 1294.08768,41.0380776 C1296.78768,41.0380776 1299.03768,43.3022058 1299.03768,46.0191596 C1299.03768,48.7361133 1296.78768,51.0002415 1294.08768,51.0002415 C1291.38768,51.0002415 1289.13768,48.8491386 1289.13768,46.0191596 Z" id="search-black" fill="#2A2D34"></path>
    </g>
</svg>