<?xml version="1.0" encoding="UTF-8"?>
<svg width="31px" height="28px" viewBox="0 0 31 28" version="1.1" xmlns="http://www.w3.org/2000/svg" xmlns:xlink="http://www.w3.org/1999/xlink">
    <!-- Generator: sketchtool 48.2 (47327) - http://www.bohemiancoding.com/sketch -->
    <title>76FF45A4-F95A-4755-B705-8886E5949998</title>
    <desc>Created with sketchtool.</desc>
    <defs></defs>
    <g id="ResumeBoardAccess" stroke="none" stroke-width="1" fill="none" fill-rule="evenodd" transform="translate(-936.000000, -555.000000)">
        <g id="small-suitcase" transform="translate(936.000000, 555.000000)">
            <g id="Group-12" transform="translate(0.114682, 0.162294)">
                <path d="M19.0605931,6.32279489 C18.0501399,6.26684163 17.0576329,6.23365556 16.0428882,6.20973072 C15.5282983,6.1977683 11.6409793,6.23982972 11.78611,5.51938333 C12.0911967,4.00903136 13.0458604,2.41918717 14.769483,2.14520917 C16.225472,1.91367847 18.4141371,1.95805518 19.283361,3.3028627 C19.7281165,3.99128067 20.8602923,6.42158132 19.0605931,6.32279489 Z M29.8650303,13.3945144 C29.8650303,13.3945144 29.3925752,8.45635035 29.1565426,7.98865832 C28.9197299,7.52096629 26.497373,6.26491221 26.497373,6.26491221 L21.5640984,5.97279763 C21.5640984,5.97279763 21.3577162,3.19674446 21.0619928,2.49559231 C20.7662694,1.79444015 16.7782953,0.654923192 16.2761897,0.625595969 C15.7740842,0.596268746 12.1992645,1.00569221 11.1064924,1.56020825 C10.0141105,2.11588195 10.2204927,5.7096244 10.2204927,5.7096244 C6.73423391,5.35885538 3.39622696,6.08972064 1.97808118,6.9950057 C0.560325543,7.90106253 0.589585772,11.8752871 0.412463851,16.667201 C0.23534193,21.4591148 1.15138217,23.8257445 2.06664214,25.4622807 C2.98229225,27.0984311 10.2790131,26.396893 12.6428495,25.9299728 C15.0062958,25.4622807 25.582113,26.6893935 25.582113,26.6893935 C25.582113,26.6893935 27.7087465,26.2803559 28.92012,26.0754512 C30.1314935,25.8709324 30.4857373,23.9716089 30.4857373,23.9716089 L29.8650303,13.3945144 Z" id="Fill-2" fill="#DE7A26"></path>
                <path d="M13.0268218,18.1865055 L12.7907893,16.2578547 C12.7907893,16.2578547 19.5257137,15.5570884 19.732486,15.8781443 C19.9396485,16.1995861 19.732486,18.3327557 19.732486,18.3327557 C19.732486,18.3327557 13.2335941,18.3620829 13.0268218,18.1865055" id="Fill-4" fill="#C1C4C3"></path>
                <path d="M12.5719227,16.0746753 C12.2758092,16.0874095 12.1049295,16.0951272 12.1049295,16.0951272 C12.1049295,16.0951272 7.45957549,16.4142537 5.65402427,16.4358632 C3.84730265,16.456701 0.643502621,14.2872582 0.643502621,14.2872582 C0.0844371743,15.6058256 0.815162632,15.9037285 2.4283766,17.031283 C3.58279018,17.8381675 7.40534653,18.1217926 12.781426,18.0851336 C12.6390262,17.4229558 12.5933802,16.7210319 12.5719227,16.0746753" id="Fill-6" fill="#020303"></path>
                <path d="M29.457884,13.2453701 C29.457884,13.2453701 28.3182956,14.414986 28.0175004,14.7553362 C27.7163151,15.0956863 24.0821947,15.6058256 23.1786388,15.6274352 C22.8669198,15.6343811 21.451505,15.6926496 19.7313937,15.7655818 C19.8359502,16.4682775 19.8933003,17.1871803 19.8847173,17.9010667 C28.8360066,17.5348623 29.8663568,15.3932033 29.8882044,15.2658614 C29.9092718,15.1381336 29.457884,13.2453701 29.457884,13.2453701" id="Fill-8" fill="#020303"></path>
                <path d="M29.5786702,24.986215 C29.0703225,26.1276614 27.3665969,26.0925459 26.3350763,26.1037366 C24.7472212,26.1211014 23.1659984,25.8424927 21.580094,25.7838383 C18.8081749,25.6827366 16.0405474,25.5488346 13.2655072,25.6155926 C10.9254691,25.6719318 8.60181681,25.9937595 6.2602182,26.038908 C3.92915327,26.0836706 2.08848978,25.9312462 1.36556705,23.5078915 C0.55954527,20.8066999 1.13694713,17.8338456 0.976210934,15.0616513 C1.49665288,15.5513387 2.28433825,15.8419098 3.09426139,16.028292 C5.79205453,17.2422847 9.21003944,17.1180298 12.4903062,16.7711197 C12.4825035,17.6814212 12.5894008,18.7391307 13.0208917,19.4657512 C13.547966,20.3548291 14.892376,20.3891728 15.7943713,20.4497567 C17.0030138,20.5307925 18.6333938,20.6828309 19.5958603,19.7856495 C20.3726218,19.0613442 20.2848411,17.444874 20.1845761,16.4095459 C21.4607122,16.4207365 22.7380188,16.4041435 24.0203971,16.3038135 C25.4295697,16.1938364 28.4531267,16.0062966 29.4682616,14.5742791 C29.5224906,15.3313846 29.5778899,16.0881041 29.6395315,16.8425083 C29.7831017,18.6071582 29.9695869,20.3880152 30.012892,22.1576815 C30.0366903,23.1142893 29.972708,24.1002242 29.5786702,24.986215 M19.2927243,18.6997704 C19.2599528,18.8128346 19.2213293,18.9235835 19.1721722,19.0304735 C18.7098605,20.034545 16.6436982,19.7053855 15.7943713,19.6660253 C14.9965424,19.6285945 13.8592948,19.6154744 13.5471857,18.7364295 C13.5085622,18.6268383 13.4777414,18.5149318 13.4504319,18.4030253 C15.3835577,18.5735862 17.3541366,18.788138 19.2927243,18.6997704 M19.4078145,18.0067219 C17.4036839,17.8843965 15.373024,17.9499968 13.3634314,17.9469098 C13.3013998,17.5309263 13.2709691,17.1072251 13.1956728,16.693171 C14.2072965,16.5774056 15.1990232,16.4485202 16.145494,16.3397008 C17.240997,16.3528209 18.3341592,16.3840775 19.4269312,16.4018282 C19.4043033,16.9212287 19.4472183,17.4745871 19.4078145,18.0067219 M0.895842838,13.8638658 C0.725353235,11.186599 0.650056912,6.93801056 3.60963157,6.64242303 C3.75632285,6.62775941 3.85112599,6.54132128 3.90184372,6.4363607 C4.3754693,6.30245877 4.8697721,6.20984649 5.37772968,6.14964851 C7.07053148,6.10874475 8.87023064,6.40587582 10.3394843,6.38310863 C10.6207726,6.37847802 10.9024511,6.37693448 11.1845197,6.37384741 C11.8340968,6.45411138 12.4575347,6.53437536 13.0341563,6.59534512 C15.1124129,6.81568517 17.2101762,6.76667784 19.2974059,6.77709672 C21.6495382,6.78867326 24.108958,7.11551744 26.4423638,6.82919113 C26.4798169,6.8249464 26.508687,6.80835337 26.5320951,6.7875156 C28.3329647,6.93993998 28.8783754,7.81628371 29.057448,9.55160635 C29.1241613,10.1991206 29.1815114,10.8489501 29.2353502,11.4999372 C28.3189198,16.1344102 21.2180474,14.858676 17.5691017,15.1658401 C16.5578682,15.2503488 15.4557329,15.400072 14.3063911,15.5551976 C12.2109686,15.5787365 10.1163263,15.764347 8.01817277,15.764347 C7.26013776,15.764347 5.75304089,15.8056366 4.27754506,15.6362333 C3.03730148,15.2951114 1.89381172,14.7398236 0.914179248,13.8746705 C0.908717339,13.8692681 0.90208502,13.8681105 0.895842838,13.8638658 M19.9157721,5.67501056 C19.8041931,5.6715376 19.6902733,5.67115171 19.5790844,5.66729287 C17.2039341,5.57969708 14.8361963,5.56657701 12.4645572,5.59397481 C12.372485,5.58548535 12.280803,5.57969708 12.1891209,5.57082174 C12.6533832,3.14245051 13.9135238,2.37492622 16.3522663,2.43087948 C18.7933497,2.48606096 19.3925992,3.71973374 19.9157721,5.67501056 M13.0084073,1.53524153 C15.5013789,0.926315768 17.8640448,1.072566 20.1841859,2.06544684 C20.2009618,2.08126811 20.2192982,2.09554584 20.235684,2.11175298 C21.0498986,2.91979515 21.1447017,4.57138086 21.2586216,5.70665309 C21.0093244,5.70279424 20.7631484,5.69430478 20.5150216,5.6889024 C20.0979658,3.19493081 19.0399159,1.96280156 16.3522663,1.81037718 C13.8421288,1.66837168 11.6522932,2.77740377 11.7993747,5.52104264 C11.7997648,5.52644502 11.8028859,5.53030387 11.8036662,5.53609213 C11.394023,5.49518838 10.98516,5.45698581 10.5770774,5.42379974 C10.5813689,5.1085321 10.5579607,4.77937261 10.5329919,4.44905547 C10.738984,2.95066591 10.9882811,2.02840193 13.0084073,1.53524153 M30.7233304,20.2027906 C30.513437,17.685666 30.3367052,15.1681554 30.1166683,12.6506449 C29.8775147,9.91472368 30.4439927,6.47803622 26.9612452,5.99683824 C25.3967983,5.78035703 23.7831941,5.74408388 22.1777829,5.72054493 C22.0045623,4.23836252 21.8496782,2.67128553 20.8762879,1.47774473 C20.4697658,0.97956783 19.8845612,0.689768563 19.2384953,0.517664071 C18.0372654,0.0885604952 16.5274376,0.0850875346 15.1186551,0.244457838 C13.5842486,0.214358846 12.0002949,0.224777728 10.6223332,0.896216776 C9.70005075,1.34615812 9.60485747,2.3232177 9.7242392,3.32072916 C9.61070951,3.94933503 9.66532861,4.64740011 9.87873321,5.37286299 C8.59479435,5.28912605 7.31319631,5.27098947 6.0179435,5.41376674 C5.97775945,5.41839736 5.9418669,5.42650093 5.90168286,5.43113155 C3.84098244,5.41029378 1.83412086,5.75257334 1.0819379,7.56352935 C0.41363426,8.73661827 0.237682748,10.334566 0.149511924,11.6496604 C-0.0580406352,14.7514001 -0.0135650868,18.0626751 0.12727415,21.1644148 C0.264992296,24.2206201 1.10261512,26.5058282 4.39107475,26.8785927 C6.92188951,27.1656907 9.53619346,26.7593543 12.0615463,26.5826192 C15.2267228,26.3611215 18.4149174,26.5694992 21.580094,26.6887375 C24.154604,26.7855945 29.1046545,28.0921994 30.4467237,25.056446 C31.0888882,23.6024332 30.8505148,21.7281921 30.7233304,20.2027906" id="Fill-10" fill="#020303"></path>
            </g>
        </g>
    </g>
</svg>