<?xml version="1.0" encoding="UTF-8"?>
<svg width="20px" height="22px" viewBox="0 0 20 22" version="1.1" xmlns="http://www.w3.org/2000/svg" xmlns:xlink="http://www.w3.org/1999/xlink">
    <!-- Generator: sketchtool 48.2 (47327) - http://www.bohemiancoding.com/sketch -->
    <title>BBF0E301-F1CB-4449-ABAF-BF35004E4141</title>
    <desc>Created with sketchtool.</desc>
    <defs>
        <polygon id="path-1" points="0.212528835 0.0459493671 16.3208048 0.0459493671 16.3208048 16.5965133 0.212528835 16.5965133"></polygon>
        <polygon id="path-3" points="0 0.226128098 19.9644444 0.226128098 19.9644444 8.07594937 0 8.07594937"></polygon>
    </defs>
    <g id="AdUpload" stroke="none" stroke-width="1" fill="none" fill-rule="evenodd" transform="translate(-207.000000, -2002.000000)">
        <g id="upload-icon" transform="translate(207.000000, 2002.000000)">
            <path d="M13.7003611,4.81259747 C14.9720278,6.09723038 16.2150833,7.38492658 17.4325833,8.72052152 C16.0748056,8.46821772 14.4970278,8.72386329 13.1648056,8.7589519 C13.1139722,8.7589519 13.0723056,8.77176203 13.03425,8.78763544 C12.7853611,8.78123038 12.5370278,8.93467342 12.55925,9.24462278 C12.6450833,10.5289772 12.6134167,11.8105468 12.5784167,13.0949013 C12.5528611,14.1431038 12.4220278,15.1846228 12.7409167,16.1943949 C10.9050833,16.1687747 9.06591667,16.2648506 7.23008333,16.3127494 C7.23619444,16.2709772 7.23952778,16.2264203 7.23619444,16.1785215 C7.48508333,15.210243 7.41813889,14.1687241 7.43397222,13.1781671 C7.45952778,11.7977367 7.43397222,10.487762 7.31619444,9.11345823 C7.30980556,9.02406582 7.28425,8.95054684 7.25230556,8.89011646 C7.27452778,8.77176203 7.20452778,8.63447089 7.03897222,8.62166076 C5.68425,8.5066481 4.27869444,8.57682532 2.91452778,8.66621772 C5.45175,6.10669873 8.07147222,3.63685063 10.5956389,1.06786329 C11.6223056,2.33940759 12.5431389,3.63991392 13.7003611,4.81259747" id="Fill-1" fill="#82C3C3"></path>
            <path d="M0.881083333,14.9515899 C1.56302778,14.9674633 2.31525,15.0666025 3.00691667,14.9928051 C2.72330556,15.8045772 2.73608333,17.494957 2.92108333,18.5813114 C2.92386111,18.6548304 2.92719444,18.7252861 2.93386111,18.7985266 C2.93997222,18.9586532 2.95275,19.1215646 2.96886111,19.2811342 C2.98775,19.4504506 3.11525,19.5273114 3.23969444,19.5175646 L3.24275,19.5209063 C3.33191667,19.6038937 3.45941667,19.5624 3.49775,19.4537924 C3.50747222,19.4315139 3.51386111,19.4058937 3.51691667,19.3802734 C3.54886111,19.3900203 3.57747222,19.3994886 3.61580556,19.3994886 C5.83080556,19.5175646 8.04941667,19.4952861 10.2674722,19.4952861 C12.4635833,19.4952861 14.73275,19.6551342 16.9163611,19.4345772 C17.0788611,19.4187038 17.1774722,19.3293114 17.2255278,19.2237671 C17.2794167,19.1789316 17.3210833,19.1118177 17.3210833,19.0160203 C17.3591389,17.5684759 17.6333056,16.1404253 17.6746944,14.6959443 C17.95525,14.6959443 18.2324722,14.6959443 18.5130278,14.7054127 C18.7999722,14.714881 19.0421944,14.7884 19.2971944,14.8588557 C19.3099722,16.9452354 19.2746944,19.0447038 19.3416389,21.1310835 C18.1496944,20.9044 16.9066389,21.0032608 15.6921944,21.0032608 C14.0060833,21.0032608 12.32025,21.0004759 10.6338611,21.0004759 C7.36386111,20.9971342 4.09080556,21.0004759 0.817472222,21.0227544 C0.916083333,19.0959443 1.22219444,16.8750582 0.881083333,14.9515899" id="Fill-3" fill="#82C3C3"></path>
            <g id="Group-7" transform="translate(1.944444, 0.232559)">
                <mask id="mask-2" fill="white">
                    <use xlink:href="#path-1"></use>
                </mask>
                <g id="Clip-6"></g>
                <path d="M8.65127778,0.835220253 C9.67766667,2.10676456 10.5987778,3.40727089 11.756,4.57995443 C13.0276667,5.86486582 14.2704444,7.15256203 15.4879444,8.48787848 C14.1304444,8.23557468 12.5526667,8.49122025 11.2204444,8.52630886 C11.1693333,8.52630886 11.1279444,8.53911899 11.0896111,8.55527089 C10.841,8.54858734 10.5923889,8.70203038 10.6146111,9.01197975 C10.7007222,10.2966127 10.6690556,11.5779038 10.6340556,12.8622582 C10.6085,13.9104608 10.4776667,14.9519797 10.7965556,15.9617519 C8.96044444,15.9364101 7.12155556,16.0322076 5.28572222,16.0801063 C5.29183333,16.0386127 5.29516667,15.9940557 5.29183333,15.946157 C5.54072222,14.9776 5.47377778,13.936081 5.48961111,12.9455241 C5.51516667,11.5650937 5.48961111,10.255119 5.37155556,8.88109367 C5.36544444,8.79142278 5.33988889,8.71818228 5.30794444,8.65747342 C5.33016667,8.53911899 5.26016667,8.40182785 5.09433333,8.38901772 C3.73961111,8.27400506 2.33433333,8.34418228 0.970166667,8.43357468 C3.50711111,5.87433418 6.12711111,3.40448608 8.65127778,0.835220253 M0.613222222,8.77248608 L0.616277778,8.77248608 C0.724611111,8.77861266 0.836277778,8.78863797 0.944611111,8.79476456 C2.08877778,8.87468861 3.26183333,8.93539747 4.40933333,8.88415696 C4.41544444,8.92258734 4.42183333,8.96408101 4.441,9.00585316 C4.44405556,9.0214481 4.44738889,9.03425823 4.45377778,9.04706835 C4.28794444,11.3127899 4.68655556,13.6389418 4.37433333,15.8851696 C4.33266667,16.195119 4.49183333,16.3775241 4.68961111,16.4379544 C4.69294444,16.4379544 4.696,16.4379544 4.69905556,16.4412962 C4.7185,16.4443595 4.74072222,16.4507646 4.75961111,16.4541063 L4.76627778,16.4541063 L4.77572222,16.4541063 C4.79488889,16.4571696 4.81405556,16.4571696 4.82988889,16.4571696 L4.84905556,16.4571696 L4.86155556,16.4571696 C4.99905556,16.4602329 5.13877778,16.4635747 5.27627778,16.4669165 C7.2585,16.5178785 9.23766667,16.6331696 11.2204444,16.5849924 C11.4371111,16.5819291 11.5326667,16.3998025 11.5137778,16.2335494 C11.6157222,16.1472203 11.6696111,16.0099291 11.6157222,15.8339291 C11.316,14.8753975 11.4785,13.8497519 11.5454444,12.8622582 C11.6285,11.6608911 11.5740556,10.453119 11.5646111,9.24841013 C13.0307222,9.32220759 14.7229444,9.57116962 16.0937778,9.12392911 C16.2468333,9.07268861 16.3007222,8.91924557 16.2562778,8.79476456 C16.3326667,8.68309367 16.3548889,8.52965063 16.2468333,8.3951443 C15.0004444,6.86461266 13.6332222,5.48446076 12.2085,4.12630886 C10.9782222,2.95056203 10.0154444,1.56706835 8.87461111,0.317802532 C8.78516667,0.084435443 8.476,-0.0723493671 8.24988889,0.161017722 C5.57877778,2.87704304 2.53488889,5.33742278 0.259333333,8.41797975 C0.0935,8.64132152 0.405722222,8.89084051 0.613222222,8.77248608" id="Fill-5" fill="#1D1D1B" mask="url(#mask-2)"></path>
            </g>
            <g id="Group-10" transform="translate(0.000000, 13.878129)">
                <mask id="mask-4" fill="white">
                    <use xlink:href="#path-3"></use>
                </mask>
                <g id="Clip-9"></g>
                <path d="M15.6922778,7.12524304 C14.0061667,7.12524304 12.3200556,7.12217975 10.6339444,7.12217975 C7.36394444,7.11911646 4.09061111,7.12217975 0.817277778,7.14445823 C0.916166667,5.2176481 1.222,2.99704051 0.881166667,1.07357215 C1.56311111,1.08916709 2.31533333,1.18858481 3.007,1.11478734 C2.72338889,1.92655949 2.73588889,3.61666076 2.92088889,4.70329367 C2.92394444,4.77653418 2.92727778,4.84698987 2.93366667,4.92050886 C2.94005556,5.08035696 2.95283333,5.24326835 2.96866667,5.40283797 C2.98783333,5.57243291 3.11533333,5.64901519 3.23977778,5.63954684 L3.24283333,5.64288861 C3.332,5.72587595 3.4595,5.6841038 3.49783333,5.57577468 C3.50755556,5.55321772 3.51366667,5.52787595 3.517,5.5022557 C3.54866667,5.51172405 3.57755556,5.52119241 3.61561111,5.52119241 C5.83088889,5.63954684 8.04922222,5.61726835 10.2675556,5.61726835 C12.4636667,5.61726835 14.7328333,5.77683797 16.9161667,5.55628101 C17.0786667,5.54068608 17.1775556,5.45101519 17.2256111,5.34547089 C17.2795,5.30063544 17.3208889,5.2338 17.3208889,5.13772405 C17.3592222,3.69045823 17.6331111,2.26212911 17.6747778,0.817926582 C17.9550556,0.817926582 18.2325556,0.817926582 18.5128333,0.827394937 C18.8000556,0.836863291 19.0422778,0.910382278 19.2972778,0.980837975 C19.3097778,3.06721772 19.2745,5.16668608 19.3417222,7.25306582 C18.1497778,7.02638228 16.9067222,7.12524304 15.6922778,7.12524304 M19.8836667,0.57815443 C19.6189444,0.299951899 19.1408889,0.299951899 18.7806111,0.287141772 C18.4014444,0.271546835 18.0222778,0.309698734 17.6397778,0.335318987 C17.6236667,0.335318987 17.6047778,0.338382278 17.5886667,0.338382278 C17.3942222,0.130913924 16.9511667,0.210559494 16.9417222,0.581217722 C16.9131111,2.00648354 16.6995,3.41559747 16.7631111,4.84058481 C14.6245,4.63924304 12.4125556,4.7893443 10.2675556,4.79268608 C8.04922222,4.79268608 5.83088889,4.76706582 3.61561111,4.88542025 C3.57422222,4.88876203 3.54255556,4.89823038 3.51061111,4.91104051 L3.51061111,4.88876203 C3.53922222,4.36772405 3.53588889,3.84390127 3.52033333,3.3198 C3.52311111,3.21759747 3.52644444,3.11817975 3.52644444,3.01597722 C3.54255556,2.51443291 3.56144444,2.01288861 3.58061111,1.51106582 C3.587,1.2841038 3.68561111,1.01592658 3.6095,0.79536962 C3.59977778,0.766686076 3.58061111,0.737724051 3.56144444,0.712382278 C3.54255556,0.613243038 3.47866667,0.523850633 3.36394444,0.49823038 C2.57033333,0.331977215 1.65866667,0.472610127 0.848944444,0.488762025 C0.763111111,0.491825316 0.702555556,0.523850633 0.654777778,0.568407595 C0.489222222,0.49823038 0.262555556,0.562281013 0.218111111,0.763344304 C-0.221611111,2.76701519 0.122555556,5.14719241 0.2245,7.18623038 C0.2245,7.21185063 0.234222222,7.23078734 0.240333333,7.25000253 C-0.0113333333,7.48002785 0.0811666667,8.01053418 0.520888889,8.01666076 C3.6795,8.03921772 6.84144444,8.04228101 10.0031111,8.04228101 C11.6892222,8.03921772 13.3750556,8.03921772 15.0614444,8.03615443 C16.5464444,8.03615443 18.1114444,8.19878734 19.5647778,7.86655949 C19.6381111,7.85040759 19.6922778,7.80585063 19.7272778,7.75154684 C19.8133889,7.71645823 19.8836667,7.63987595 19.8867222,7.51511646 C19.9664444,5.31038228 19.922,3.09283797 19.9375556,0.884762025 C19.9822778,0.792306329 19.9758889,0.677293671 19.8836667,0.57815443" id="Fill-8" fill="#1D1D1B" mask="url(#mask-4)"></path>
            </g>
        </g>
    </g>
</svg>