<?xml version="1.0" encoding="UTF-8"?>
<svg width="23px" height="23px" viewBox="0 0 23 23" version="1.1" xmlns="http://www.w3.org/2000/svg" xmlns:xlink="http://www.w3.org/1999/xlink">
    <!-- Generator: sketchtool 48.2 (47327) - http://www.bohemiancoding.com/sketch -->
    <title>D3409E32-76F7-4442-B013-31A2CE69D20F</title>
    <desc>Created with sketchtool.</desc>
    <defs></defs>
    <g id="AdUpload" stroke="none" stroke-width="1" fill="none" fill-rule="evenodd" transform="translate(-795.000000, -488.000000)">
        <g id="URL" transform="translate(795.000000, 488.000000)" fill="#000000">
            <path d="M6.5338625,23 C8.26219434,23 9.91985661,22.3087299 11.1427474,21.0784315 L14.6623992,17.525481 C15.1125336,17.0726199 15.1125336,16.3376866 14.6623992,15.8848254 C14.2122648,15.4319643 13.4817565,15.4319643 13.0316221,15.8848254 L9.52387658,19.4377759 C7.86890283,21.0768859 5.20919216,21.0664531 3.56766099,19.4138191 C1.9249776,17.7623444 1.9146076,15.0865225 3.54384842,13.4215237 L7.06350019,9.88055166 C7.42798617,9.41880334 7.39034695,8.75612688 6.97631545,8.33958739 C6.56228396,7.9226615 5.90359749,7.88518067 5.44462937,8.25187453 L1.91307131,11.7839594 C0.68864422,13.015417 0.00153629497,14.6862118 0,16.4265586 C0,18.168451 0.68557163,19.8392458 1.90846242,21.0710899 C3.13135322,22.3040931 4.79055179,22.9969088 6.52195622,23 L6.5338625,23 Z" id="Fill-1"></path>
            <path d="M11.8677497,1.83527892 L8.33929661,5.36141277 C7.88690113,5.81085582 7.88690113,6.54024207 8.33929661,6.98968513 C8.79169208,7.43912818 9.52586972,7.43912818 9.97826519,6.98968513 L13.5036303,3.46355128 C14.2937783,2.64097845 15.3838507,2.16929334 16.5283495,2.1558714 C17.6728483,2.14206598 18.7748868,2.58729072 19.583177,3.39145632 C20.3930112,4.19447146 20.8423186,5.28931781 20.8284225,6.42481344 C20.8149124,7.56184301 20.3416728,8.64633529 19.5136964,9.4313267 L15.9763653,12.9486404 C15.7185153,13.1522703 15.5587101,13.456373 15.5405679,13.7846352 C15.5208818,14.1109799 15.6447887,14.4315724 15.8783205,14.6624297 C16.1106943,14.8944374 16.4333928,15.0175357 16.7618813,14.997978 C17.0922998,14.9799543 17.3984002,14.821192 17.6033678,14.5650248 L21.152665,11.0595991 C22.7661574,9.40294889 23.3799021,7.02266474 22.7661574,4.79960895 C22.1539567,2.57655317 20.4065213,0.840521853 18.1688621,0.232316493 C15.9312029,-0.377422802 13.5352825,0.232316493 11.8677497,1.83527892 Z" id="Fill-2"></path>
            <path d="M6.3342004,16.664783 C6.5486075,16.8794897 6.84084209,17 7.14490341,17 C7.44896473,17 7.73967329,16.8794897 7.95408039,16.664783 L16.6646551,7.95447927 C17.1117816,7.50752323 17.1117816,6.78369852 16.6646551,6.33521703 C16.2175285,5.88826099 15.4919016,5.88826099 15.0447751,6.33521703 L6.3342004,15.0485716 C5.88859987,15.4955277 5.88859987,16.2178269 6.3342004,16.664783 Z" id="Fill-3"></path>
        </g>
    </g>
</svg>