<?xml version="1.0" encoding="UTF-8"?>
<svg width="17px" height="17px" viewBox="0 0 17 17" version="1.1" xmlns="http://www.w3.org/2000/svg" xmlns:xlink="http://www.w3.org/1999/xlink">
    <!-- Generator: sketchtool 48.2 (47327) - http://www.bohemiancoding.com/sketch -->
    <title>8D8A81BF-B89B-45F9-BFCD-D7456F4A69C3</title>
    <desc>Created with sketchtool.</desc>
    <defs></defs>
    <g id="ResumeBoard" stroke="none" stroke-width="1" fill="none" fill-rule="evenodd" transform="translate(-149.000000, -288.000000)">
        <g id="warning" transform="translate(149.000000, 288.000000)" fill="#FFFFFF">
            <path d="M8.51280822,0.145547945 C3.90068493,0.145547945 0.145547945,3.90068493 0.145547945,8.51280822 C0.145547945,13.1246986 3.90068493,16.8798356 8.51280822,16.8798356 C13.1246986,16.8798356 16.8798356,13.1246986 16.8798356,8.51280822 C16.8798356,3.90068493 13.1246986,0.145547945 8.51280822,0.145547945 Z M8.51280822,15.1160274 C4.85850685,15.1160274 1.90935616,12.1424247 1.90935616,8.51280822 C1.90935616,4.85850685 4.88319178,1.90935616 8.51280822,1.90935616 C12.1424247,1.90935616 15.1160274,4.88319178 15.1160274,8.51280822 C15.1160274,12.1414932 12.1414932,15.1160274 8.51280822,15.1160274 Z" id="Fill-1"></path>
            <path d="M8.48719178,11.6375479 C8.13438356,11.6375479 7.85679452,11.764 7.60482192,12.0159726 C7.37846575,12.2679452 7.2520137,12.5706849 7.2520137,12.9227945 C7.2520137,13.3259041 7.37846575,13.6286438 7.63043836,13.8806164 C7.88241096,14.1072055 8.15976712,14.208274 8.48719178,14.208274 C8.81484932,14.208274 9.09220548,14.0818219 9.34417808,13.8552329 C9.59615068,13.6286438 9.72260274,13.3002877 9.72260274,12.9227945 C9.72260274,12.5699863 9.59615068,12.2679452 9.36956164,12.0159726 C9.14227397,11.764 8.84023288,11.6375479 8.48719178,11.6375479 Z" id="Fill-2"></path>
            <path d="M8.53819178,3.27028767 C8.15976712,3.27028767 7.83234247,3.39673973 7.60575342,3.67316438 C7.37939726,3.92513699 7.25294521,4.27817808 7.25294521,4.73205479 C7.25294521,5.00964384 7.27832877,5.46258904 7.30278082,6.1439863 L7.50491781,9.44524658 C7.55475342,9.89912329 7.60575342,10.2519315 7.73127397,10.4785205 C7.85772603,10.7805616 8.10969863,10.9323973 8.46180822,10.9323973 C8.78923288,10.9323973 9.04120548,10.7561096 9.19234247,10.4540685 C9.31879452,10.2020959 9.36863014,9.87443836 9.41869863,9.44594521 L9.69628767,6.06853425 C9.72167123,5.74087671 9.74635616,5.43813699 9.74635616,5.11047945 C9.74635616,4.55553425 9.67067123,4.12727397 9.54421918,3.82523288 C9.41963014,3.57326027 9.14227397,3.27028767 8.53819178,3.27028767 Z" id="Fill-3"></path>
        </g>
    </g>
</svg>