<?xml version="1.0" encoding="UTF-8"?>
<svg width="32px" height="32px" viewBox="0 0 32 32" version="1.1" xmlns="http://www.w3.org/2000/svg" xmlns:xlink="http://www.w3.org/1999/xlink">
    <!-- Generator: sketchtool 48.2 (47327) - http://www.bohemiancoding.com/sketch -->
    <title>4C920260-F0B8-44F5-98BE-F5D38DF3B235</title>
    <desc>Created with sketchtool.</desc>
    <defs>
        <polygon id="path-1" points="0 0.240168421 31.9798697 0.240168421 31.9798697 31.5788685 0 31.5788685"></polygon>
    </defs>
    <g id="QuizzesList" stroke="none" stroke-width="1" fill="none" fill-rule="evenodd" transform="translate(-658.000000, -1341.000000)">
        <g id="world" transform="translate(658.000000, 1341.000000)">
            <path d="M15.76448,1.29107368 C15.76448,1.29107368 29.1908267,2.85865263 30.8509867,15.0392842 C32.5115733,27.2211789 19.95136,30.5689684 16.0533333,30.7112842 C12.1553067,30.8540211 -0.11648,24.7277053 0.894293333,14.7550737 C1.90506667,4.7816 12.29952,0.2936 15.76448,1.29107368" id="Fill-1" fill="#82C3C3"></path>
            <g id="Group-5" transform="translate(0.000000, 0.181011)">
                <mask id="mask-2" fill="white">
                    <use xlink:href="#path-1"></use>
                </mask>
                <g id="Clip-4"></g>
                <path d="M26.979456,24.2511158 C26.462336,23.7424842 25.879936,23.3189053 25.2531627,22.9631158 C26.1559893,20.9125895 26.7443627,18.7892211 26.9879893,16.9332211 C27.0430293,16.5113263 27.089536,16.0928 27.1258027,15.6776421 C27.5277227,15.6473263 27.9300693,15.6241684 28.3354027,15.6161684 C28.998016,15.6031158 29.5863893,15.8544842 30.212736,15.9201684 C30.3505493,19.0098526 29.0842027,21.9155368 26.979456,24.2511158 M22.286976,27.8161684 C23.1706027,26.7736421 23.9373227,25.5896421 24.5867093,24.3483789 C25.0603093,24.6355368 25.499776,24.9618526 25.891456,25.3336421 C24.823936,26.3008 23.609216,27.1437474 22.286976,27.8161684 M18.403456,29.2258526 C18.235776,29.2645895 18.068096,29.3050105 17.8987093,29.3382737 C17.6038827,29.3963789 17.3111893,29.4397474 17.019776,29.4755368 C17.018496,27.1866947 16.9626027,24.9062737 16.882816,22.6271158 C18.9662293,22.5517474 21.3760427,22.8616421 23.404416,23.7399579 C22.1559893,25.8970105 20.473216,27.7829053 18.403456,29.2258526 M16.6366293,16.6629053 C17.1486293,16.5976421 17.6606293,16.5328 18.1709227,16.4704842 C20.616576,16.1711158 23.071616,16.0713263 25.518976,15.8229053 C25.643136,15.8106947 25.7668693,15.7984842 25.8906027,15.7862737 C25.8564693,16.1159579 25.8176427,16.4448 25.7732693,16.7711158 C25.5040427,18.7412211 24.936576,20.6439579 24.1028693,22.4035368 C22.1457493,21.5934316 19.908736,21.2965895 17.8692693,21.1782737 C17.524096,21.1584842 17.175936,21.1546947 16.8269227,21.1584842 C16.7684693,19.6612211 16.7044693,18.1631158 16.6366293,16.6629053 M16.565376,15.0658526 C16.5568427,14.8742737 16.5478827,14.6839579 16.539776,14.4923789 C16.487296,13.3066947 16.433536,12.1159579 16.4113493,10.9252211 C19.4611627,10.9374316 22.4657493,10.3740632 25.1204693,9.07216842 C25.8214827,10.6439579 26.0382293,12.3475368 26.0011093,14.0683789 C24.2551893,14.1816421 22.4883627,14.3888 20.7787093,14.5685895 C19.369856,14.7159579 17.9665493,14.8881684 16.565376,15.0658526 M16.2419627,2.43006316 C17.3227093,2.47932632 18.3910827,2.61490526 19.4586027,2.88774737 C21.3201493,4.25995789 23.0515627,5.79216842 24.3639893,7.70837895 C24.4395093,7.81995789 24.5022293,7.93448421 24.571776,8.04732632 C22.0395093,9.25027368 19.244416,9.73658947 16.402816,9.71469474 C16.4058027,8.86164211 16.4301227,8.00985263 16.4915627,7.16016842 C16.608896,5.53364211 16.7130027,3.95595789 16.2419627,2.43006316 M26.1713493,7.16732632 C25.988736,7.28269474 25.8035627,7.39301053 25.6171093,7.50037895 C24.9216427,6.29616842 23.9876693,5.25153684 22.9188693,4.3408 C24.1591893,5.10332632 25.230976,6.07764211 26.1713493,7.16732632 M28.852096,11.1328 C29.3943893,12.1420632 29.762176,13.1530105 29.981056,14.1521684 C29.297536,13.9399579 28.4608427,13.9774316 27.7675093,13.9909053 C27.582336,13.9946947 27.3937493,14.0085895 27.207296,14.0149053 C27.222656,12.1252211 26.941056,10.2978526 26.144896,8.52227368 C26.3974827,8.37406316 26.6458027,8.21785263 26.8902827,8.05448421 C27.629696,9.02964211 28.281216,10.0704842 28.852096,11.1328 M14.358656,29.5012211 C14.3147093,29.3968 14.2451627,29.2965895 14.126976,29.2174316 C12.6758827,28.2401684 11.4923093,27.6026947 10.5259093,26.0532211 C10.1559893,25.4603789 9.823616,24.8422737 9.518976,24.2111158 C11.3805227,23.5879579 13.2471893,23.0304842 15.243136,22.7690105 C15.3229227,25.0313263 15.383936,27.2944842 15.400576,29.5639579 C15.0494293,29.5593263 14.702976,29.5353263 14.358656,29.5012211 M6.119296,25.3576421 C6.786176,25.1429053 7.44452267,24.9184842 8.099456,24.6944842 C8.702336,26.0098526 9.44644267,27.3706947 10.4427093,28.4346947 C8.82820267,27.6991158 7.369856,26.6351158 6.119296,25.3576421 M1.77966933,16.8296421 C3.13902933,17.1365895 4.50478933,17.3100632 5.874816,17.3845895 C6.15812267,19.4953263 6.78062933,21.5690105 7.59086933,23.5256421 C6.856576,23.8780632 6.14830933,24.2574316 5.472896,24.6561684 C3.54052267,22.4283789 2.21358933,19.6641684 1.77966933,16.8296421 M1.670016,15.9264842 C1.39054933,12.6414316 2.359936,10.0220632 4.05422933,7.88185263 C4.89390933,8.31174737 5.77582933,8.70416842 6.68974933,9.05490526 C6.066816,10.8435368 5.73956267,12.7572211 5.70414933,14.6704842 C5.694336,15.2111158 5.72036267,15.7513263 5.760896,16.2911158 C4.42542933,16.3930105 3.08612267,16.4679579 1.739136,16.4961684 C1.714816,16.3062737 1.68580267,16.1168 1.670016,15.9264842 M11.065216,2.57237895 C11.0955093,2.57953684 11.1275093,2.58374737 11.159936,2.58837895 C9.32654933,4.02795789 7.97316267,5.93069474 7.07076267,8.05911579 C6.24644267,7.78627368 5.440896,7.48774737 4.66052267,7.16943158 C6.36590933,5.29743158 8.634496,3.8128 11.065216,2.57237895 M7.25934933,16.1635368 C7.218816,15.6666947 7.18980267,15.1694316 7.18212267,14.6704842 C7.15396267,12.7959579 7.47396267,11.1003789 8.062336,9.54164211 C10.2123093,10.2422737 12.4979627,10.7083789 14.7908693,10.8658526 C14.798976,12.3382737 14.8787627,13.8149053 14.939776,15.2721684 C12.3819093,15.6010105 9.82660267,15.9264842 7.25934933,16.1635368 M15.0071893,16.8683789 C15.069056,18.3323789 15.129216,19.7951158 15.185536,21.2574316 C13.0705493,21.4864842 10.938496,22.0902737 8.94084267,22.9205895 C8.84526933,22.6940632 8.74884267,22.4671158 8.65838933,22.2389053 C8.04270933,20.6890105 7.62756267,19.0730105 7.39716267,17.4300632 C9.931136,17.4452211 12.474496,17.1808 15.0071893,16.8683789 M13.2087893,2.46711579 C13.8534827,2.43174737 14.490496,2.40690526 15.121536,2.40522105 C15.3702827,4.20648421 15.0758827,6.04185263 14.9069227,7.83890526 C14.850176,8.43974737 14.8177493,9.04522105 14.801536,9.65153684 C12.6737493,9.49911579 10.5451093,9.08522105 8.503936,8.50122105 C9.57444267,6.23595789 11.2256427,4.26711579 13.2087893,2.46711579 M31.2107093,11.7728 C28.8845227,5.16269474 22.3492693,0.192168421 15.249536,0.321431579 C15.2439893,0.294063158 15.2346027,0.266694737 15.2247893,0.240168421 C14.3309227,0.338694737 13.4366293,0.435115789 12.542336,0.527747368 C12.2637227,0.624168421 11.9825493,0.714694737 11.7086293,0.818273684 C11.506816,0.871747368 11.3054293,0.925221053 11.1040427,0.987536842 C10.9662293,1.03048421 10.855296,1.10374737 10.765696,1.19301053 C4.07556267,4.02164211 -0.830677333,9.41532632 0.117376,17.2140632 C1.06926933,25.0460632 8.00686933,31.1829053 15.962496,31.2540632 C16.0806827,31.4696421 16.3213227,31.6296421 16.6042027,31.5639579 C17.0487893,31.4603789 17.4788693,31.3172211 17.897856,31.1471158 C18.0646827,31.1281684 18.2315093,31.1117474 18.3987627,31.0869053 C27.779456,29.7003789 34.281856,20.4995368 31.2107093,11.7728" id="Fill-3" fill="#1D1D1B" mask="url(#mask-2)"></path>
            </g>
        </g>
    </g>
</svg>