<?xml version="1.0" encoding="UTF-8"?>
<svg width="31px" height="32px" viewBox="0 0 31 32" version="1.1" xmlns="http://www.w3.org/2000/svg" xmlns:xlink="http://www.w3.org/1999/xlink">
    <!-- Generator: sketchtool 48.2 (47327) - http://www.bohemiancoding.com/sketch -->
    <title>D1D84DEA-D90A-4FB2-9101-C453FCF0494D</title>
    <desc>Created with sketchtool.</desc>
    <defs>
        <polygon id="path-1" points="2.04453432e-05 0.2526674 30.9836622 0.2526674 30.9836622 31.5733063 2.04453432e-05 31.5733063"></polygon>
    </defs>
    <g id="QuizzesList" stroke="none" stroke-width="1" fill="none" fill-rule="evenodd" transform="translate(-658.000000, -1524.000000)">
        <g id="writing" transform="translate(658.000000, 1524.000000)">
            <path d="M2.90507703,30.6431573 C2.90507703,30.6431573 1.51217162,30.836864 1.25872568,29.482624 C1.00569865,28.128384 0.942441892,25.871744 0.942441892,25.871744 L1.70194189,2.33851733 C1.70194189,2.33851733 13.6666851,0.984704 13.6034284,1.177984 C13.5401716,1.37169067 24.6184824,1.82267733 24.6184824,1.82267733 L25.2514689,22.519424 L25.0616986,29.8696107 C25.0616986,29.8696107 23.2259959,32.2546773 2.84182027,30.3854507" id="Fill-1" fill="#FFFFFF"></path>
            <path d="M9.17210405,19.9681707 C9.17210405,19.9681707 12.7743878,16.3880107 14.0923068,15.4041173 C15.4106446,14.4197973 23.845577,6.365184 23.845577,6.365184 L27.3603068,9.586944 L13.6092932,22.7867307 L13.4333473,21.265664 L11.6319959,21.444864 L11.2369554,19.6101973 C11.2369554,19.6101973 9.26007703,20.415744 9.17210405,19.9681707" id="Fill-3" fill="#DF7A1F"></path>
            <path d="M24.1967149,6.00776533 L26.9205257,3.77032533 C26.9205257,3.77032533 28.7658635,3.41277867 29.3808365,4.17309867 C29.9958095,4.93341867 30.3912689,6.499712 30.3912689,6.499712 L27.2719986,9.36349867 C27.2719986,9.36349867 23.8892284,6.63453867 24.1967149,6.00776533" id="Fill-5" fill="#EA5645"></path>
            <path d="M22.7984054,7.22816 L23.8457027,6.36544 L27.2372703,9.216 L26.1983514,10.3061333 C26.1983514,10.3061333 22.609473,8.09386667 22.7984054,7.22816" id="Fill-7" fill="#C1C5C4"></path>
            <path d="M7.97139865,23.9327573 L9.19925,20.3099307 L11.6859527,20.0530773 L12.0009797,21.3356373 C12.0009797,21.3356373 13.3226689,21.1432107 13.3226689,21.2396373 C13.3226689,21.3356373 13.4173446,22.6821973 13.4173446,22.6821973 L12.6930338,23.9007573 C12.6930338,23.9007573 8.31742568,27.1391573 7.97139865,23.9327573" id="Fill-9" fill="#E7E7B6"></path>
            <g id="Group-13" transform="translate(0.000000, 0.173995)">
                <mask id="mask-2" fill="white">
                    <use xlink:href="#path-1"></use>
                </mask>
                <g id="Clip-12"></g>
                <path d="M27.4208405,8.75707733 C27.4296378,8.56465067 27.3521378,8.36881067 27.1502189,8.23569067 C26.2030432,7.611904 25.4980027,6.70651733 24.5303,6.146304 C24.5520838,6.12283733 24.5713541,6.09723733 24.5897865,6.07035733 C25.3564081,5.41457067 26.1431378,4.78523733 26.9638,4.20155733 C27.6206649,3.96689067 28.2138541,3.97969067 28.8196108,4.386304 C29.5129216,4.85179733 29.4266243,5.70939733 29.8685838,6.30545067 C29.8907865,6.335744 29.9175973,6.360064 29.9431514,6.384384 C29.107827,7.179264 28.2658,7.969024 27.4208405,8.75707733 M20.9016243,14.9684907 C18.7596919,17.117184 16.3881919,19.2338773 14.4062865,21.5886507 C14.3945568,21.307904 14.3283676,21.0446507 14.1737865,20.8377173 C14.1457189,20.8005973 14.1113676,20.7749973 14.0803676,20.7429973 C15.8482054,18.8046507 17.7597324,17.0126507 19.6448676,15.1937707 C21.4784757,13.4248107 23.1880838,11.5521707 25.0937459,9.86427733 C25.2944081,10.0025173 25.5005162,10.1087573 25.7083,10.141184 C25.9935838,10.1864107 26.245773,9.92145067 26.090773,9.63515733 C25.7979486,9.09585067 25.0719622,8.77841067 24.5918811,8.419584 C24.1126378,8.061184 23.6631378,7.665664 23.1847324,7.31025067 C23.3975432,7.11483733 23.6137054,6.923264 23.8290297,6.73169067 C24.8516108,7.432704 25.5553946,8.534784 26.5528405,9.27675733 C26.6223811,9.328384 26.6919216,9.35825067 26.7602054,9.373184 C24.7837459,11.2146773 22.8068676,13.0574507 20.9016243,14.9684907 M23.1700703,8.22417067 C21.3016919,10.2465707 19.1869892,12.0948907 17.1280027,13.9141973 C15.2231784,15.5961173 12.9400703,16.9192107 11.6150297,19.148544 C11.5195162,19.1208107 11.4143676,19.1016107 11.2895297,19.101184 C10.7487054,19.099904 10.1999216,19.3371307 9.6880027,19.600384 C10.6092054,18.5128107 11.8261649,17.7217707 12.8914757,16.7886507 C14.4469216,15.426304 15.9659216,14.0204373 17.5134081,12.648704 C19.3340297,11.034624 21.0595568,9.28315733 22.8525297,7.61915733 C22.9857459,7.803904 23.1332054,7.97627733 23.2861108,8.14481067 C23.2454757,8.16059733 23.2060973,8.184064 23.1700703,8.22417067 M13.2370838,20.442624 C13.0623946,20.451584 12.8935703,20.5074773 12.7280973,20.5599573 C12.4562189,20.6457173 12.2765027,20.8744107 12.2706378,20.5330773 C12.2614216,19.999744 12.1931378,19.4962773 11.8404081,19.2539307 C13.6107595,17.8945707 15.240773,16.2241707 17.0002324,14.8212907 C19.3047054,12.984064 21.6435297,10.8780373 23.6011378,8.66321067 C23.6342324,8.625664 23.6564351,8.585984 23.6690027,8.54545067 C23.7728946,8.647424 23.8776243,8.74897067 23.9836108,8.849664 C24.1691919,9.026304 24.3853541,9.25585067 24.618273,9.47473067 C22.7980703,10.792704 21.3218,12.6175573 19.7412189,14.2056107 C17.6922865,16.2629973 15.6408405,18.293504 13.7795838,20.5288107 C13.6149486,20.459264 13.4323,20.432384 13.2370838,20.442624 M11.3632595,21.5041707 C11.7281378,21.9922773 12.336827,21.9103573 12.8445568,21.7396907 C13.3041108,21.5839573 13.3078811,21.4401707 13.2065027,21.9948373 C13.1541378,22.281984 13.0770568,22.558464 13.0422865,22.8485973 C13.0376784,22.882304 13.0380973,22.9138773 13.039773,22.9441707 C12.9580838,22.9352107 12.8696919,22.9548373 12.7800432,23.0184107 C11.7394486,23.756544 10.6029216,24.3265707 9.41277297,24.7634773 C9.41151622,24.588544 9.33569189,24.410624 9.17147568,24.300544 C8.97123243,24.1669973 8.74417838,23.9195307 8.63693514,23.702784 C8.60677297,23.6421973 8.56655676,23.595264 8.52047568,23.5598507 C8.97919189,22.5465173 9.33988108,21.492224 9.44963784,20.5134507 C9.99507027,20.3116373 10.5580973,20.1004373 11.1357865,20.049664 C11.0507459,20.0569173 11.2095162,21.2980907 11.3632595,21.5041707 M18.6935027,29.8053973 C16.5297865,29.9948373 14.3685838,29.9752107 12.1994216,29.949184 C10.2983676,29.926144 8.40024595,29.896704 6.49961081,29.9116373 C5.38235405,29.9205973 2.59989459,30.4594773 1.85296216,29.337344 C1.77294865,29.2174507 1.67240811,29.1474773 1.5660027,29.113344 C1.25265135,28.1516373 1.60873243,26.1100373 1.6610973,25.4670507 C1.83955676,23.2628907 1.61292162,21.0267307 1.61878649,18.8136107 C1.62758378,15.8491307 1.88773243,12.9375573 2.17217838,9.99057067 C2.30246216,8.634624 2.41305676,7.276544 2.50898919,5.91761067 C2.52742162,5.649664 2.37619189,2.84603733 2.75028649,2.67579733 C2.85627297,2.62801067 2.93754324,2.55761067 2.99954324,2.475264 C4.7280027,2.05115733 6.61020541,2.26065067 8.37092162,2.166784 C10.0260703,2.07803733 11.6774486,1.90395733 13.3321784,1.80283733 C14.9885838,1.700864 16.645827,1.71153067 18.304327,1.681664 C19.8823946,1.65307733 21.5375432,1.52891733 23.099273,1.84721067 C23.3564892,1.840384 23.6137054,1.833984 23.8705027,1.82715733 C23.6974892,2.76411733 23.8235838,3.81371733 23.8281919,4.75665067 C23.827773,4.761344 23.8290297,4.76475733 23.8286108,4.76945067 C23.796773,4.80145067 23.7678676,4.836864 23.7427324,4.87611733 C23.5948541,4.97937067 23.4943135,5.14705067 23.5047865,5.37105067 C23.5127459,5.540864 23.5269892,5.70555733 23.5491919,5.873664 C23.5521243,5.892864 23.558827,5.91121067 23.564273,5.92955733 C21.5216243,7.76721067 19.5891514,9.72859733 17.5473405,11.5769173 C17.5230432,11.5986773 17.4991649,11.620864 17.4752865,11.642624 C17.4103541,11.376384 17.1690568,11.1412907 16.883773,11.263744 C16.0417459,11.623424 15.1498676,11.180544 14.4083811,11.4169173 C12.9853135,11.8725973 12.2710568,12.0517973 10.8354216,11.2761173 C9.42911081,10.517504 8.3880973,11.2965973 7.15228649,11.841024 C6.95665135,11.721984 6.74970541,11.6511573 6.51175946,11.606784 C6.13096216,11.5368107 5.66135405,11.3755307 5.28851622,11.5077973 C4.93871892,11.6328107 4.87169189,12.0846507 5.18755676,12.2958507 C5.49923243,12.504064 5.88170541,12.4443307 6.23611081,12.381184 C6.34628649,12.3615573 6.45352973,12.3397973 6.55993514,12.3167573 C6.58255676,12.402944 6.64958378,12.4737707 6.76520541,12.469504 C8.06552973,12.4264107 8.98757027,11.3618773 10.4093811,12.0193707 C11.0796514,12.3295573 11.7947459,13.0937173 12.6061919,13.0267307 C13.5600703,12.9477973 14.3966514,12.329984 15.3484351,12.6158507 C15.7216919,12.728064 16.1724486,12.6111573 16.5867595,12.451584 C15.2654892,13.6539307 13.948827,14.860544 12.6246243,16.058624 C12.5194757,15.9694507 12.3850027,15.9131307 12.2396378,15.9361707 C11.6523135,16.0283307 11.0922189,16.1998507 10.4960973,16.2271573 C9.90584054,16.2540373 9.31977297,16.1541973 8.72784054,16.1849173 C8.35123243,16.204544 8.00855676,16.299264 7.70819189,16.469504 C7.65666486,16.3321173 7.52763784,16.218624 7.3718,16.210944 C7.14642162,16.1989973 6.9290027,16.2728107 6.70362432,16.2783573 C6.41415135,16.285184 6.12886757,16.219904 5.85196216,16.1422507 C5.41251622,16.0193707 5.25081351,16.6721707 5.6668,16.826624 C6.05304324,16.9704107 6.58842162,17.129984 7.05048919,17.073664 C7.03875946,17.0911573 7.02451622,17.1060907 7.01278649,17.1240107 C6.93570541,17.2396373 7.0995027,17.347584 7.1925027,17.2648107 C8.09652973,16.4673707 9.16728649,17.019904 10.1835838,17.1265707 C10.6096243,17.170944 11.0147189,17.173504 11.4105973,17.1188907 C10.4860432,17.9060907 9.58704324,18.7009707 8.99552973,19.8056107 C8.98547568,19.8235307 8.98338108,19.839744 8.97877297,19.8568107 C8.87781351,19.896064 8.7890027,19.970304 8.74375946,20.0837973 C8.5895973,20.4724907 8.45596216,20.868864 8.32442162,21.2660907 C7.76558378,21.251584 7.21596216,20.9819307 6.64790811,20.9260373 C6.1075027,20.8731307 5.55327297,20.890624 5.02208378,21.0053973 C4.56169189,21.104384 4.67144865,21.8399573 5.13225946,21.831424 C5.71748919,21.8207573 6.28428649,21.7695573 6.86993514,21.8190507 C7.31147568,21.8561707 7.68096216,21.9700907 8.09569189,21.951744 C7.95577297,22.3720107 7.81166486,22.7918507 7.6420027,23.202304 C7.24863784,24.1541973 6.80584054,25.0860373 6.54904324,26.086144 C6.48452973,26.032384 6.40242162,25.9995307 6.29685405,26.011904 C6.06896216,26.0396373 5.84148919,26.0447573 5.61234054,26.0332373 C5.51640811,26.028544 5.44938108,26.0178773 5.40455676,26.009344 C5.29857027,25.9871573 5.21897568,25.996544 5.11424595,26.015744 C5.09916486,26.0187307 5.08743514,26.0204373 5.07821892,26.0212907 C5.08952973,26.0212907 5.10670541,26.0212907 5.13225946,26.022144 C4.88425946,26.0110507 4.66516486,26.2913707 4.74811081,26.535424 C4.97348919,27.194624 5.9060027,26.9595307 6.40577297,26.828544 C6.52893514,26.7961173 6.60601622,26.7103573 6.65042162,26.608384 C6.69357027,26.617344 6.73923243,26.617344 6.78196216,26.5989973 C6.7828,26.8366507 7.07771892,27.0350507 7.26623243,26.8178773 C8.29719189,25.631744 9.70392162,26.3186773 10.8107054,26.7167573 C12.2178541,27.2232107 13.3485162,26.1467307 14.7615297,26.351104 C15.7824351,26.499584 16.2981243,26.8549973 17.3429081,26.549504 C18.6256378,26.174464 19.9121378,26.5605973 21.1986378,26.1262507 C21.7930838,25.9257173 21.5513676,25.0553173 20.9426784,25.1781973 C19.9850297,25.3710507 19.1425838,25.2460373 18.1924757,25.2123307 C17.3043676,25.1816107 16.8996919,25.859584 15.8750162,25.6475307 C14.5357324,25.370624 13.8746784,25.3266773 12.5211514,25.7704107 C11.6921108,26.042624 10.8710297,25.6005973 10.0269081,25.414144 C10.0545568,25.4047573 10.0826243,25.3957973 10.110273,25.3864107 C11.1990432,25.0088107 12.2614216,24.424704 13.2119486,23.7710507 C13.318773,23.6980907 13.3744892,23.5999573 13.3941784,23.4971307 C13.4561784,23.5013973 13.5190162,23.4847573 13.5705432,23.4335573 C13.5885568,23.416064 13.6057324,23.3985707 13.6237459,23.3810773 C13.8399081,23.3537707 14.0527189,23.225344 14.1369216,22.9996373 C14.1591243,22.9407573 14.1804892,22.875904 14.2018541,22.810624 C14.7657189,22.2555307 15.3266514,21.6974507 15.8880027,21.140224 C15.9278,21.1624107 15.9743,21.170944 16.0237324,21.154304 C17.4346514,20.6875307 18.5338946,21.1858773 19.9192595,21.3228373 C20.830827,21.412864 21.7235432,20.9029973 22.2409081,20.180224 C22.5240973,19.7851307 21.9962595,19.396864 21.6414351,19.5705173 C21.0486649,19.8606507 20.6054486,20.2382507 19.9192595,20.2860373 C19.3805297,20.322304 18.8254622,20.152064 18.2905027,20.0846507 C17.7655973,20.018944 17.2570297,20.0744107 16.7886784,20.2484907 C18.1308946,18.915584 19.4726919,17.5826773 20.8190973,16.254464 C20.8588946,16.3457707 20.9363946,16.422144 21.0662595,16.4549973 C21.3029486,16.5147307 21.5228811,16.5279573 21.7637595,16.5241173 C22.0871649,16.5185707 22.256827,16.0313173 21.9371919,15.8725973 C21.8425162,15.8248107 21.7444892,15.7842773 21.6460432,15.7445973 C21.5685432,15.7138773 21.471773,15.709184 21.378773,15.7023573 C22.4545568,14.6463573 23.5328541,13.5929173 24.6220432,12.5522773 C24.5583676,13.257984 24.5847595,13.9769173 24.5843405,14.6830507 C24.5843405,14.774784 24.5826649,14.888704 24.5835027,15.012864 C24.2768541,17.0757973 24.5428676,19.343104 24.5608811,21.3637973 C24.5847595,24.0104107 24.4339486,26.781184 24.6714757,29.4222507 C22.7281108,29.7106773 20.6553,29.6334507 18.6935027,29.8053973 M30.766327,6.15825067 C31.0252189,5.24475733 30.2007865,4.03643733 29.4970027,3.533824 C28.7186514,2.978304 27.836827,2.96977067 27.0107189,3.307264 C26.9055703,3.25905067 26.7807324,3.26289067 26.6550568,3.357184 C26.1678541,3.71985067 25.6944757,4.09915733 25.2269622,4.48401067 C25.2479081,3.66907733 25.3270838,2.792704 25.2085297,1.98801067 C25.2152324,1.963264 25.2206784,1.93809067 25.2282189,1.91377067 C25.3404892,1.55793067 25.0924892,1.26907733 24.7971514,1.18203733 C24.7301243,1.03995733 24.6103135,0.919210667 24.4259892,0.854784 C21.5329351,-0.151296 18.0048,0.387584 15.0011514,0.474197333 C11.0008946,0.589397333 6.82092162,1.50075733 2.83071892,0.857770667 C2.37367838,0.783957333 2.08001622,0.961024 1.93046216,1.224704 C0.357002703,1.79729067 0.857191892,4.53691733 0.770475676,5.91761067 C0.51702973,9.959424 -0.0250513514,13.9496107 0.000921621622,18.008064 C0.0201918919,20.9166507 0.356164865,23.7864107 0.317205405,26.6937173 C0.305894595,27.5436373 0.270286486,29.1039573 0.940137838,29.857024 C0.943489189,29.8638507 0.944745946,29.869824 0.948097297,29.876224 C1.39466486,30.7521707 2.20694865,31.1848107 3.17297568,31.268864 C5.34590811,31.4578773 7.56785405,31.421184 9.74790811,31.471104 C14.8423811,31.5871573 20.2296784,31.7765973 25.2659216,30.9087573 C25.7711378,30.8217173 25.9022595,30.381824 25.7803541,29.9961173 C25.790827,29.9572907 25.8080027,29.9240107 25.8130297,29.8796373 C26.1142324,27.1033173 25.9382865,24.1631573 25.9634216,21.3637973 C25.9805973,19.4847573 26.2114216,17.3919573 25.997773,15.449344 C26.0115973,15.2897707 26.0157865,15.134464 26.0224892,15.007744 C26.075273,13.997824 26.1050162,12.9140907 25.9177595,11.9186773 C25.8871784,11.7544107 25.7916649,11.6379307 25.6701784,11.5615573 C27.3596784,9.96795733 29.0713811,8.397824 30.8287459,6.87675733 C31.0905703,6.649344 30.9875162,6.32379733 30.766327,6.15825067" id="Fill-11" fill="#1D1D1B" mask="url(#mask-2)"></path>
            </g>
            <path d="M6.29651892,7.82485333 C7.85573514,7.49546667 9.0551,7.85002667 10.5916946,8.11712 C11.7407892,8.3168 12.8102892,7.85685333 13.7821811,7.28170667 C14.2321,7.01546667 13.9321541,6.22869333 13.4219108,6.41088 C12.3863432,6.78037333 11.5409649,7.17418667 10.3968973,7.0048 C9.72453243,6.90581333 9.07855946,6.74496 8.39865405,6.69546667 C7.49672162,6.62933333 6.6438027,6.83968 6.18382973,7.67594667 C6.13942432,7.75701333 6.2118973,7.84277333 6.29651892,7.82485333" id="Fill-14" fill="#1D1D1B"></path>
            <path d="M19.2732027,7.00859733 C19.5605811,6.95697067 19.5593243,6.47569067 19.2732027,6.42235733 C19.22,6.412544 19.1123378,6.40699733 19.0788243,6.37755733 C18.7470405,6.081024 18.259,6.573824 18.5924595,6.87163733 C18.8048514,7.06107733 19.0084459,7.056384 19.2732027,7.00859733" id="Fill-16" fill="#1D1D1B"></path>
        </g>
    </g>
</svg>